%
M48
M72
T01C0.0200
T02C0.0354
T03C0.0360
T04C0.0400
T05C0.1250
%
T01
X5905Y3126
X6741Y3126
X8090Y2457
X9054Y2831
X9054Y2043
X12204Y1059
X12814Y3106
X14448Y3126
X15157Y3146
X17027Y4012
X18110Y3618
X18897Y3618
X18110Y2831
X19291Y2634
X18582Y2043
X18110Y1649
X22440Y1846
X22440Y2437
X22440Y3224
X22440Y3815
X22440Y4405
X22440Y4996
X22440Y5586
X19232Y4799
X18011Y4720
X17027Y4789
X14094Y4819
X13139Y4848
X14763Y6485
X12598Y6964
X13188Y7358
X12598Y7555
X12598Y8146
X12991Y8933
X14645Y9622
X15551Y9327
X14881Y9031
X14763Y8342
X15354Y8146
X15747Y7752
X18110Y6964
X18700Y6964
X18405Y7831
X17913Y8992
X18306Y9327
X19094Y9523
X18110Y10114
X18503Y10901
X17716Y11689
X13779Y10508
X13139Y10311
X12204Y10311
X12007Y10901
X13582Y11354
X16417Y9327
X22440Y9130
X22440Y9720
X22440Y10311
X22440Y10901
X24212Y9327
X24409Y7752
X28318Y5171
X24212Y3224
X26377Y1846
X9842Y8342
X8464Y9642
X8464Y10212
X8464Y10754
X6594Y10901
X5314Y11738
X4743Y11728
X4114Y11709
X1180Y9327
X6299Y8933
X6495Y8146
X5610Y7309
X5019Y7309
X5511Y5882
X6200Y5882
X8956Y6571
X6200Y4012
X5511Y4012
X1180Y3815
X28346Y11246
T02
X2558Y7437
X2558Y5705
T03
X19972Y6071
X20972Y6071
X20972Y7071
X19972Y7071
X19972Y8071
X20972Y8071
X20972Y9071
X19972Y9071
X19972Y10071
X20972Y10071
X31192Y10071
X32192Y10071
X32192Y9071
X31192Y9071
X31192Y8071
X32192Y8071
X32192Y7071
X31192Y7071
X31192Y6071
X32192Y6071
X32192Y5071
X31192Y5071
X31192Y4071
X32192Y4071
X32192Y3071
X31192Y3071
X20972Y3071
X19972Y3071
X19972Y4071
X20972Y4071
X20972Y5071
X19972Y5071
T04
X10736Y3831
X9736Y3831
X9736Y2831
X10736Y2831
X10736Y1831
X9736Y1831
X9736Y9311
X10736Y9311
X10736Y10311
X9736Y10311
X9736Y11311
X10736Y11311
T05
X2362Y2240
X2362Y10901
X28346Y6571
M30
