G75*
G70*
%OFA0B0*%
%FSLAX24Y24*%
%IPPOS*%
%LPD*%
%AMOC8*
5,1,8,0,0,1.08239X$1,22.5*
%
%ADD10C,0.1261*%
%ADD11R,0.0513X0.0474*%
%ADD12R,0.0395X0.0395*%
%ADD13C,0.0200*%
%ADD14OC8,0.0680*%
%ADD15OC8,0.0720*%
%ADD16C,0.0434*%
%ADD17OC8,0.0556*%
D10*
X002362Y002240D03*
X002362Y010901D03*
X028543Y006571D03*
D11*
X001771Y006216D03*
X001771Y005547D03*
X001771Y004838D03*
X001771Y004169D03*
X001771Y006925D03*
X001771Y007594D03*
X001716Y008311D03*
X001716Y008980D03*
D12*
X001058Y008933D03*
X001058Y008342D03*
X001082Y007555D03*
X001082Y006964D03*
X001082Y006177D03*
X001082Y005586D03*
X001082Y004799D03*
X001082Y004209D03*
D13*
X025528Y007358D03*
X025818Y007358D03*
X026543Y007358D03*
X026833Y007358D03*
D14*
X031192Y007071D03*
X032192Y007071D03*
X032192Y008071D03*
X031192Y008071D03*
X031192Y009071D03*
X032192Y009071D03*
X032192Y010071D03*
X031192Y010071D03*
X031192Y006071D03*
X032192Y006071D03*
X032192Y005071D03*
X031192Y005071D03*
X031192Y004071D03*
X032192Y004071D03*
X032192Y003071D03*
X031192Y003071D03*
X020972Y003071D03*
X019972Y003071D03*
X019972Y004071D03*
X020972Y004071D03*
X020972Y005071D03*
X019972Y005071D03*
X019972Y006071D03*
X020972Y006071D03*
X020972Y007071D03*
X019972Y007071D03*
X019972Y008071D03*
X020972Y008071D03*
X020972Y009071D03*
X019972Y009071D03*
X019972Y010071D03*
X020972Y010071D03*
D15*
X010736Y010311D03*
X009736Y010311D03*
X009736Y009311D03*
X010736Y009311D03*
X010736Y011311D03*
X009736Y011311D03*
X009736Y003831D03*
X010736Y003831D03*
X010736Y002831D03*
X009736Y002831D03*
X009736Y001831D03*
X010736Y001831D03*
D16*
X002558Y005705D03*
X002558Y007437D03*
D17*
X005019Y007309D03*
X005610Y007309D03*
X005511Y005882D03*
X006200Y005882D03*
X006200Y004012D03*
X008090Y002457D03*
X008464Y009642D03*
X008464Y010212D03*
X006594Y010901D03*
M02*
