G75*
G70*
%OFA0B0*%
%FSLAX24Y24*%
%IPPOS*%
%LPD*%
%AMOC8*
5,1,8,0,0,1.08239X$1,22.5*
%
%ADD10C,0.0000*%
%ADD11R,0.0425X0.0413*%
%ADD12R,0.0433X0.0394*%
%ADD13R,0.0500X0.0250*%
%ADD14C,0.0080*%
%ADD15R,0.0220X0.0500*%
%ADD16R,0.0500X0.0220*%
%ADD17R,0.0866X0.0236*%
%ADD18R,0.0394X0.0433*%
%ADD19R,0.0413X0.0425*%
%ADD20C,0.0150*%
%ADD21R,0.0551X0.0630*%
%ADD22R,0.0880X0.0480*%
%ADD23R,0.0866X0.1417*%
%ADD24R,0.1000X0.0500*%
%ADD25R,0.0472X0.0217*%
%ADD26R,0.0217X0.0472*%
%ADD27R,0.0472X0.0551*%
%ADD28R,0.0669X0.0276*%
%ADD29R,0.0248X0.0327*%
%ADD30R,0.0354X0.0197*%
%ADD31OC8,0.0600*%
%ADD32OC8,0.0640*%
%ADD33R,0.0984X0.0197*%
%ADD34R,0.0984X0.0787*%
%ADD35C,0.0160*%
%ADD36OC8,0.0476*%
%ADD37C,0.0500*%
%ADD38C,0.0400*%
%ADD39C,0.0240*%
%ADD40OC8,0.0436*%
%ADD41C,0.0120*%
D10*
X000393Y000665D02*
X000393Y012476D01*
X033661Y012476D01*
X033661Y000665D01*
X000393Y000665D01*
X001771Y002240D02*
X001773Y002288D01*
X001779Y002336D01*
X001789Y002383D01*
X001802Y002429D01*
X001820Y002474D01*
X001840Y002518D01*
X001865Y002560D01*
X001893Y002599D01*
X001923Y002636D01*
X001957Y002670D01*
X001994Y002702D01*
X002032Y002731D01*
X002073Y002756D01*
X002116Y002778D01*
X002161Y002796D01*
X002207Y002810D01*
X002254Y002821D01*
X002302Y002828D01*
X002350Y002831D01*
X002398Y002830D01*
X002446Y002825D01*
X002494Y002816D01*
X002540Y002804D01*
X002585Y002787D01*
X002629Y002767D01*
X002671Y002744D01*
X002711Y002717D01*
X002749Y002687D01*
X002784Y002654D01*
X002816Y002618D01*
X002846Y002580D01*
X002872Y002539D01*
X002894Y002496D01*
X002914Y002452D01*
X002929Y002407D01*
X002941Y002360D01*
X002949Y002312D01*
X002953Y002264D01*
X002953Y002216D01*
X002949Y002168D01*
X002941Y002120D01*
X002929Y002073D01*
X002914Y002028D01*
X002894Y001984D01*
X002872Y001941D01*
X002846Y001900D01*
X002816Y001862D01*
X002784Y001826D01*
X002749Y001793D01*
X002711Y001763D01*
X002671Y001736D01*
X002629Y001713D01*
X002585Y001693D01*
X002540Y001676D01*
X002494Y001664D01*
X002446Y001655D01*
X002398Y001650D01*
X002350Y001649D01*
X002302Y001652D01*
X002254Y001659D01*
X002207Y001670D01*
X002161Y001684D01*
X002116Y001702D01*
X002073Y001724D01*
X002032Y001749D01*
X001994Y001778D01*
X001957Y001810D01*
X001923Y001844D01*
X001893Y001881D01*
X001865Y001920D01*
X001840Y001962D01*
X001820Y002006D01*
X001802Y002051D01*
X001789Y002097D01*
X001779Y002144D01*
X001773Y002192D01*
X001771Y002240D01*
X002381Y005705D02*
X002383Y005731D01*
X002389Y005757D01*
X002399Y005782D01*
X002412Y005805D01*
X002428Y005825D01*
X002448Y005843D01*
X002470Y005858D01*
X002493Y005870D01*
X002519Y005878D01*
X002545Y005882D01*
X002571Y005882D01*
X002597Y005878D01*
X002623Y005870D01*
X002647Y005858D01*
X002668Y005843D01*
X002688Y005825D01*
X002704Y005805D01*
X002717Y005782D01*
X002727Y005757D01*
X002733Y005731D01*
X002735Y005705D01*
X002733Y005679D01*
X002727Y005653D01*
X002717Y005628D01*
X002704Y005605D01*
X002688Y005585D01*
X002668Y005567D01*
X002646Y005552D01*
X002623Y005540D01*
X002597Y005532D01*
X002571Y005528D01*
X002545Y005528D01*
X002519Y005532D01*
X002493Y005540D01*
X002469Y005552D01*
X002448Y005567D01*
X002428Y005585D01*
X002412Y005605D01*
X002399Y005628D01*
X002389Y005653D01*
X002383Y005679D01*
X002381Y005705D01*
X002381Y007437D02*
X002383Y007463D01*
X002389Y007489D01*
X002399Y007514D01*
X002412Y007537D01*
X002428Y007557D01*
X002448Y007575D01*
X002470Y007590D01*
X002493Y007602D01*
X002519Y007610D01*
X002545Y007614D01*
X002571Y007614D01*
X002597Y007610D01*
X002623Y007602D01*
X002647Y007590D01*
X002668Y007575D01*
X002688Y007557D01*
X002704Y007537D01*
X002717Y007514D01*
X002727Y007489D01*
X002733Y007463D01*
X002735Y007437D01*
X002733Y007411D01*
X002727Y007385D01*
X002717Y007360D01*
X002704Y007337D01*
X002688Y007317D01*
X002668Y007299D01*
X002646Y007284D01*
X002623Y007272D01*
X002597Y007264D01*
X002571Y007260D01*
X002545Y007260D01*
X002519Y007264D01*
X002493Y007272D01*
X002469Y007284D01*
X002448Y007299D01*
X002428Y007317D01*
X002412Y007337D01*
X002399Y007360D01*
X002389Y007385D01*
X002383Y007411D01*
X002381Y007437D01*
X001771Y010901D02*
X001773Y010949D01*
X001779Y010997D01*
X001789Y011044D01*
X001802Y011090D01*
X001820Y011135D01*
X001840Y011179D01*
X001865Y011221D01*
X001893Y011260D01*
X001923Y011297D01*
X001957Y011331D01*
X001994Y011363D01*
X002032Y011392D01*
X002073Y011417D01*
X002116Y011439D01*
X002161Y011457D01*
X002207Y011471D01*
X002254Y011482D01*
X002302Y011489D01*
X002350Y011492D01*
X002398Y011491D01*
X002446Y011486D01*
X002494Y011477D01*
X002540Y011465D01*
X002585Y011448D01*
X002629Y011428D01*
X002671Y011405D01*
X002711Y011378D01*
X002749Y011348D01*
X002784Y011315D01*
X002816Y011279D01*
X002846Y011241D01*
X002872Y011200D01*
X002894Y011157D01*
X002914Y011113D01*
X002929Y011068D01*
X002941Y011021D01*
X002949Y010973D01*
X002953Y010925D01*
X002953Y010877D01*
X002949Y010829D01*
X002941Y010781D01*
X002929Y010734D01*
X002914Y010689D01*
X002894Y010645D01*
X002872Y010602D01*
X002846Y010561D01*
X002816Y010523D01*
X002784Y010487D01*
X002749Y010454D01*
X002711Y010424D01*
X002671Y010397D01*
X002629Y010374D01*
X002585Y010354D01*
X002540Y010337D01*
X002494Y010325D01*
X002446Y010316D01*
X002398Y010311D01*
X002350Y010310D01*
X002302Y010313D01*
X002254Y010320D01*
X002207Y010331D01*
X002161Y010345D01*
X002116Y010363D01*
X002073Y010385D01*
X002032Y010410D01*
X001994Y010439D01*
X001957Y010471D01*
X001923Y010505D01*
X001893Y010542D01*
X001865Y010581D01*
X001840Y010623D01*
X001820Y010667D01*
X001802Y010712D01*
X001789Y010758D01*
X001779Y010805D01*
X001773Y010853D01*
X001771Y010901D01*
X027952Y006571D02*
X027954Y006619D01*
X027960Y006667D01*
X027970Y006714D01*
X027983Y006760D01*
X028001Y006805D01*
X028021Y006849D01*
X028046Y006891D01*
X028074Y006930D01*
X028104Y006967D01*
X028138Y007001D01*
X028175Y007033D01*
X028213Y007062D01*
X028254Y007087D01*
X028297Y007109D01*
X028342Y007127D01*
X028388Y007141D01*
X028435Y007152D01*
X028483Y007159D01*
X028531Y007162D01*
X028579Y007161D01*
X028627Y007156D01*
X028675Y007147D01*
X028721Y007135D01*
X028766Y007118D01*
X028810Y007098D01*
X028852Y007075D01*
X028892Y007048D01*
X028930Y007018D01*
X028965Y006985D01*
X028997Y006949D01*
X029027Y006911D01*
X029053Y006870D01*
X029075Y006827D01*
X029095Y006783D01*
X029110Y006738D01*
X029122Y006691D01*
X029130Y006643D01*
X029134Y006595D01*
X029134Y006547D01*
X029130Y006499D01*
X029122Y006451D01*
X029110Y006404D01*
X029095Y006359D01*
X029075Y006315D01*
X029053Y006272D01*
X029027Y006231D01*
X028997Y006193D01*
X028965Y006157D01*
X028930Y006124D01*
X028892Y006094D01*
X028852Y006067D01*
X028810Y006044D01*
X028766Y006024D01*
X028721Y006007D01*
X028675Y005995D01*
X028627Y005986D01*
X028579Y005981D01*
X028531Y005980D01*
X028483Y005983D01*
X028435Y005990D01*
X028388Y006001D01*
X028342Y006015D01*
X028297Y006033D01*
X028254Y006055D01*
X028213Y006080D01*
X028175Y006109D01*
X028138Y006141D01*
X028104Y006175D01*
X028074Y006212D01*
X028046Y006251D01*
X028021Y006293D01*
X028001Y006337D01*
X027983Y006382D01*
X027970Y006428D01*
X027960Y006475D01*
X027954Y006523D01*
X027952Y006571D01*
D11*
X028740Y004750D03*
X028740Y004061D03*
X017519Y004356D03*
X017519Y003667D03*
X015551Y005242D03*
X014566Y005242D03*
X014566Y005931D03*
X015551Y005931D03*
X008484Y008348D03*
X008484Y009037D03*
X004499Y008447D03*
X004499Y007758D03*
X004495Y009691D03*
X004495Y010380D03*
X008810Y011191D03*
X008810Y011880D03*
X015354Y012033D03*
X015354Y011344D03*
X028740Y010852D03*
X028740Y010163D03*
X007389Y002254D03*
X007389Y001565D03*
X004814Y001584D03*
X004814Y002273D03*
D12*
X012598Y003677D03*
X013582Y003677D03*
X014566Y003677D03*
X014566Y004346D03*
X013582Y004346D03*
X012598Y004346D03*
X012598Y005252D03*
X013582Y005252D03*
X013582Y005921D03*
X012598Y005921D03*
X016535Y005921D03*
X017519Y005921D03*
X017519Y005252D03*
X016535Y005252D03*
X016535Y004346D03*
X016535Y003677D03*
X015944Y011354D03*
X014566Y011354D03*
X014566Y012023D03*
X015944Y012023D03*
D13*
X012007Y011692D03*
X012007Y011292D03*
X007972Y011489D03*
X007972Y011889D03*
X015551Y004332D03*
X015551Y004012D03*
X015551Y003692D03*
D14*
X012007Y011342D02*
X012007Y011642D01*
X007972Y011539D02*
X007972Y011839D01*
D15*
X014448Y010426D03*
X014763Y010426D03*
X015078Y010426D03*
X015393Y010426D03*
X015708Y010426D03*
X016023Y010426D03*
X016338Y010426D03*
X016653Y010426D03*
X016653Y007046D03*
X016338Y007046D03*
X016023Y007046D03*
X015708Y007046D03*
X015393Y007046D03*
X015078Y007046D03*
X014763Y007046D03*
X014448Y007046D03*
D16*
X013861Y007634D03*
X013861Y007949D03*
X013861Y008264D03*
X013861Y008579D03*
X013861Y008894D03*
X013861Y009209D03*
X013861Y009523D03*
X013861Y009838D03*
X017241Y009838D03*
X017241Y009523D03*
X017241Y009209D03*
X017241Y008894D03*
X017241Y008579D03*
X017241Y008264D03*
X017241Y007949D03*
X017241Y007634D03*
D17*
X025354Y007773D03*
X025354Y008273D03*
X025354Y008773D03*
X025354Y009273D03*
X025354Y009773D03*
X025354Y010273D03*
X025354Y010773D03*
X025354Y011273D03*
X027401Y011273D03*
X027401Y010773D03*
X027401Y010273D03*
X027401Y009773D03*
X027401Y009273D03*
X027401Y008773D03*
X027401Y008273D03*
X027401Y007773D03*
X027401Y005171D03*
X027401Y004671D03*
X027401Y004171D03*
X027401Y003671D03*
X027401Y003171D03*
X027401Y002671D03*
X027401Y002171D03*
X027401Y001671D03*
X025354Y001671D03*
X025354Y002171D03*
X025354Y002671D03*
X025354Y003171D03*
X025354Y003671D03*
X025354Y004171D03*
X025354Y004671D03*
X025354Y005171D03*
X015192Y002679D03*
X015192Y002179D03*
X015192Y001679D03*
X015192Y001179D03*
X013145Y001179D03*
X013145Y001679D03*
X013145Y002179D03*
X013145Y002679D03*
D18*
X016850Y002043D03*
X017519Y002043D03*
X023058Y002586D03*
X023728Y002586D03*
X023759Y001846D03*
X023090Y001846D03*
X023090Y001059D03*
X023759Y001059D03*
X023759Y007949D03*
X023090Y007949D03*
X023090Y008736D03*
X023759Y008736D03*
D19*
X023769Y011295D03*
X023080Y011295D03*
X011082Y008441D03*
X010393Y008441D03*
X023049Y005264D03*
X023738Y005264D03*
X017529Y002831D03*
X016840Y002831D03*
D20*
X007922Y007815D02*
X007272Y007815D01*
X007272Y008071D02*
X007922Y008071D01*
X007922Y008327D02*
X007272Y008327D01*
X007272Y008582D02*
X007922Y008582D01*
X007922Y008838D02*
X007272Y008838D01*
X007272Y009094D02*
X007922Y009094D01*
X007922Y009350D02*
X007272Y009350D01*
X007272Y009606D02*
X007922Y009606D01*
X007922Y009862D02*
X007272Y009862D01*
X007272Y010118D02*
X007922Y010118D01*
X007922Y010374D02*
X007272Y010374D01*
X007272Y010630D02*
X007922Y010630D01*
X007922Y010886D02*
X007272Y010886D01*
X007272Y011142D02*
X007922Y011142D01*
X005620Y011142D02*
X004970Y011142D01*
X004970Y010886D02*
X005620Y010886D01*
X005620Y010630D02*
X004970Y010630D01*
X004970Y010374D02*
X005620Y010374D01*
X005620Y010118D02*
X004970Y010118D01*
X004970Y009862D02*
X005620Y009862D01*
X005620Y009606D02*
X004970Y009606D01*
X004970Y009350D02*
X005620Y009350D01*
X005620Y009094D02*
X004970Y009094D01*
X004970Y008838D02*
X005620Y008838D01*
X005620Y008582D02*
X004970Y008582D01*
X004970Y008327D02*
X005620Y008327D01*
X005620Y008071D02*
X004970Y008071D01*
X004970Y007815D02*
X005620Y007815D01*
D21*
X008287Y004980D03*
X008287Y003799D03*
D22*
X004685Y004027D03*
X004685Y004937D03*
X004685Y005847D03*
D23*
X007125Y004937D03*
D24*
X009212Y004917D03*
X010747Y004917D03*
X007106Y006142D03*
X003543Y004055D03*
D25*
X005637Y002598D03*
X005637Y002283D03*
X005637Y001968D03*
X005637Y001653D03*
X005637Y001338D03*
X005637Y001023D03*
X006503Y001023D03*
X006503Y001338D03*
X006503Y001653D03*
X006503Y001968D03*
X006503Y002283D03*
X006503Y002598D03*
D26*
X006070Y002638D03*
X006070Y000984D03*
D27*
X009419Y005669D03*
X011072Y005669D03*
X011072Y007669D03*
X009419Y007669D03*
D28*
X012204Y008775D03*
X012204Y009878D03*
D29*
X016476Y001256D03*
X017381Y001256D03*
D30*
X023110Y003539D03*
X023110Y003854D03*
X023110Y004169D03*
X023740Y004169D03*
X023740Y003854D03*
X023740Y003539D03*
X023740Y004484D03*
X023110Y004484D03*
X028621Y003106D03*
X028621Y002791D03*
X029251Y002791D03*
X029251Y003106D03*
X029251Y002476D03*
X029251Y002161D03*
X028621Y002161D03*
X028621Y002476D03*
X028621Y008264D03*
X028621Y008579D03*
X028621Y008894D03*
X029251Y008894D03*
X029251Y008579D03*
X029251Y008264D03*
X029251Y009209D03*
X028621Y009209D03*
X023740Y009642D03*
X023110Y009642D03*
X023110Y009957D03*
X023110Y010271D03*
X023110Y010586D03*
X023740Y010586D03*
X023740Y010271D03*
X023740Y009957D03*
D31*
X020972Y010071D03*
X019972Y010071D03*
X019972Y009071D03*
X020972Y009071D03*
X020972Y008071D03*
X019972Y008071D03*
X019972Y007071D03*
X020972Y007071D03*
X020972Y006071D03*
X019972Y006071D03*
X019972Y005071D03*
X020972Y005071D03*
X020972Y004071D03*
X019972Y004071D03*
X019972Y003071D03*
X020972Y003071D03*
X031192Y003071D03*
X032192Y003071D03*
X032192Y004071D03*
X031192Y004071D03*
X031192Y005071D03*
X032192Y005071D03*
X032192Y006071D03*
X031192Y006071D03*
X031192Y007071D03*
X032192Y007071D03*
X032192Y008071D03*
X031192Y008071D03*
X031192Y009071D03*
X032192Y009071D03*
X032192Y010071D03*
X031192Y010071D03*
D32*
X010736Y010311D03*
X009736Y010311D03*
X009736Y009311D03*
X010736Y009311D03*
X010736Y011311D03*
X009736Y011311D03*
X009736Y003831D03*
X010736Y003831D03*
X010736Y002831D03*
X009736Y002831D03*
X009736Y001831D03*
X010736Y001831D03*
D33*
X003543Y005941D03*
X003543Y006256D03*
X003543Y006571D03*
X003543Y006886D03*
X003543Y007201D03*
D34*
X003543Y008342D03*
X001377Y008342D03*
X001377Y004799D03*
X003543Y004799D03*
D35*
X002558Y004957D02*
X003543Y005941D01*
X003543Y006571D02*
X003515Y006571D01*
X003543Y006571D02*
X005905Y006571D01*
X007149Y007815D01*
X007597Y007815D01*
X007597Y008071D02*
X007011Y008071D01*
X005806Y006866D01*
X003527Y006866D01*
X003543Y006882D01*
X003543Y006886D01*
X006059Y008582D02*
X006495Y008146D01*
X006692Y008539D02*
X006905Y008327D01*
X007597Y008327D01*
X007597Y008582D02*
X007141Y008582D01*
X006988Y008736D01*
X006988Y009228D01*
X006988Y010508D01*
X007121Y010374D01*
X007597Y010374D01*
X006988Y010508D02*
X006594Y010901D01*
X006102Y011098D02*
X006102Y011492D01*
X005856Y011738D01*
X005314Y011738D01*
X004743Y011728D02*
X004743Y011354D01*
X004956Y011142D01*
X005295Y011142D01*
X005295Y010886D02*
X005889Y010886D01*
X006102Y011098D01*
X007480Y011689D02*
X007680Y011489D01*
X007972Y011489D01*
X007480Y011689D02*
X007480Y012083D01*
X007677Y012279D01*
X012637Y012279D01*
X013129Y011787D01*
X013139Y011787D01*
X013129Y011787D02*
X013562Y011354D01*
X013582Y011354D01*
X014566Y011354D01*
X015354Y011344D02*
X015393Y011305D01*
X015393Y010924D01*
X015922Y010924D01*
X016164Y010924D01*
X016535Y011295D01*
X018700Y011295D01*
X019071Y010924D01*
X019094Y010924D01*
X019947Y010071D01*
X019972Y010071D01*
X019684Y009563D02*
X020480Y009563D01*
X020972Y009071D01*
X021712Y009071D01*
X022047Y008736D01*
X023090Y008736D01*
X023759Y008736D02*
X023797Y008773D01*
X025354Y008773D01*
X025354Y009273D02*
X024856Y009273D01*
X024173Y009957D01*
X023740Y009957D01*
X023740Y010271D02*
X024448Y010271D01*
X024946Y009773D01*
X025354Y009773D01*
X024212Y009327D02*
X023897Y009642D01*
X023740Y009642D01*
X023110Y009642D02*
X022952Y009642D01*
X022440Y009130D01*
X021653Y008539D02*
X020503Y008539D01*
X019972Y009071D01*
X019165Y008264D01*
X017241Y008264D01*
X017221Y008244D01*
X015452Y008244D01*
X015354Y008146D01*
X014999Y008579D02*
X014763Y008342D01*
X014999Y008579D02*
X017241Y008579D01*
X018700Y008579D01*
X019684Y009563D01*
X019094Y009523D02*
X019094Y009720D01*
X018110Y010705D01*
X016928Y010705D01*
X016653Y010429D01*
X016653Y010426D01*
X016338Y010426D02*
X016338Y010705D01*
X016633Y011000D01*
X018405Y011000D01*
X018503Y010901D01*
X019094Y010924D02*
X021825Y010924D01*
X022196Y011295D01*
X023080Y011295D01*
X023818Y012033D01*
X026377Y012033D01*
X028592Y012033D01*
X029133Y011492D01*
X029133Y010071D01*
X028832Y010071D01*
X028740Y010163D01*
X028149Y010508D02*
X028149Y009523D01*
X028464Y009209D01*
X028621Y009209D01*
X028385Y008894D02*
X028005Y009273D01*
X027401Y009273D01*
X027401Y008773D02*
X027915Y008773D01*
X028110Y008579D01*
X028621Y008579D01*
X028621Y008894D02*
X028385Y008894D01*
X029251Y008894D02*
X029684Y008894D01*
X030314Y009523D01*
X031645Y009523D01*
X032192Y010071D01*
X031192Y010071D02*
X030271Y010071D01*
X029409Y009209D01*
X029251Y009209D01*
X029960Y008579D02*
X030452Y009071D01*
X031192Y009071D01*
X031661Y008539D02*
X032192Y009071D01*
X031661Y008539D02*
X030511Y008539D01*
X030236Y008264D01*
X029251Y008264D01*
X029251Y008579D02*
X029960Y008579D01*
X028621Y008264D02*
X028131Y007773D01*
X027401Y007773D01*
X027401Y008273D02*
X026840Y008273D01*
X026377Y008736D01*
X026377Y005783D01*
X026377Y005586D01*
X026377Y002634D01*
X026840Y002171D01*
X026771Y002102D01*
X026771Y001453D01*
X026377Y001059D01*
X023759Y001059D01*
X023090Y001059D02*
X020865Y001059D01*
X019291Y002634D01*
X018377Y002437D02*
X016535Y002437D01*
X016082Y002890D01*
X016082Y003756D01*
X015826Y004012D01*
X015551Y004012D01*
X015157Y003716D02*
X014999Y003874D01*
X014999Y004110D01*
X014778Y004332D01*
X014581Y004332D01*
X014566Y004346D01*
X013582Y004346D01*
X013326Y004346D01*
X013188Y004209D01*
X013188Y003421D01*
X013385Y003224D01*
X013582Y003224D01*
X013779Y003027D01*
X013779Y002378D01*
X013580Y002179D01*
X013145Y002179D01*
X013808Y001679D02*
X014035Y001905D01*
X014035Y003677D01*
X014566Y003677D01*
X014625Y003618D01*
X014684Y003618D01*
X015157Y003146D01*
X014895Y002679D02*
X014448Y003126D01*
X014895Y002679D02*
X015192Y002679D01*
X015238Y002634D01*
X015551Y002634D01*
X016131Y002053D01*
X016840Y002053D01*
X016850Y002043D01*
X017381Y001649D02*
X017519Y001787D01*
X017519Y002043D01*
X018582Y002043D01*
X018377Y002437D02*
X019972Y004031D01*
X019972Y004071D01*
X018897Y003618D02*
X018503Y003618D01*
X018503Y004799D01*
X018051Y005252D01*
X017519Y005252D01*
X017519Y004356D01*
X017470Y004405D01*
X016594Y004405D01*
X016535Y004346D01*
X016535Y005252D01*
X016023Y005252D01*
X016023Y006295D01*
X015708Y006610D01*
X015708Y007046D01*
X015393Y007046D02*
X015393Y006334D01*
X015551Y006177D01*
X015551Y005931D01*
X014566Y005931D02*
X014566Y006289D01*
X014763Y006485D01*
X014763Y007046D01*
X014763Y007358D01*
X014369Y007752D01*
X014369Y008539D01*
X015078Y009248D01*
X015078Y009996D01*
X015157Y009917D01*
X015649Y009917D01*
X015708Y009976D01*
X015708Y010426D01*
X015393Y010426D02*
X015393Y010924D01*
X015078Y010783D02*
X014960Y010901D01*
X014960Y012023D01*
X015344Y012023D01*
X015354Y012033D01*
X015364Y012023D01*
X015944Y012023D01*
X016535Y011689D02*
X017716Y011689D01*
X016535Y011689D02*
X016200Y011354D01*
X015944Y011354D01*
X015922Y010924D02*
X016023Y010823D01*
X016023Y010426D01*
X016023Y009799D01*
X015551Y009327D01*
X014645Y009622D02*
X014232Y009209D01*
X013861Y009209D01*
X013031Y008894D02*
X012991Y008933D01*
X013031Y008894D02*
X013861Y008894D01*
X013861Y008579D02*
X013425Y008579D01*
X013188Y008342D01*
X012795Y008342D01*
X012598Y008146D01*
X012991Y007949D02*
X012598Y007555D01*
X013188Y007358D02*
X013464Y007634D01*
X013861Y007634D01*
X013861Y007949D02*
X012991Y007949D01*
X014763Y007358D02*
X014763Y007046D01*
X015058Y007026D02*
X015078Y007046D01*
X015078Y007476D01*
X015354Y007752D01*
X015747Y007752D01*
X017241Y007634D02*
X017440Y007634D01*
X018110Y006964D01*
X018700Y006964D02*
X017716Y007949D01*
X017241Y007949D01*
X018405Y007831D02*
X019732Y007831D01*
X019972Y008071D01*
X021653Y008539D02*
X022243Y007949D01*
X023090Y007949D01*
X022968Y008071D01*
X023759Y007949D02*
X024084Y008273D01*
X025354Y008273D01*
X026377Y008736D02*
X026377Y012033D01*
X025885Y011640D02*
X026082Y011443D01*
X026082Y011000D01*
X025856Y010773D01*
X025354Y010773D01*
X024781Y011273D02*
X024094Y010586D01*
X023740Y010586D01*
X023110Y010586D02*
X022755Y010586D01*
X022440Y010901D01*
X023769Y011295D02*
X024114Y011640D01*
X025885Y011640D01*
X025354Y011273D02*
X024781Y011273D01*
X027401Y011273D02*
X028318Y011273D01*
X028346Y011246D01*
X028740Y010852D01*
X028149Y010508D02*
X027883Y010773D01*
X027401Y010773D01*
X023110Y010271D02*
X022480Y010271D01*
X022440Y010311D01*
X022677Y009957D02*
X022440Y009720D01*
X022677Y009957D02*
X023110Y009957D01*
X018306Y009327D02*
X018110Y009523D01*
X017241Y009523D01*
X017241Y009209D02*
X017696Y009209D01*
X017913Y008992D01*
X017241Y008894D02*
X016771Y008894D01*
X016417Y009248D01*
X016417Y009327D01*
X016023Y009799D02*
X016023Y009799D01*
X015078Y009996D02*
X015078Y010426D01*
X015078Y010783D01*
X014763Y010705D02*
X014763Y010426D01*
X014763Y010705D02*
X014566Y010901D01*
X013188Y010901D01*
X012696Y010409D01*
X012696Y009671D01*
X012352Y009327D01*
X012007Y009327D01*
X011515Y008834D01*
X011515Y006112D01*
X011072Y005669D01*
X012204Y005102D02*
X010932Y003831D01*
X010736Y003831D01*
X010236Y003618D02*
X010236Y002331D01*
X009736Y001831D01*
X009054Y001846D02*
X009054Y002043D01*
X009054Y001846D02*
X008070Y000862D01*
X007037Y000862D01*
X006875Y001023D01*
X006503Y001023D01*
X006070Y000984D02*
X006031Y001023D01*
X005637Y001023D01*
X006070Y000984D02*
X006070Y001618D01*
X006151Y001699D01*
X006102Y001748D01*
X006102Y001846D01*
X005980Y001968D01*
X005637Y001968D01*
X005291Y001968D01*
X005019Y002240D01*
X004822Y002437D01*
X004724Y002437D01*
X004724Y002364D01*
X004814Y002273D01*
X004822Y002271D02*
X004822Y002437D01*
X004984Y002598D01*
X005637Y002598D01*
X006070Y002638D02*
X006070Y002960D01*
X005905Y003126D01*
X006503Y002888D02*
X006741Y003126D01*
X006503Y002888D02*
X006503Y002598D01*
X006503Y002283D02*
X006342Y002283D01*
X006299Y002240D01*
X005806Y002240D01*
X005763Y002283D01*
X005637Y002283D01*
X005019Y002240D02*
X004838Y002240D01*
X004395Y001584D02*
X004133Y001846D01*
X004133Y003027D01*
X003543Y003618D01*
X003543Y004055D01*
X003537Y004061D01*
X003297Y004061D01*
X003247Y004012D01*
X002558Y004012D01*
X002558Y004957D01*
X002558Y004012D02*
X001377Y004012D01*
X001180Y003815D01*
X006503Y002283D02*
X006503Y001968D01*
X007360Y002283D02*
X007389Y002254D01*
X007775Y001157D02*
X008661Y002043D01*
X008661Y002634D01*
X008858Y002831D01*
X009054Y002831D01*
X008188Y003323D02*
X008090Y003421D01*
X008188Y003323D02*
X009940Y003323D01*
X010236Y003618D01*
X010236Y004405D01*
X010747Y004917D01*
X009736Y003831D02*
X009212Y004354D01*
X009212Y004917D01*
X008287Y003799D02*
X008271Y003799D01*
X008090Y003618D01*
X012007Y004012D02*
X012007Y003027D01*
X012356Y002679D01*
X013145Y002679D01*
X012814Y003106D02*
X012598Y003323D01*
X012598Y003677D01*
X012007Y004012D02*
X012342Y004346D01*
X012598Y004346D01*
X012598Y005252D01*
X012204Y005102D02*
X012204Y008775D01*
X013139Y009710D01*
X013139Y010311D01*
X013779Y010508D02*
X013779Y009920D01*
X013861Y009838D01*
X012401Y009917D02*
X012362Y009878D01*
X012204Y009878D01*
X012204Y009917D01*
X012204Y010311D01*
X012204Y009917D02*
X012007Y009917D01*
X011220Y009827D02*
X011220Y008579D01*
X011082Y008441D01*
X010736Y008783D02*
X010393Y008441D01*
X010295Y008342D01*
X009842Y008342D01*
X010393Y008382D02*
X010393Y008441D01*
X010088Y008785D02*
X009547Y008785D01*
X009419Y008657D01*
X009419Y007669D01*
X008484Y008348D02*
X008250Y008582D01*
X007597Y008582D01*
X006692Y008539D02*
X006692Y010114D01*
X006432Y010374D01*
X005295Y010374D01*
X004501Y010374D01*
X004495Y010380D01*
X005295Y010118D02*
X005901Y010118D01*
X006299Y009720D01*
X006299Y008933D01*
X006988Y009228D02*
X007110Y009350D01*
X007597Y009350D01*
X007597Y009094D02*
X008442Y009094D01*
X008442Y009079D01*
X008484Y009037D01*
X008429Y009606D02*
X007597Y009606D01*
X007597Y009862D02*
X008114Y009862D01*
X008464Y010212D01*
X008464Y010754D02*
X008661Y010754D01*
X008808Y010901D01*
X008808Y011189D01*
X008810Y011191D01*
X008824Y011177D01*
X009635Y011177D01*
X009769Y011311D01*
X009736Y011311D01*
X010736Y011311D02*
X010842Y011311D01*
X011220Y011689D01*
X012004Y011689D01*
X012007Y011692D01*
X012007Y011292D02*
X012007Y010901D01*
X011220Y009827D02*
X010736Y010311D01*
X010236Y009811D01*
X010236Y008933D01*
X010088Y008785D01*
X010736Y008783D02*
X010736Y009311D01*
X012204Y008775D02*
X012243Y008775D01*
X008464Y009642D02*
X008429Y009606D01*
X006059Y008582D02*
X005295Y008582D01*
X004499Y008447D02*
X004499Y008933D01*
X001574Y008933D01*
X001180Y009327D01*
X004084Y009966D02*
X004360Y009691D01*
X004495Y009691D01*
X004499Y009687D01*
X004499Y008933D01*
X004580Y009606D02*
X004495Y009691D01*
X004580Y009606D02*
X005295Y009606D01*
X004084Y009966D02*
X004084Y010901D01*
X007972Y011889D02*
X008070Y011889D01*
X008070Y011886D01*
X008810Y011886D01*
X008810Y011880D01*
X014566Y012023D02*
X014960Y012023D01*
X017834Y009838D02*
X018110Y010114D01*
X017834Y009838D02*
X017241Y009838D01*
X017231Y008588D02*
X017241Y008579D01*
X017437Y007046D02*
X016653Y007046D01*
X016338Y007046D02*
X016338Y006768D01*
X016535Y006571D01*
X017519Y006571D01*
X017519Y006571D01*
X018503Y005586D01*
X020275Y005586D01*
X020759Y006071D01*
X020972Y006071D01*
X019972Y006071D02*
X018413Y006071D01*
X017437Y007046D01*
X016427Y006325D02*
X016023Y006728D01*
X016023Y007046D01*
X016427Y006325D02*
X017322Y006325D01*
X017519Y006128D01*
X017519Y005921D01*
X017775Y005921D01*
X018897Y004799D01*
X019232Y004799D01*
X019972Y005071D02*
X020271Y005071D01*
X020787Y005586D01*
X021259Y005586D01*
X021850Y006177D01*
X022047Y006374D01*
X022978Y006374D01*
X023568Y005783D01*
X026377Y005783D01*
X026377Y005586D02*
X028740Y005586D01*
X029133Y005193D01*
X029133Y004209D01*
X028986Y004061D01*
X028740Y004061D01*
X028149Y004405D02*
X028149Y003421D01*
X028464Y003106D01*
X028621Y003106D01*
X028621Y002791D02*
X028385Y002791D01*
X028005Y003171D01*
X027401Y003171D01*
X027401Y002671D02*
X027915Y002671D01*
X028110Y002476D01*
X028621Y002476D01*
X028621Y002161D02*
X028131Y001671D01*
X027401Y001671D01*
X026377Y001846D02*
X026202Y001671D01*
X025354Y001671D01*
X025354Y002171D02*
X024084Y002171D01*
X023759Y001846D01*
X023090Y001846D02*
X022440Y001846D01*
X022440Y002437D02*
X022590Y002586D01*
X023058Y002586D01*
X023728Y002586D02*
X023812Y002671D01*
X025354Y002671D01*
X025354Y003171D02*
X024856Y003171D01*
X024173Y003854D01*
X023740Y003854D01*
X023740Y003539D02*
X023897Y003539D01*
X024212Y003224D01*
X023110Y003539D02*
X022755Y003539D01*
X022440Y003224D01*
X022440Y003815D02*
X022480Y003854D01*
X023110Y003854D01*
X023110Y004169D02*
X022677Y004169D01*
X022440Y004405D01*
X022952Y004484D02*
X022440Y004996D01*
X023049Y005264D02*
X023568Y005783D01*
X024011Y005537D02*
X025934Y005537D01*
X026131Y005340D01*
X026131Y004897D01*
X025905Y004671D01*
X025354Y004671D01*
X024781Y005171D02*
X024094Y004484D01*
X023740Y004484D01*
X023110Y004484D02*
X022952Y004484D01*
X023740Y004169D02*
X024251Y004169D01*
X024749Y003671D01*
X025354Y003671D01*
X027401Y004671D02*
X027883Y004671D01*
X028149Y004405D01*
X028740Y004750D02*
X028318Y005171D01*
X027401Y005171D01*
X025354Y005171D02*
X024781Y005171D01*
X024011Y005537D02*
X023738Y005264D01*
X018503Y003618D02*
X018503Y003421D01*
X018306Y003224D01*
X017204Y003224D01*
X016840Y002860D01*
X016840Y002831D01*
X017529Y002831D02*
X018110Y002831D01*
X018110Y003618D02*
X017568Y003618D01*
X017519Y003667D01*
X017519Y003716D01*
X017027Y004012D02*
X016707Y003692D01*
X016520Y003692D01*
X015880Y004332D01*
X015551Y004332D01*
X014517Y005242D02*
X014094Y004819D01*
X013543Y005252D02*
X013139Y004848D01*
X013543Y005252D02*
X013582Y005252D01*
X014517Y005242D02*
X014566Y005242D01*
X015551Y005242D01*
X015560Y005252D01*
X016023Y005252D01*
X016889Y005921D02*
X017027Y005783D01*
X017027Y004789D01*
X017519Y004356D02*
X017529Y004346D01*
X016535Y003677D02*
X016520Y003692D01*
X015551Y003692D02*
X015526Y003716D01*
X015157Y003716D01*
X014035Y003677D02*
X013582Y003677D01*
X015192Y002679D02*
X015196Y002683D01*
X015192Y002179D02*
X015612Y002179D01*
X016141Y001649D01*
X017381Y001649D01*
X017716Y001256D02*
X018110Y001649D01*
X017716Y001256D02*
X017381Y001256D01*
X016476Y001256D02*
X016399Y001179D01*
X015192Y001179D01*
X015192Y001679D01*
X013808Y001679D02*
X013145Y001679D01*
X013145Y001179D02*
X012324Y001179D01*
X012204Y001059D01*
X007775Y001157D02*
X007135Y001157D01*
X006954Y001338D01*
X006503Y001338D01*
X006196Y001653D02*
X006151Y001699D01*
X005637Y001653D02*
X005637Y001338D01*
X005637Y001653D02*
X004873Y001653D01*
X004873Y001644D01*
X004814Y001584D01*
X004395Y001584D01*
X007283Y001653D02*
X007301Y001653D01*
X007389Y001565D01*
X007403Y001551D01*
X012598Y005921D02*
X013582Y005921D01*
X013592Y005931D01*
X014566Y005931D01*
X016535Y005921D02*
X016889Y005921D01*
X014448Y007046D02*
X014367Y006964D01*
X012598Y006964D01*
X008271Y006173D02*
X008271Y006110D01*
X024409Y007752D02*
X024430Y007773D01*
X025354Y007773D01*
X029803Y003106D02*
X030767Y004071D01*
X031192Y004071D01*
X031740Y003618D02*
X032192Y004071D01*
X031740Y003618D02*
X030905Y003618D01*
X030078Y002791D01*
X029251Y002791D01*
X029251Y003106D02*
X029803Y003106D01*
X030598Y002476D02*
X031192Y003071D01*
X031283Y002161D02*
X032192Y003071D01*
X030598Y002476D02*
X029251Y002476D01*
X029251Y002161D02*
X031283Y002161D01*
X027401Y002171D02*
X026840Y002171D01*
D36*
X008090Y002457D03*
X006200Y004012D03*
X006200Y005882D03*
X005511Y005882D03*
X005610Y007309D03*
X005019Y007309D03*
X008464Y009642D03*
X008464Y010212D03*
X006594Y010901D03*
D37*
X007775Y005586D02*
X008271Y005586D01*
X007775Y005586D02*
X007125Y004937D01*
X007125Y004937D01*
X004685Y004937D01*
D38*
X004685Y005847D02*
X004720Y005882D01*
X006200Y005882D01*
X006460Y006142D01*
X007106Y006142D01*
X008267Y006177D02*
X008271Y006173D01*
X008267Y006177D02*
X008267Y006275D01*
X008271Y006110D02*
X008271Y005586D01*
X008287Y005571D01*
X008287Y004980D01*
X009212Y004917D02*
X009419Y005124D01*
X009419Y005669D01*
X009336Y005586D01*
X008271Y005586D01*
X009501Y005586D02*
X010039Y005586D01*
X010393Y005941D01*
X010393Y008441D01*
X005610Y007309D02*
X005019Y007309D01*
X007125Y004937D02*
X007086Y004898D01*
X007086Y004012D01*
X007360Y003738D01*
X007360Y002283D01*
X008090Y002457D02*
X008090Y003421D01*
X008090Y003618D01*
X006200Y004012D02*
X006199Y004018D01*
X006196Y004023D01*
X006191Y004026D01*
X006185Y004027D01*
X004685Y004027D01*
X004814Y003897D01*
X004814Y002273D01*
X009736Y001831D02*
X010507Y001059D01*
X012204Y001059D01*
X020972Y003071D02*
X021499Y003071D01*
X021850Y003421D01*
X021850Y005390D01*
X022047Y005586D01*
X022440Y005586D01*
X007350Y004712D02*
X007234Y004596D01*
X007234Y004553D01*
X007350Y004712D02*
X007125Y004937D01*
D39*
X009419Y005669D02*
X009501Y005586D01*
X011072Y005527D02*
X011072Y005669D01*
X008956Y006571D02*
X008956Y007555D01*
X009070Y007669D01*
X009419Y007669D01*
X008956Y007555D02*
X008956Y008834D01*
X008759Y009031D01*
X008490Y009031D01*
X008484Y009037D01*
X008484Y008348D02*
X008484Y007968D01*
X008267Y007752D01*
X008267Y006275D01*
X005019Y007309D02*
X004576Y007309D01*
X004527Y007358D01*
X004369Y007201D01*
X003543Y007201D01*
X004527Y007358D02*
X004527Y007730D01*
X004499Y007758D01*
X003582Y005941D02*
X004379Y005144D01*
X004379Y004996D01*
X004478Y004897D01*
X004645Y004897D01*
X004685Y004937D01*
X003582Y005941D02*
X003543Y005941D01*
X011072Y007669D02*
X011082Y007679D01*
X011082Y008441D01*
X008090Y002457D02*
X008070Y002437D01*
X008070Y002043D01*
X007592Y001565D01*
X007389Y001565D01*
X007310Y001653D02*
X007283Y001653D01*
X006503Y001653D01*
X006503Y002283D02*
X007360Y002283D01*
D40*
X009054Y002043D03*
X009054Y002831D03*
X006741Y003126D03*
X005905Y003126D03*
X005511Y004012D03*
X001180Y003815D03*
X008956Y006571D03*
X012598Y006964D03*
X013188Y007358D03*
X012598Y007555D03*
X012598Y008146D03*
X012991Y008933D03*
X014645Y009622D03*
X015551Y009327D03*
X014881Y009031D03*
X014763Y008342D03*
X015354Y008146D03*
X015747Y007752D03*
X018110Y006964D03*
X018700Y006964D03*
X018405Y007831D03*
X017913Y008992D03*
X018306Y009327D03*
X019094Y009523D03*
X018110Y010114D03*
X018503Y010901D03*
X017716Y011689D03*
X013779Y010508D03*
X013139Y010311D03*
X012204Y010311D03*
X012007Y010901D03*
X013582Y011354D03*
X016417Y009327D03*
X022440Y009130D03*
X022440Y009720D03*
X022440Y010311D03*
X022440Y010901D03*
X024212Y009327D03*
X024409Y007752D03*
X022440Y005586D03*
X022440Y004996D03*
X022440Y004405D03*
X022440Y003815D03*
X022440Y003224D03*
X024212Y003224D03*
X022440Y002437D03*
X022440Y001846D03*
X019291Y002634D03*
X018110Y002831D03*
X018110Y003618D03*
X018897Y003618D03*
X017027Y004012D03*
X017027Y004789D03*
X018011Y004720D03*
X019232Y004799D03*
X015157Y003146D03*
X014448Y003126D03*
X012814Y003106D03*
X014094Y004819D03*
X013139Y004848D03*
X014763Y006485D03*
X009842Y008342D03*
X006495Y008146D03*
X006299Y008933D03*
X008464Y010754D03*
X005314Y011738D03*
X004743Y011728D03*
X004084Y010901D03*
X001180Y009327D03*
X018582Y002043D03*
X018110Y001649D03*
X012204Y001059D03*
X026377Y001846D03*
X028318Y005171D03*
X028346Y011246D03*
D41*
X028744Y011239D02*
X028744Y011411D01*
X028511Y011644D01*
X028181Y011644D01*
X028070Y011533D01*
X027947Y011533D01*
X027909Y011572D01*
X026893Y011572D01*
X026788Y011466D01*
X026788Y011081D01*
X026845Y011023D01*
X026788Y010966D01*
X026788Y010581D01*
X026845Y010523D01*
X026788Y010466D01*
X026788Y010081D01*
X026845Y010023D01*
X026788Y009966D01*
X026788Y009581D01*
X026845Y009523D01*
X026788Y009466D01*
X026788Y009081D01*
X026845Y009023D01*
X026788Y008966D01*
X026788Y008581D01*
X026859Y008509D01*
X026840Y008490D01*
X026819Y008453D01*
X026808Y008413D01*
X026808Y008274D01*
X027401Y008274D01*
X027994Y008274D01*
X027994Y008345D01*
X028058Y008319D01*
X028264Y008319D01*
X028264Y008274D01*
X028024Y008033D01*
X027947Y008033D01*
X027942Y008038D01*
X027962Y008057D01*
X027983Y008094D01*
X027994Y008134D01*
X027994Y008273D01*
X027401Y008273D01*
X027401Y008274D01*
X027401Y008273D01*
X026808Y008273D01*
X026808Y008134D01*
X026819Y008094D01*
X026840Y008057D01*
X026859Y008038D01*
X026788Y007966D01*
X026788Y007581D01*
X026893Y007475D01*
X027909Y007475D01*
X027947Y007513D01*
X028183Y007513D01*
X028279Y007553D01*
X028352Y007626D01*
X028711Y007985D01*
X028873Y007985D01*
X028936Y008048D01*
X029000Y007985D01*
X029503Y007985D01*
X029521Y008004D01*
X030184Y008004D01*
X030287Y008004D01*
X030383Y008043D01*
X030619Y008279D01*
X030722Y008279D01*
X030712Y008269D01*
X030712Y007872D01*
X030993Y007591D01*
X031391Y007591D01*
X031672Y007872D01*
X031672Y008269D01*
X031662Y008279D01*
X031712Y008279D01*
X031729Y008286D01*
X031712Y008269D01*
X031712Y007872D01*
X031993Y007591D01*
X032391Y007591D01*
X032672Y007872D01*
X032672Y008269D01*
X032391Y008551D01*
X032040Y008551D01*
X032080Y008591D01*
X032391Y008591D01*
X032672Y008872D01*
X032672Y009269D01*
X032391Y009551D01*
X032040Y009551D01*
X032080Y009591D01*
X032391Y009591D01*
X032672Y009872D01*
X032672Y010269D01*
X032391Y010551D01*
X031993Y010551D01*
X031712Y010269D01*
X031712Y009958D01*
X031672Y009918D01*
X031672Y010269D01*
X031391Y010551D01*
X030993Y010551D01*
X030773Y010331D01*
X030219Y010331D01*
X030124Y010291D01*
X030051Y010218D01*
X029320Y009487D01*
X029000Y009487D01*
X028936Y009424D01*
X028873Y009487D01*
X028553Y009487D01*
X028409Y009631D01*
X028409Y009848D01*
X028429Y009829D01*
X028465Y009807D01*
X028506Y009797D01*
X028696Y009797D01*
X028696Y010120D01*
X028783Y010120D01*
X028783Y010207D01*
X029112Y010207D01*
X029112Y010391D01*
X029101Y010432D01*
X029080Y010468D01*
X029055Y010494D01*
X029132Y010571D01*
X029132Y011133D01*
X029027Y011239D01*
X028744Y011239D01*
X028744Y011334D02*
X033481Y011334D01*
X033481Y011216D02*
X029050Y011216D01*
X029132Y011097D02*
X033481Y011097D01*
X033481Y010978D02*
X029132Y010978D01*
X029132Y010860D02*
X033481Y010860D01*
X033481Y010741D02*
X029132Y010741D01*
X029132Y010623D02*
X033481Y010623D01*
X033481Y010504D02*
X032437Y010504D01*
X032556Y010386D02*
X033481Y010386D01*
X033481Y010267D02*
X032672Y010267D01*
X032672Y010149D02*
X033481Y010149D01*
X033481Y010030D02*
X032672Y010030D01*
X032672Y009912D02*
X033481Y009912D01*
X033481Y009793D02*
X032593Y009793D01*
X032475Y009674D02*
X033481Y009674D01*
X033481Y009556D02*
X032045Y009556D01*
X032504Y009437D02*
X033481Y009437D01*
X033481Y009319D02*
X032623Y009319D01*
X032672Y009200D02*
X033481Y009200D01*
X033481Y009082D02*
X032672Y009082D01*
X032672Y008963D02*
X033481Y008963D01*
X033481Y008845D02*
X032645Y008845D01*
X032526Y008726D02*
X033481Y008726D01*
X033481Y008608D02*
X032408Y008608D01*
X032453Y008489D02*
X033481Y008489D01*
X033481Y008371D02*
X032571Y008371D01*
X032672Y008252D02*
X033481Y008252D01*
X033481Y008133D02*
X032672Y008133D01*
X032672Y008015D02*
X033481Y008015D01*
X033481Y007896D02*
X032672Y007896D01*
X032578Y007778D02*
X033481Y007778D01*
X033481Y007659D02*
X032460Y007659D01*
X032391Y007551D02*
X031993Y007551D01*
X031712Y007269D01*
X031712Y006872D01*
X031993Y006591D01*
X032391Y006591D01*
X032672Y006872D01*
X032672Y007269D01*
X032391Y007551D01*
X032401Y007541D02*
X033481Y007541D01*
X033481Y007422D02*
X032520Y007422D01*
X032638Y007304D02*
X033481Y007304D01*
X033481Y007185D02*
X032672Y007185D01*
X032672Y007067D02*
X033481Y007067D01*
X033481Y006948D02*
X032672Y006948D01*
X032630Y006829D02*
X033481Y006829D01*
X033481Y006711D02*
X032511Y006711D01*
X032393Y006592D02*
X033481Y006592D01*
X033481Y006474D02*
X032468Y006474D01*
X032391Y006551D02*
X031993Y006551D01*
X031712Y006269D01*
X031712Y005872D01*
X031993Y005591D01*
X032391Y005591D01*
X032672Y005872D01*
X032672Y006269D01*
X032391Y006551D01*
X031992Y006592D02*
X031393Y006592D01*
X031391Y006591D02*
X031672Y006872D01*
X031672Y007269D01*
X031391Y007551D01*
X030993Y007551D01*
X030712Y007269D01*
X030712Y006872D01*
X030993Y006591D01*
X031391Y006591D01*
X031391Y006551D02*
X030993Y006551D01*
X030712Y006269D01*
X030712Y005872D01*
X030993Y005591D01*
X031391Y005591D01*
X031672Y005872D01*
X031672Y006269D01*
X031391Y006551D01*
X031468Y006474D02*
X031917Y006474D01*
X031798Y006355D02*
X031586Y006355D01*
X031672Y006237D02*
X031712Y006237D01*
X031712Y006118D02*
X031672Y006118D01*
X031672Y006000D02*
X031712Y006000D01*
X031712Y005881D02*
X031672Y005881D01*
X031563Y005763D02*
X031822Y005763D01*
X031940Y005644D02*
X031444Y005644D01*
X031391Y005551D02*
X030993Y005551D01*
X030712Y005269D01*
X030712Y004872D01*
X030993Y004591D01*
X031391Y004591D01*
X031672Y004872D01*
X031672Y005269D01*
X031391Y005551D01*
X031416Y005525D02*
X031968Y005525D01*
X031993Y005551D02*
X031712Y005269D01*
X031712Y004872D01*
X031993Y004591D01*
X032391Y004591D01*
X032672Y004872D01*
X032672Y005269D01*
X032391Y005551D01*
X031993Y005551D01*
X031850Y005407D02*
X031535Y005407D01*
X031653Y005288D02*
X031731Y005288D01*
X031712Y005170D02*
X031672Y005170D01*
X031672Y005051D02*
X031712Y005051D01*
X031712Y004933D02*
X031672Y004933D01*
X031615Y004814D02*
X031770Y004814D01*
X031889Y004696D02*
X031496Y004696D01*
X031391Y004551D02*
X030993Y004551D01*
X030774Y004331D01*
X030715Y004331D01*
X030620Y004291D01*
X029695Y003366D01*
X029521Y003366D01*
X029503Y003385D01*
X029000Y003385D01*
X028936Y003321D01*
X028873Y003385D01*
X028553Y003385D01*
X028409Y003529D01*
X028409Y003746D01*
X028429Y003726D01*
X028465Y003705D01*
X028506Y003694D01*
X028696Y003694D01*
X028696Y004017D01*
X028783Y004017D01*
X028783Y003694D01*
X028973Y003694D01*
X029014Y003705D01*
X029050Y003726D01*
X029080Y003756D01*
X029101Y003792D01*
X029112Y003833D01*
X029112Y004017D01*
X028783Y004017D01*
X028783Y004104D01*
X029112Y004104D01*
X029112Y004289D01*
X029101Y004329D01*
X029080Y004366D01*
X029055Y004391D01*
X029132Y004469D01*
X029132Y005031D01*
X029027Y005136D01*
X028720Y005136D01*
X028716Y005141D01*
X028716Y005336D01*
X028483Y005569D01*
X028153Y005569D01*
X028015Y005431D01*
X027947Y005431D01*
X027909Y005469D01*
X026893Y005469D01*
X026788Y005364D01*
X026788Y004978D01*
X026845Y004921D01*
X026788Y004864D01*
X026788Y004478D01*
X026845Y004421D01*
X026788Y004364D01*
X026788Y003978D01*
X026845Y003921D01*
X026788Y003864D01*
X026788Y003478D01*
X026845Y003421D01*
X026788Y003364D01*
X026788Y002978D01*
X026845Y002921D01*
X026788Y002864D01*
X026788Y002478D01*
X026859Y002407D01*
X026840Y002387D01*
X026819Y002351D01*
X026808Y002310D01*
X026808Y002171D01*
X026808Y002032D01*
X026819Y001991D01*
X026840Y001955D01*
X026859Y001935D01*
X026788Y001864D01*
X026788Y001478D01*
X026893Y001373D01*
X027909Y001373D01*
X027947Y001411D01*
X028183Y001411D01*
X028279Y001451D01*
X028352Y001524D01*
X028711Y001883D01*
X028873Y001883D01*
X028936Y001946D01*
X029000Y001883D01*
X029503Y001883D01*
X029521Y001901D01*
X031231Y001901D01*
X031335Y001901D01*
X031430Y001941D01*
X032080Y002591D01*
X032391Y002591D01*
X032672Y002872D01*
X032672Y003269D01*
X032391Y003551D01*
X032040Y003551D01*
X032080Y003591D01*
X032391Y003591D01*
X032672Y003872D01*
X032672Y004269D01*
X032391Y004551D01*
X031993Y004551D01*
X031712Y004269D01*
X031712Y003958D01*
X031672Y003918D01*
X031672Y004269D01*
X031391Y004551D01*
X031483Y004459D02*
X031901Y004459D01*
X031783Y004340D02*
X031602Y004340D01*
X031672Y004221D02*
X031712Y004221D01*
X031712Y004103D02*
X031672Y004103D01*
X031672Y003984D02*
X031712Y003984D01*
X032429Y003629D02*
X033481Y003629D01*
X033481Y003747D02*
X032548Y003747D01*
X032666Y003866D02*
X033481Y003866D01*
X033481Y003984D02*
X032672Y003984D01*
X032672Y004103D02*
X033481Y004103D01*
X033481Y004221D02*
X032672Y004221D01*
X032602Y004340D02*
X033481Y004340D01*
X033481Y004459D02*
X032483Y004459D01*
X032496Y004696D02*
X033481Y004696D01*
X033481Y004814D02*
X032615Y004814D01*
X032672Y004933D02*
X033481Y004933D01*
X033481Y005051D02*
X032672Y005051D01*
X032672Y005170D02*
X033481Y005170D01*
X033481Y005288D02*
X032653Y005288D01*
X032535Y005407D02*
X033481Y005407D01*
X033481Y005525D02*
X032416Y005525D01*
X032444Y005644D02*
X033481Y005644D01*
X033481Y005763D02*
X032563Y005763D01*
X032672Y005881D02*
X033481Y005881D01*
X033481Y006000D02*
X032672Y006000D01*
X032672Y006118D02*
X033481Y006118D01*
X033481Y006237D02*
X032672Y006237D01*
X032586Y006355D02*
X033481Y006355D01*
X031873Y006711D02*
X031511Y006711D01*
X031630Y006829D02*
X031755Y006829D01*
X031712Y006948D02*
X031672Y006948D01*
X031672Y007067D02*
X031712Y007067D01*
X031712Y007185D02*
X031672Y007185D01*
X031638Y007304D02*
X031746Y007304D01*
X031865Y007422D02*
X031520Y007422D01*
X031401Y007541D02*
X031984Y007541D01*
X031925Y007659D02*
X031460Y007659D01*
X031578Y007778D02*
X031806Y007778D01*
X031712Y007896D02*
X031672Y007896D01*
X031672Y008015D02*
X031712Y008015D01*
X031712Y008133D02*
X031672Y008133D01*
X031672Y008252D02*
X031712Y008252D01*
X030712Y008252D02*
X030592Y008252D01*
X030473Y008133D02*
X030712Y008133D01*
X030712Y008015D02*
X030314Y008015D01*
X030712Y007896D02*
X028622Y007896D01*
X028503Y007778D02*
X030806Y007778D01*
X030925Y007659D02*
X028385Y007659D01*
X028249Y007541D02*
X030984Y007541D01*
X030865Y007422D02*
X024642Y007422D01*
X024574Y007354D02*
X024733Y007513D01*
X024808Y007513D01*
X024846Y007475D01*
X025861Y007475D01*
X025967Y007581D01*
X025967Y007966D01*
X025909Y008023D01*
X025967Y008081D01*
X025967Y008466D01*
X025909Y008523D01*
X025967Y008581D01*
X025967Y008966D01*
X025909Y009023D01*
X025967Y009081D01*
X025967Y009466D01*
X025909Y009523D01*
X025967Y009581D01*
X025967Y009966D01*
X025909Y010023D01*
X025967Y010081D01*
X025967Y010466D01*
X025916Y010517D01*
X026003Y010553D01*
X026302Y010853D01*
X026342Y010948D01*
X026342Y011052D01*
X026342Y011494D01*
X026302Y011590D01*
X026229Y011663D01*
X026032Y011860D01*
X025937Y011900D01*
X025833Y011900D01*
X024062Y011900D01*
X023966Y011860D01*
X023893Y011787D01*
X023794Y011688D01*
X023488Y011688D01*
X023410Y011610D01*
X023385Y011636D01*
X023349Y011657D01*
X023308Y011668D01*
X023123Y011668D01*
X023123Y011339D01*
X023037Y011339D01*
X023037Y011668D01*
X022852Y011668D01*
X022812Y011657D01*
X022775Y011636D01*
X022745Y011606D01*
X022724Y011569D01*
X022713Y011529D01*
X022713Y011338D01*
X023036Y011338D01*
X023036Y011252D01*
X022713Y011252D01*
X022713Y011191D01*
X022605Y011299D01*
X022275Y011299D01*
X022042Y011066D01*
X022042Y010736D01*
X022173Y010606D01*
X022042Y010476D01*
X022042Y010146D01*
X022173Y010016D01*
X022042Y009885D01*
X022042Y009555D01*
X022173Y009425D01*
X022042Y009295D01*
X022042Y009108D01*
X021932Y009218D01*
X021859Y009291D01*
X021764Y009331D01*
X021391Y009331D01*
X021171Y009551D01*
X020859Y009551D01*
X020819Y009591D01*
X021171Y009591D01*
X021452Y009872D01*
X021452Y010269D01*
X021171Y010551D01*
X020773Y010551D01*
X020492Y010269D01*
X020492Y009872D01*
X020548Y009816D01*
X020531Y009823D01*
X020428Y009823D01*
X020374Y009823D01*
X020432Y009880D01*
X020432Y010041D01*
X020002Y010041D01*
X020002Y010101D01*
X019942Y010101D01*
X019942Y010531D01*
X019781Y010531D01*
X019512Y010261D01*
X019512Y010101D01*
X019942Y010101D01*
X019942Y010041D01*
X019512Y010041D01*
X019512Y009880D01*
X019588Y009804D01*
X019537Y009783D01*
X019467Y009713D01*
X019315Y009865D01*
X019314Y009868D01*
X019241Y009941D01*
X018673Y010508D01*
X018901Y010736D01*
X018901Y011066D01*
X018668Y011299D01*
X018338Y011299D01*
X018299Y011260D01*
X016581Y011260D01*
X016486Y011220D01*
X016413Y011147D01*
X016118Y010852D01*
X016111Y010836D01*
X016023Y010836D01*
X016023Y010426D01*
X016023Y010016D01*
X016133Y010016D01*
X016153Y009996D01*
X016522Y009996D01*
X016811Y009996D01*
X016811Y009654D01*
X016811Y009496D01*
X016582Y009725D01*
X016252Y009725D01*
X016019Y009491D01*
X016019Y009162D01*
X016252Y008929D01*
X016368Y008929D01*
X016458Y008839D01*
X015251Y008839D01*
X015279Y008866D01*
X015279Y009081D01*
X015299Y009101D01*
X015338Y009196D01*
X015338Y009657D01*
X015597Y009657D01*
X015701Y009657D01*
X015796Y009697D01*
X015855Y009756D01*
X015928Y009829D01*
X015968Y009924D01*
X015968Y010016D01*
X016023Y010016D01*
X016023Y010426D01*
X016023Y010426D01*
X016023Y010426D01*
X016023Y010836D01*
X015913Y010836D01*
X015893Y010856D01*
X015523Y010856D01*
X015503Y010836D01*
X015393Y010836D01*
X015338Y010836D01*
X015299Y010931D01*
X015251Y010978D01*
X015310Y010978D01*
X015310Y011301D01*
X015397Y011301D01*
X015397Y010978D01*
X015587Y010978D01*
X015628Y010989D01*
X015637Y010994D01*
X015653Y010977D01*
X016235Y010977D01*
X016341Y011083D01*
X016341Y011131D01*
X016347Y011134D01*
X016642Y011429D01*
X017413Y011429D01*
X017551Y011291D01*
X017881Y011291D01*
X018114Y011524D01*
X018114Y011854D01*
X017881Y012087D01*
X017551Y012087D01*
X017413Y011949D01*
X016483Y011949D01*
X016387Y011909D01*
X016341Y011862D01*
X016341Y012295D01*
X016339Y012296D01*
X033481Y012296D01*
X033481Y000845D01*
X024116Y000845D01*
X024116Y001020D01*
X023798Y001020D01*
X023798Y001097D01*
X024116Y001097D01*
X024116Y001296D01*
X024105Y001337D01*
X024084Y001374D01*
X024054Y001403D01*
X024018Y001424D01*
X023977Y001435D01*
X023798Y001435D01*
X023798Y001098D01*
X023721Y001098D01*
X023721Y001435D01*
X023541Y001435D01*
X023501Y001424D01*
X023464Y001403D01*
X023439Y001378D01*
X023364Y001453D01*
X023425Y001513D01*
X023488Y001450D01*
X024031Y001450D01*
X024136Y001555D01*
X024136Y001855D01*
X024192Y001911D01*
X024788Y001911D01*
X024741Y001864D01*
X024741Y001478D01*
X024846Y001373D01*
X025861Y001373D01*
X025899Y001411D01*
X026254Y001411D01*
X026343Y001448D01*
X026542Y001448D01*
X026775Y001681D01*
X026775Y002011D01*
X026542Y002244D01*
X026212Y002244D01*
X025979Y002011D01*
X025979Y001931D01*
X025919Y001931D01*
X025967Y001978D01*
X025967Y002364D01*
X025909Y002421D01*
X025967Y002478D01*
X025967Y002864D01*
X025909Y002921D01*
X025967Y002978D01*
X025967Y003364D01*
X025909Y003421D01*
X025967Y003478D01*
X025967Y003864D01*
X025909Y003921D01*
X025967Y003978D01*
X025967Y004364D01*
X025919Y004411D01*
X025957Y004411D01*
X026052Y004451D01*
X026125Y004524D01*
X026352Y004750D01*
X026391Y004846D01*
X026391Y004949D01*
X026391Y005392D01*
X026352Y005488D01*
X026279Y005561D01*
X026082Y005758D01*
X025986Y005797D01*
X025883Y005797D01*
X023959Y005797D01*
X023864Y005758D01*
X023791Y005684D01*
X023762Y005656D01*
X023456Y005656D01*
X023379Y005579D01*
X023354Y005604D01*
X023317Y005625D01*
X023276Y005636D01*
X023092Y005636D01*
X023092Y005307D01*
X023005Y005307D01*
X023005Y005636D01*
X022838Y005636D01*
X022838Y005751D01*
X022605Y005985D01*
X022275Y005985D01*
X022257Y005966D01*
X021971Y005966D01*
X021831Y005909D01*
X021724Y005802D01*
X021528Y005605D01*
X021470Y005465D01*
X021470Y005314D01*
X021470Y003578D01*
X021342Y003451D01*
X021271Y003451D01*
X021171Y003551D01*
X020773Y003551D01*
X020492Y003269D01*
X020492Y002872D01*
X020773Y002591D01*
X021171Y002591D01*
X021271Y002691D01*
X021575Y002691D01*
X021715Y002749D01*
X021821Y002855D01*
X022042Y003076D01*
X022042Y003059D01*
X022271Y002831D01*
X022042Y002602D01*
X022042Y002272D01*
X022173Y002142D01*
X022042Y002011D01*
X022042Y001681D01*
X022275Y001448D01*
X022605Y001448D01*
X022713Y001556D01*
X022713Y001555D01*
X022816Y001453D01*
X022713Y001350D01*
X022713Y001319D01*
X020973Y001319D01*
X019689Y002603D01*
X019689Y002675D01*
X019773Y002591D01*
X020171Y002591D01*
X020452Y002872D01*
X020452Y003269D01*
X020171Y003551D01*
X019859Y003551D01*
X019899Y003591D01*
X020171Y003591D01*
X020452Y003872D01*
X020452Y004269D01*
X020171Y004551D01*
X019773Y004551D01*
X019492Y004269D01*
X019492Y003919D01*
X019295Y003722D01*
X019295Y003783D01*
X019062Y004016D01*
X018763Y004016D01*
X018763Y004573D01*
X018845Y004539D01*
X018929Y004539D01*
X019067Y004401D01*
X019397Y004401D01*
X019630Y004634D01*
X019630Y004762D01*
X019781Y004611D01*
X019942Y004611D01*
X019942Y005040D01*
X020002Y005040D01*
X020002Y004611D01*
X020162Y004611D01*
X020432Y004880D01*
X020432Y005041D01*
X020002Y005041D01*
X020002Y005101D01*
X020432Y005101D01*
X020432Y005261D01*
X020355Y005338D01*
X020422Y005366D01*
X020495Y005439D01*
X020710Y005654D01*
X020773Y005591D01*
X021171Y005591D01*
X021452Y005872D01*
X021452Y006269D01*
X021171Y006551D01*
X020773Y006551D01*
X020492Y006269D01*
X020492Y006171D01*
X020452Y006131D01*
X020452Y006269D01*
X020171Y006551D01*
X019773Y006551D01*
X019553Y006331D01*
X018520Y006331D01*
X018280Y006571D01*
X018405Y006697D01*
X018535Y006566D01*
X018865Y006566D01*
X019098Y006799D01*
X019098Y007129D01*
X018865Y007362D01*
X018670Y007362D01*
X018585Y007447D01*
X018708Y007571D01*
X019680Y007571D01*
X019783Y007571D01*
X019832Y007591D01*
X020171Y007591D01*
X020452Y007872D01*
X020452Y008269D01*
X020435Y008286D01*
X020452Y008279D01*
X020502Y008279D01*
X020492Y008269D01*
X020492Y007872D01*
X020773Y007591D01*
X021171Y007591D01*
X021452Y007872D01*
X021452Y008269D01*
X021442Y008279D01*
X021545Y008279D01*
X022096Y007728D01*
X022192Y007689D01*
X022295Y007689D01*
X022713Y007689D01*
X022713Y007658D01*
X022819Y007552D01*
X023361Y007552D01*
X023425Y007615D01*
X023488Y007552D01*
X024031Y007552D01*
X024038Y007560D01*
X024244Y007354D01*
X024574Y007354D01*
X024175Y007422D02*
X021299Y007422D01*
X021418Y007304D02*
X028299Y007304D01*
X028389Y007341D02*
X028106Y007224D01*
X027889Y007007D01*
X027772Y006724D01*
X027772Y006417D01*
X027889Y006134D01*
X028106Y005917D01*
X028389Y005800D01*
X028696Y005800D01*
X028979Y005917D01*
X029196Y006134D01*
X029313Y006417D01*
X029313Y006724D01*
X029196Y007007D01*
X028979Y007224D01*
X028696Y007341D01*
X028389Y007341D01*
X028067Y007185D02*
X021452Y007185D01*
X021452Y007269D02*
X021171Y007551D01*
X020773Y007551D01*
X020492Y007269D01*
X020492Y006872D01*
X020773Y006591D01*
X021171Y006591D01*
X021452Y006872D01*
X021452Y007269D01*
X021452Y007067D02*
X027949Y007067D01*
X027865Y006948D02*
X021452Y006948D01*
X021409Y006829D02*
X027816Y006829D01*
X027772Y006711D02*
X021291Y006711D01*
X021172Y006592D02*
X027772Y006592D01*
X027772Y006474D02*
X021247Y006474D01*
X021366Y006355D02*
X027798Y006355D01*
X027847Y006237D02*
X021452Y006237D01*
X021452Y006118D02*
X027905Y006118D01*
X028024Y006000D02*
X021452Y006000D01*
X021452Y005881D02*
X021804Y005881D01*
X021685Y005763D02*
X021342Y005763D01*
X021224Y005644D02*
X021567Y005644D01*
X021495Y005525D02*
X021196Y005525D01*
X021171Y005551D02*
X020773Y005551D01*
X020492Y005269D01*
X020492Y004872D01*
X020773Y004591D01*
X021171Y004591D01*
X021452Y004872D01*
X021452Y005269D01*
X021171Y005551D01*
X021314Y005407D02*
X021470Y005407D01*
X021470Y005288D02*
X021433Y005288D01*
X021452Y005170D02*
X021470Y005170D01*
X021470Y005051D02*
X021452Y005051D01*
X021452Y004933D02*
X021470Y004933D01*
X021470Y004814D02*
X021394Y004814D01*
X021470Y004696D02*
X021276Y004696D01*
X021171Y004551D02*
X020773Y004551D01*
X020492Y004269D01*
X020492Y003872D01*
X020773Y003591D01*
X021171Y003591D01*
X021452Y003872D01*
X021452Y004269D01*
X021171Y004551D01*
X021263Y004459D02*
X021470Y004459D01*
X021470Y004577D02*
X019573Y004577D01*
X019630Y004696D02*
X019696Y004696D01*
X019681Y004459D02*
X019454Y004459D01*
X019562Y004340D02*
X018763Y004340D01*
X018763Y004221D02*
X019492Y004221D01*
X019492Y004103D02*
X018763Y004103D01*
X019093Y003984D02*
X019492Y003984D01*
X019439Y003866D02*
X019212Y003866D01*
X019295Y003747D02*
X019320Y003747D01*
X020209Y003629D02*
X020735Y003629D01*
X020733Y003510D02*
X020211Y003510D01*
X020330Y003392D02*
X020614Y003392D01*
X020495Y003273D02*
X020448Y003273D01*
X020452Y003155D02*
X020492Y003155D01*
X020492Y003036D02*
X020452Y003036D01*
X020452Y002918D02*
X020492Y002918D01*
X020565Y002799D02*
X020379Y002799D01*
X020260Y002680D02*
X020683Y002680D01*
X021260Y002680D02*
X022121Y002680D01*
X022042Y002562D02*
X019730Y002562D01*
X019849Y002443D02*
X022042Y002443D01*
X022042Y002325D02*
X019967Y002325D01*
X020086Y002206D02*
X022108Y002206D01*
X022119Y002088D02*
X020204Y002088D01*
X020323Y001969D02*
X022042Y001969D01*
X022042Y001851D02*
X020441Y001851D01*
X020560Y001732D02*
X022042Y001732D01*
X022110Y001614D02*
X020678Y001614D01*
X020797Y001495D02*
X022229Y001495D01*
X022652Y001495D02*
X022773Y001495D01*
X022740Y001376D02*
X020916Y001376D01*
X023406Y001495D02*
X023443Y001495D01*
X023721Y001376D02*
X023798Y001376D01*
X023798Y001258D02*
X023721Y001258D01*
X023721Y001139D02*
X023798Y001139D01*
X023798Y001021D02*
X033481Y001021D01*
X033481Y001139D02*
X024116Y001139D01*
X024116Y001258D02*
X033481Y001258D01*
X033481Y001376D02*
X027912Y001376D01*
X028323Y001495D02*
X033481Y001495D01*
X033481Y001614D02*
X028441Y001614D01*
X028560Y001732D02*
X033481Y001732D01*
X033481Y001851D02*
X028678Y001851D01*
X028180Y002088D02*
X027994Y002088D01*
X027994Y002032D02*
X027994Y002171D01*
X027401Y002171D01*
X027401Y002171D01*
X027994Y002171D01*
X027994Y002243D01*
X028058Y002216D01*
X028161Y002216D01*
X028264Y002216D01*
X028264Y002172D01*
X028024Y001931D01*
X027947Y001931D01*
X027942Y001935D01*
X027962Y001955D01*
X027983Y001991D01*
X027994Y002032D01*
X027970Y001969D02*
X028062Y001969D01*
X027994Y002206D02*
X028264Y002206D01*
X027401Y002171D02*
X027401Y002171D01*
X026808Y002171D01*
X027401Y002171D01*
X026808Y002206D02*
X026580Y002206D01*
X026699Y002088D02*
X026808Y002088D01*
X026831Y001969D02*
X026775Y001969D01*
X026775Y001851D02*
X026788Y001851D01*
X026775Y001732D02*
X026788Y001732D01*
X026788Y001614D02*
X026708Y001614D01*
X026788Y001495D02*
X026589Y001495D01*
X026890Y001376D02*
X025865Y001376D01*
X024843Y001376D02*
X024081Y001376D01*
X024076Y001495D02*
X024741Y001495D01*
X024741Y001614D02*
X024136Y001614D01*
X024136Y001732D02*
X024741Y001732D01*
X024741Y001851D02*
X024136Y001851D01*
X025957Y001969D02*
X025979Y001969D01*
X025967Y002088D02*
X026056Y002088D01*
X025967Y002206D02*
X026174Y002206D01*
X025967Y002325D02*
X026812Y002325D01*
X026823Y002443D02*
X025932Y002443D01*
X025967Y002562D02*
X026788Y002562D01*
X026788Y002680D02*
X025967Y002680D01*
X025967Y002799D02*
X026788Y002799D01*
X026842Y002918D02*
X025913Y002918D01*
X025967Y003036D02*
X026788Y003036D01*
X026788Y003155D02*
X025967Y003155D01*
X025967Y003273D02*
X026788Y003273D01*
X026816Y003392D02*
X025939Y003392D01*
X025967Y003510D02*
X026788Y003510D01*
X026788Y003629D02*
X025967Y003629D01*
X025967Y003747D02*
X026788Y003747D01*
X026790Y003866D02*
X025965Y003866D01*
X025967Y003984D02*
X026788Y003984D01*
X026788Y004103D02*
X025967Y004103D01*
X025967Y004221D02*
X026788Y004221D01*
X026788Y004340D02*
X025967Y004340D01*
X026060Y004459D02*
X026808Y004459D01*
X026788Y004577D02*
X026179Y004577D01*
X026297Y004696D02*
X026788Y004696D01*
X026788Y004814D02*
X026378Y004814D01*
X026391Y004933D02*
X026834Y004933D01*
X026788Y005051D02*
X026391Y005051D01*
X026391Y005170D02*
X026788Y005170D01*
X026788Y005288D02*
X026391Y005288D01*
X026385Y005407D02*
X026831Y005407D01*
X026314Y005525D02*
X028110Y005525D01*
X028527Y005525D02*
X030968Y005525D01*
X030940Y005644D02*
X026195Y005644D01*
X026070Y005763D02*
X030822Y005763D01*
X030712Y005881D02*
X028891Y005881D01*
X029061Y006000D02*
X030712Y006000D01*
X030712Y006118D02*
X029180Y006118D01*
X029238Y006237D02*
X030712Y006237D01*
X030798Y006355D02*
X029287Y006355D01*
X029313Y006474D02*
X030917Y006474D01*
X030992Y006592D02*
X029313Y006592D01*
X029313Y006711D02*
X030873Y006711D01*
X030755Y006829D02*
X029270Y006829D01*
X029220Y006948D02*
X030712Y006948D01*
X030712Y007067D02*
X029136Y007067D01*
X029018Y007185D02*
X030712Y007185D01*
X030746Y007304D02*
X028787Y007304D01*
X028903Y008015D02*
X028970Y008015D01*
X028242Y008252D02*
X027994Y008252D01*
X027994Y008133D02*
X028124Y008133D01*
X026837Y008015D02*
X025918Y008015D01*
X025967Y008133D02*
X026808Y008133D01*
X026808Y008252D02*
X025967Y008252D01*
X025967Y008371D02*
X026808Y008371D01*
X026839Y008489D02*
X025944Y008489D01*
X025967Y008608D02*
X026788Y008608D01*
X026788Y008726D02*
X025967Y008726D01*
X025967Y008845D02*
X026788Y008845D01*
X026788Y008963D02*
X025967Y008963D01*
X025967Y009082D02*
X026788Y009082D01*
X026788Y009200D02*
X025967Y009200D01*
X025967Y009319D02*
X026788Y009319D01*
X026788Y009437D02*
X025967Y009437D01*
X025942Y009556D02*
X026813Y009556D01*
X026788Y009674D02*
X025967Y009674D01*
X025967Y009793D02*
X026788Y009793D01*
X026788Y009912D02*
X025967Y009912D01*
X025916Y010030D02*
X026839Y010030D01*
X026788Y010149D02*
X025967Y010149D01*
X025967Y010267D02*
X026788Y010267D01*
X026788Y010386D02*
X025967Y010386D01*
X025929Y010504D02*
X026826Y010504D01*
X026788Y010623D02*
X026073Y010623D01*
X026191Y010741D02*
X026788Y010741D01*
X026788Y010860D02*
X026305Y010860D01*
X026342Y010978D02*
X026800Y010978D01*
X026788Y011097D02*
X026342Y011097D01*
X026342Y011216D02*
X026788Y011216D01*
X026788Y011334D02*
X026342Y011334D01*
X026342Y011453D02*
X026788Y011453D01*
X026893Y011571D02*
X026310Y011571D01*
X026203Y011690D02*
X033481Y011690D01*
X033481Y011808D02*
X026084Y011808D01*
X027909Y011571D02*
X028108Y011571D01*
X028584Y011571D02*
X033481Y011571D01*
X033481Y011453D02*
X028702Y011453D01*
X029065Y010504D02*
X030947Y010504D01*
X030829Y010386D02*
X029112Y010386D01*
X029112Y010267D02*
X030100Y010267D01*
X029981Y010149D02*
X028783Y010149D01*
X028783Y010120D02*
X029112Y010120D01*
X029112Y009935D01*
X029101Y009895D01*
X029080Y009858D01*
X029050Y009829D01*
X029014Y009807D01*
X028973Y009797D01*
X028783Y009797D01*
X028783Y010120D01*
X028783Y010030D02*
X028696Y010030D01*
X028696Y009912D02*
X028783Y009912D01*
X029106Y009912D02*
X029744Y009912D01*
X029863Y010030D02*
X029112Y010030D01*
X029626Y009793D02*
X028409Y009793D01*
X028409Y009674D02*
X029507Y009674D01*
X029389Y009556D02*
X028484Y009556D01*
X028923Y009437D02*
X028950Y009437D01*
X031437Y010504D02*
X031947Y010504D01*
X031829Y010386D02*
X031556Y010386D01*
X031672Y010267D02*
X031712Y010267D01*
X031712Y010149D02*
X031672Y010149D01*
X031672Y010030D02*
X031712Y010030D01*
X033481Y011927D02*
X018041Y011927D01*
X018114Y011808D02*
X023915Y011808D01*
X023796Y011690D02*
X018114Y011690D01*
X018114Y011571D02*
X022725Y011571D01*
X022713Y011453D02*
X018043Y011453D01*
X017924Y011334D02*
X023036Y011334D01*
X023037Y011251D02*
X023123Y011251D01*
X023123Y010923D01*
X023308Y010923D01*
X023349Y010933D01*
X023385Y010954D01*
X023410Y010980D01*
X023488Y010903D01*
X024042Y010903D01*
X023998Y010858D01*
X023991Y010865D01*
X023488Y010865D01*
X023425Y010802D01*
X023361Y010865D01*
X022858Y010865D01*
X022851Y010858D01*
X022838Y010871D01*
X022838Y010926D01*
X022852Y010923D01*
X023037Y010923D01*
X023037Y011251D01*
X023037Y011216D02*
X023123Y011216D01*
X023123Y011097D02*
X023037Y011097D01*
X023037Y010978D02*
X023123Y010978D01*
X023366Y010860D02*
X023483Y010860D01*
X023412Y010978D02*
X023409Y010978D01*
X023996Y010860D02*
X024000Y010860D01*
X022853Y010860D02*
X022849Y010860D01*
X022156Y010623D02*
X018788Y010623D01*
X018677Y010504D02*
X019755Y010504D01*
X019636Y010386D02*
X018796Y010386D01*
X018915Y010267D02*
X019518Y010267D01*
X019512Y010149D02*
X019033Y010149D01*
X019152Y010030D02*
X019512Y010030D01*
X019512Y009912D02*
X019270Y009912D01*
X019387Y009793D02*
X019561Y009793D01*
X019942Y010149D02*
X020002Y010149D01*
X020002Y010101D02*
X020002Y010531D01*
X020162Y010531D01*
X020432Y010261D01*
X020432Y010101D01*
X020002Y010101D01*
X020002Y010267D02*
X019942Y010267D01*
X019942Y010386D02*
X020002Y010386D01*
X020002Y010504D02*
X019942Y010504D01*
X020189Y010504D02*
X020727Y010504D01*
X020608Y010386D02*
X020307Y010386D01*
X020426Y010267D02*
X020492Y010267D01*
X020492Y010149D02*
X020432Y010149D01*
X020432Y010030D02*
X020492Y010030D01*
X020492Y009912D02*
X020432Y009912D01*
X021254Y009674D02*
X022042Y009674D01*
X022042Y009556D02*
X020854Y009556D01*
X021284Y009437D02*
X022160Y009437D01*
X022066Y009319D02*
X021792Y009319D01*
X021950Y009200D02*
X022042Y009200D01*
X022042Y009793D02*
X021373Y009793D01*
X021452Y009912D02*
X022069Y009912D01*
X022158Y010030D02*
X021452Y010030D01*
X021452Y010149D02*
X022042Y010149D01*
X022042Y010267D02*
X021452Y010267D01*
X021336Y010386D02*
X022042Y010386D01*
X022071Y010504D02*
X021217Y010504D01*
X022042Y010741D02*
X018901Y010741D01*
X018901Y010860D02*
X022042Y010860D01*
X022042Y010978D02*
X018901Y010978D01*
X018871Y011097D02*
X022073Y011097D01*
X022191Y011216D02*
X018752Y011216D01*
X017508Y011334D02*
X016548Y011334D01*
X016481Y011216D02*
X016429Y011216D01*
X016413Y011147D02*
X016413Y011147D01*
X016363Y011097D02*
X016341Y011097D01*
X016244Y010978D02*
X016236Y010978D01*
X016126Y010860D02*
X015328Y010860D01*
X015393Y010836D02*
X015393Y010426D01*
X015393Y010426D01*
X015393Y010836D01*
X015393Y010741D02*
X015393Y010741D01*
X015393Y010623D02*
X015393Y010623D01*
X015393Y010504D02*
X015393Y010504D01*
X016023Y010504D02*
X016023Y010504D01*
X016023Y010386D02*
X016023Y010386D01*
X016023Y010267D02*
X016023Y010267D01*
X016023Y010149D02*
X016023Y010149D01*
X016023Y010030D02*
X016023Y010030D01*
X015963Y009912D02*
X016811Y009912D01*
X016811Y009793D02*
X015893Y009793D01*
X015742Y009674D02*
X016202Y009674D01*
X016083Y009556D02*
X015338Y009556D01*
X015338Y009437D02*
X016019Y009437D01*
X016019Y009319D02*
X015338Y009319D01*
X015338Y009200D02*
X016019Y009200D01*
X016099Y009082D02*
X015280Y009082D01*
X015279Y008963D02*
X016217Y008963D01*
X016452Y008845D02*
X015258Y008845D01*
X016750Y009556D02*
X016811Y009556D01*
X016811Y009674D02*
X016632Y009674D01*
X016023Y010623D02*
X016023Y010623D01*
X016023Y010741D02*
X016023Y010741D01*
X015652Y010978D02*
X015590Y010978D01*
X015397Y010978D02*
X015310Y010978D01*
X015310Y011097D02*
X015397Y011097D01*
X015397Y011216D02*
X015310Y011216D01*
X016341Y011927D02*
X016430Y011927D01*
X016341Y012045D02*
X017509Y012045D01*
X017922Y012045D02*
X033481Y012045D01*
X033481Y012164D02*
X016341Y012164D01*
X016341Y012282D02*
X033481Y012282D01*
X023123Y011571D02*
X023037Y011571D01*
X023037Y011453D02*
X023123Y011453D01*
X022713Y011216D02*
X022689Y011216D01*
X021572Y008252D02*
X021452Y008252D01*
X021452Y008133D02*
X021691Y008133D01*
X021810Y008015D02*
X021452Y008015D01*
X021452Y007896D02*
X021928Y007896D01*
X022047Y007778D02*
X021358Y007778D01*
X021239Y007659D02*
X022713Y007659D01*
X024057Y007541D02*
X021181Y007541D01*
X020763Y007541D02*
X020181Y007541D01*
X020171Y007551D02*
X019773Y007551D01*
X019492Y007269D01*
X019492Y006872D01*
X019773Y006591D01*
X020171Y006591D01*
X020452Y006872D01*
X020452Y007269D01*
X020171Y007551D01*
X020239Y007659D02*
X020704Y007659D01*
X020586Y007778D02*
X020358Y007778D01*
X020452Y007896D02*
X020492Y007896D01*
X020492Y008015D02*
X020452Y008015D01*
X020452Y008133D02*
X020492Y008133D01*
X020492Y008252D02*
X020452Y008252D01*
X019763Y007541D02*
X018678Y007541D01*
X018610Y007422D02*
X019644Y007422D01*
X019526Y007304D02*
X018924Y007304D01*
X019042Y007185D02*
X019492Y007185D01*
X019492Y007067D02*
X019098Y007067D01*
X019098Y006948D02*
X019492Y006948D01*
X019534Y006829D02*
X019098Y006829D01*
X019010Y006711D02*
X019653Y006711D01*
X019771Y006592D02*
X018891Y006592D01*
X018509Y006592D02*
X018300Y006592D01*
X018377Y006474D02*
X019696Y006474D01*
X019578Y006355D02*
X018496Y006355D01*
X020172Y006592D02*
X020771Y006592D01*
X020696Y006474D02*
X020247Y006474D01*
X020366Y006355D02*
X020578Y006355D01*
X020492Y006237D02*
X020452Y006237D01*
X020291Y006711D02*
X020653Y006711D01*
X020534Y006829D02*
X020409Y006829D01*
X020452Y006948D02*
X020492Y006948D01*
X020492Y007067D02*
X020452Y007067D01*
X020452Y007185D02*
X020492Y007185D01*
X020526Y007304D02*
X020418Y007304D01*
X020299Y007422D02*
X020644Y007422D01*
X022709Y005881D02*
X028194Y005881D01*
X028645Y005407D02*
X030850Y005407D01*
X030731Y005288D02*
X028716Y005288D01*
X028716Y005170D02*
X030712Y005170D01*
X030712Y005051D02*
X029112Y005051D01*
X029132Y004933D02*
X030712Y004933D01*
X030770Y004814D02*
X029132Y004814D01*
X029132Y004696D02*
X030889Y004696D01*
X030901Y004459D02*
X029122Y004459D01*
X029132Y004577D02*
X033481Y004577D01*
X033481Y003510D02*
X032431Y003510D01*
X032550Y003392D02*
X033481Y003392D01*
X033481Y003273D02*
X032669Y003273D01*
X032672Y003155D02*
X033481Y003155D01*
X033481Y003036D02*
X032672Y003036D01*
X032672Y002918D02*
X033481Y002918D01*
X033481Y002799D02*
X032599Y002799D01*
X032481Y002680D02*
X033481Y002680D01*
X033481Y002562D02*
X032051Y002562D01*
X031933Y002443D02*
X033481Y002443D01*
X033481Y002325D02*
X031814Y002325D01*
X031696Y002206D02*
X033481Y002206D01*
X033481Y002088D02*
X031577Y002088D01*
X031458Y001969D02*
X033481Y001969D01*
X033481Y000902D02*
X024116Y000902D01*
X022239Y002799D02*
X021765Y002799D01*
X021821Y002855D02*
X021821Y002855D01*
X021884Y002918D02*
X022184Y002918D01*
X022065Y003036D02*
X022002Y003036D01*
X021402Y003510D02*
X021211Y003510D01*
X021209Y003629D02*
X021470Y003629D01*
X021470Y003747D02*
X021327Y003747D01*
X021446Y003866D02*
X021470Y003866D01*
X021470Y003984D02*
X021452Y003984D01*
X021452Y004103D02*
X021470Y004103D01*
X021470Y004221D02*
X021452Y004221D01*
X021470Y004340D02*
X021381Y004340D01*
X020681Y004459D02*
X020263Y004459D01*
X020381Y004340D02*
X020562Y004340D01*
X020492Y004221D02*
X020452Y004221D01*
X020452Y004103D02*
X020492Y004103D01*
X020492Y003984D02*
X020452Y003984D01*
X020446Y003866D02*
X020498Y003866D01*
X020616Y003747D02*
X020327Y003747D01*
X019009Y004459D02*
X018763Y004459D01*
X018011Y004720D02*
X018011Y004090D01*
X017932Y004012D01*
X017027Y004012D01*
X018737Y005326D02*
X018967Y005097D01*
X019067Y005197D01*
X019397Y005197D01*
X019553Y005041D01*
X019942Y005041D01*
X019942Y005101D01*
X019512Y005101D01*
X019512Y005261D01*
X019577Y005326D01*
X018737Y005326D01*
X018775Y005288D02*
X019539Y005288D01*
X019512Y005170D02*
X019424Y005170D01*
X019542Y005051D02*
X019942Y005051D01*
X020002Y005051D02*
X020492Y005051D01*
X020492Y004933D02*
X020432Y004933D01*
X020366Y004814D02*
X020549Y004814D01*
X020668Y004696D02*
X020247Y004696D01*
X020002Y004696D02*
X019942Y004696D01*
X019942Y004814D02*
X020002Y004814D01*
X020002Y004933D02*
X019942Y004933D01*
X020432Y005170D02*
X020492Y005170D01*
X020511Y005288D02*
X020405Y005288D01*
X020463Y005407D02*
X020629Y005407D01*
X020582Y005525D02*
X020748Y005525D01*
X020720Y005644D02*
X020700Y005644D01*
X019039Y005170D02*
X018894Y005170D01*
X022838Y005644D02*
X023444Y005644D01*
X023092Y005525D02*
X023005Y005525D01*
X023005Y005407D02*
X023092Y005407D01*
X023092Y005220D02*
X023005Y005220D01*
X023005Y004891D01*
X022913Y004891D01*
X023041Y004762D01*
X023361Y004762D01*
X023425Y004699D01*
X023488Y004762D01*
X023991Y004762D01*
X023998Y004756D01*
X024519Y005277D01*
X024124Y005277D01*
X024124Y004976D01*
X024019Y004871D01*
X023456Y004871D01*
X023379Y004948D01*
X023354Y004923D01*
X023317Y004902D01*
X023276Y004891D01*
X023092Y004891D01*
X023092Y005220D01*
X023092Y005170D02*
X023005Y005170D01*
X023005Y005051D02*
X023092Y005051D01*
X023092Y004933D02*
X023005Y004933D01*
X022990Y004814D02*
X024056Y004814D01*
X024081Y004933D02*
X024175Y004933D01*
X024124Y005051D02*
X024293Y005051D01*
X024412Y005170D02*
X024124Y005170D01*
X023395Y004933D02*
X023363Y004933D01*
X023876Y005763D02*
X022827Y005763D01*
X025927Y007541D02*
X026828Y007541D01*
X026788Y007659D02*
X025967Y007659D01*
X025967Y007778D02*
X026788Y007778D01*
X026788Y007896D02*
X025967Y007896D01*
X029095Y004340D02*
X030783Y004340D01*
X030550Y004221D02*
X029112Y004221D01*
X028783Y004103D02*
X030432Y004103D01*
X030313Y003984D02*
X029112Y003984D01*
X029112Y003866D02*
X030195Y003866D01*
X030076Y003747D02*
X029072Y003747D01*
X028783Y003747D02*
X028696Y003747D01*
X028696Y003866D02*
X028783Y003866D01*
X028783Y003984D02*
X028696Y003984D01*
X028409Y003629D02*
X029957Y003629D01*
X029839Y003510D02*
X028427Y003510D01*
X028546Y003392D02*
X029720Y003392D01*
X012436Y009869D02*
X012213Y009869D01*
X012213Y009887D01*
X012195Y009887D01*
X012195Y010176D01*
X011848Y010176D01*
X011808Y010165D01*
X011771Y010144D01*
X011741Y010114D01*
X011720Y010077D01*
X011709Y010037D01*
X011709Y009887D01*
X012195Y009887D01*
X012195Y009869D01*
X011709Y009869D01*
X011709Y009719D01*
X011720Y009678D01*
X011741Y009642D01*
X011771Y009612D01*
X011808Y009591D01*
X011848Y009580D01*
X011940Y009580D01*
X011860Y009547D01*
X011787Y009474D01*
X011480Y009167D01*
X011480Y009878D01*
X011440Y009974D01*
X011367Y010047D01*
X011236Y010179D01*
X011236Y010518D01*
X010943Y010811D01*
X011236Y011104D01*
X011236Y011337D01*
X011328Y011429D01*
X011577Y011429D01*
X011577Y011092D01*
X011609Y011061D01*
X011609Y010736D01*
X011842Y010503D01*
X012172Y010503D01*
X012405Y010736D01*
X012405Y011061D01*
X012437Y011092D01*
X012437Y011491D01*
X012437Y011492D01*
X012437Y011492D01*
X012437Y011891D01*
X012332Y011997D01*
X011683Y011997D01*
X011635Y011949D01*
X011168Y011949D01*
X011073Y011909D01*
X010999Y011836D01*
X010958Y011795D01*
X010943Y011811D01*
X010528Y011811D01*
X010236Y011518D01*
X010236Y011104D01*
X010528Y010811D01*
X010943Y010811D01*
X010528Y010811D01*
X010236Y010518D01*
X010236Y010179D01*
X010236Y010178D01*
X010236Y010518D01*
X009943Y010811D01*
X010236Y011104D01*
X010236Y011518D01*
X009943Y011811D01*
X009528Y011811D01*
X009236Y011518D01*
X009236Y011437D01*
X009203Y011437D01*
X009203Y011472D01*
X009140Y011535D01*
X009203Y011599D01*
X009203Y012019D01*
X012529Y012019D01*
X012909Y011640D01*
X012982Y011567D01*
X013184Y011365D01*
X013184Y011189D01*
X013212Y011161D01*
X013137Y011161D01*
X013041Y011122D01*
X012968Y011049D01*
X012968Y011049D01*
X012476Y010557D01*
X012436Y010461D01*
X012436Y010358D01*
X012436Y010176D01*
X012213Y010176D01*
X012213Y009887D01*
X012436Y009887D01*
X012436Y009869D01*
X012213Y009912D02*
X012195Y009912D01*
X012195Y010030D02*
X012213Y010030D01*
X012213Y010149D02*
X012195Y010149D01*
X012436Y010267D02*
X011236Y010267D01*
X011236Y010386D02*
X012436Y010386D01*
X012454Y010504D02*
X012173Y010504D01*
X012292Y010623D02*
X012542Y010623D01*
X012661Y010741D02*
X012405Y010741D01*
X012405Y010860D02*
X012779Y010860D01*
X012898Y010978D02*
X012405Y010978D01*
X012437Y011097D02*
X013016Y011097D01*
X013184Y011216D02*
X012437Y011216D01*
X012437Y011334D02*
X013184Y011334D01*
X013096Y011453D02*
X012437Y011453D01*
X012437Y011571D02*
X012978Y011571D01*
X012909Y011640D02*
X012909Y011640D01*
X012859Y011690D02*
X012437Y011690D01*
X012437Y011808D02*
X012741Y011808D01*
X012622Y011927D02*
X012402Y011927D01*
X011115Y011927D02*
X009203Y011927D01*
X009203Y011808D02*
X009526Y011808D01*
X009407Y011690D02*
X009203Y011690D01*
X009176Y011571D02*
X009289Y011571D01*
X009236Y011453D02*
X009203Y011453D01*
X010064Y011690D02*
X010407Y011690D01*
X010289Y011571D02*
X010182Y011571D01*
X010236Y011453D02*
X010236Y011453D01*
X010236Y011334D02*
X010236Y011334D01*
X010236Y011216D02*
X010236Y011216D01*
X010229Y011097D02*
X010242Y011097D01*
X010361Y010978D02*
X010110Y010978D01*
X009992Y010860D02*
X010479Y010860D01*
X010459Y010741D02*
X010012Y010741D01*
X009943Y010811D02*
X009528Y010811D01*
X009943Y010811D01*
X010131Y010623D02*
X010340Y010623D01*
X010236Y010504D02*
X010236Y010504D01*
X010236Y010386D02*
X010236Y010386D01*
X010236Y010267D02*
X010236Y010267D01*
X009976Y009844D02*
X009976Y009778D01*
X009943Y009811D01*
X009528Y009811D01*
X009236Y009518D01*
X009236Y009104D01*
X009366Y008973D01*
X009326Y008933D01*
X009326Y008932D02*
X009256Y008862D01*
X009256Y008894D01*
X009210Y009004D01*
X009126Y009089D01*
X008929Y009286D01*
X008876Y009308D01*
X008876Y009318D01*
X008804Y009391D01*
X008882Y009469D01*
X008882Y009815D01*
X008769Y009927D01*
X008882Y010039D01*
X008882Y010385D01*
X008770Y010497D01*
X008805Y010532D01*
X008808Y010533D01*
X008956Y010681D01*
X009029Y010754D01*
X009049Y010804D01*
X009098Y010804D01*
X009203Y010910D01*
X009203Y010917D01*
X009422Y010917D01*
X009528Y010811D01*
X009236Y010518D01*
X009236Y010104D01*
X009528Y009811D01*
X009943Y009811D01*
X009976Y009844D01*
X009976Y009793D02*
X009960Y009793D01*
X009511Y009793D02*
X008882Y009793D01*
X008882Y009674D02*
X009392Y009674D01*
X009274Y009556D02*
X008882Y009556D01*
X008851Y009437D02*
X009236Y009437D01*
X009236Y009319D02*
X008876Y009319D01*
X009014Y009200D02*
X009236Y009200D01*
X009258Y009082D02*
X009133Y009082D01*
X009227Y008963D02*
X009357Y008963D01*
X009326Y008933D02*
X009326Y008932D01*
X009679Y008525D02*
X010026Y008525D01*
X010026Y008484D01*
X010349Y008484D01*
X010349Y008397D01*
X010026Y008397D01*
X010026Y008207D01*
X010037Y008166D01*
X010058Y008130D01*
X010088Y008100D01*
X010125Y008079D01*
X010165Y008068D01*
X010350Y008068D01*
X010350Y008397D01*
X010436Y008397D01*
X010436Y008068D01*
X010621Y008068D01*
X010661Y008079D01*
X010698Y008100D01*
X010723Y008126D01*
X010743Y008106D01*
X010656Y008019D01*
X010656Y007319D01*
X010761Y007214D01*
X011255Y007214D01*
X011255Y006220D01*
X011160Y006125D01*
X010761Y006125D01*
X010656Y006019D01*
X010656Y005347D01*
X010173Y005347D01*
X010067Y005242D01*
X010067Y004605D01*
X010015Y004553D01*
X009976Y004457D01*
X009976Y004269D01*
X009934Y004311D01*
X009776Y004311D01*
X009776Y003871D01*
X009695Y003871D01*
X009695Y003790D01*
X009256Y003790D01*
X009256Y003632D01*
X009305Y003583D01*
X008742Y003583D01*
X008742Y004189D01*
X008637Y004294D01*
X007937Y004294D01*
X007831Y004189D01*
X007831Y003897D01*
X007768Y003833D01*
X007710Y003694D01*
X007710Y003345D01*
X007710Y002667D01*
X007672Y002630D01*
X007672Y002604D01*
X007663Y002610D01*
X007623Y002620D01*
X007432Y002620D01*
X007432Y002297D01*
X007346Y002297D01*
X007346Y002620D01*
X007155Y002620D01*
X007115Y002610D01*
X007078Y002588D01*
X007049Y002559D01*
X007027Y002522D01*
X007017Y002482D01*
X007017Y002297D01*
X007346Y002297D01*
X007346Y002210D01*
X007017Y002210D01*
X007017Y002026D01*
X007027Y001985D01*
X007046Y001953D01*
X006899Y001953D01*
X006899Y001968D01*
X006504Y001968D01*
X006504Y001969D01*
X006503Y001969D02*
X006503Y001969D01*
X006503Y002237D01*
X006503Y002283D01*
X006315Y002283D01*
X006315Y002283D01*
X006503Y002283D01*
X006503Y002283D01*
X006503Y002283D01*
X006503Y002237D01*
X006503Y001969D01*
X006503Y001969D01*
X006504Y001969D02*
X006899Y001969D01*
X007037Y001969D01*
X007017Y002088D02*
X006899Y002088D01*
X006899Y002098D02*
X006899Y001969D01*
X006899Y002098D02*
X006892Y002126D01*
X006899Y002154D01*
X006899Y002283D01*
X006504Y002283D01*
X006504Y002283D01*
X006899Y002283D01*
X006899Y002395D01*
X006919Y002415D01*
X006919Y002741D01*
X007140Y002961D01*
X007140Y003291D01*
X006906Y003524D01*
X006577Y003524D01*
X006343Y003291D01*
X006343Y003095D01*
X006310Y003062D01*
X006303Y003078D01*
X006303Y003291D01*
X006070Y003524D01*
X005740Y003524D01*
X005507Y003291D01*
X005507Y002961D01*
X005581Y002886D01*
X005326Y002886D01*
X005298Y002858D01*
X005194Y002858D01*
X005194Y003607D01*
X005199Y003607D01*
X005239Y003647D01*
X005313Y003647D01*
X005346Y003614D01*
X005676Y003614D01*
X005710Y003647D01*
X005974Y003647D01*
X006027Y003594D01*
X006373Y003594D01*
X006618Y003839D01*
X006618Y004086D01*
X006630Y004079D01*
X006671Y004068D01*
X007065Y004068D01*
X007065Y004877D01*
X006532Y004877D01*
X006532Y004271D01*
X006373Y004429D01*
X006027Y004429D01*
X006005Y004407D01*
X005679Y004407D01*
X005676Y004410D01*
X005346Y004410D01*
X005344Y004407D01*
X005239Y004407D01*
X005199Y004447D01*
X004215Y004447D01*
X004215Y004539D01*
X004224Y004537D01*
X004625Y004537D01*
X004625Y004877D01*
X004745Y004877D01*
X004745Y004997D01*
X005285Y004997D01*
X005285Y005198D01*
X005274Y005239D01*
X005253Y005275D01*
X005223Y005305D01*
X005186Y005326D01*
X005146Y005337D01*
X004745Y005337D01*
X004745Y004997D01*
X004625Y004997D01*
X004625Y005337D01*
X004224Y005337D01*
X004183Y005326D01*
X004166Y005316D01*
X004109Y005373D01*
X002976Y005373D01*
X002871Y005267D01*
X002871Y004331D01*
X002883Y004319D01*
X002883Y004115D01*
X003483Y004115D01*
X003483Y003995D01*
X003603Y003995D01*
X003603Y003645D01*
X004064Y003645D01*
X004104Y003656D01*
X004115Y003662D01*
X004170Y003607D01*
X004434Y003607D01*
X004434Y002567D01*
X004422Y002555D01*
X004422Y001992D01*
X004499Y001915D01*
X004474Y001889D01*
X004453Y001853D01*
X004442Y001812D01*
X004442Y001628D01*
X004771Y001628D01*
X004771Y001541D01*
X004858Y001541D01*
X004858Y001628D01*
X005187Y001628D01*
X005187Y001730D01*
X005239Y001708D01*
X005241Y001708D01*
X005241Y001654D01*
X005637Y001654D01*
X005637Y001653D01*
X005637Y001653D01*
X005637Y001385D01*
X005637Y001339D01*
X005637Y001339D01*
X005637Y001385D01*
X005637Y001653D01*
X005241Y001653D01*
X005241Y001524D01*
X005249Y001496D01*
X005241Y001468D01*
X005241Y001339D01*
X005637Y001339D01*
X005637Y001338D01*
X005241Y001338D01*
X005241Y001226D01*
X005221Y001206D01*
X005221Y000845D01*
X003450Y000845D01*
X003527Y000895D01*
X003859Y001278D01*
X004069Y001739D01*
X004142Y002240D01*
X004069Y002741D01*
X004069Y002741D01*
X003859Y003202D01*
X003859Y003202D01*
X003527Y003585D01*
X003434Y003645D01*
X003483Y003645D01*
X003483Y003995D01*
X002883Y003995D01*
X002883Y003923D01*
X002615Y004002D01*
X002108Y004002D01*
X001622Y003859D01*
X001196Y003585D01*
X000864Y003202D01*
X000654Y002741D01*
X000582Y002240D01*
X000654Y001739D01*
X000864Y001278D01*
X000864Y001278D01*
X001196Y000895D01*
X001273Y000845D01*
X000573Y000845D01*
X000573Y012296D01*
X001273Y012296D01*
X001196Y012247D01*
X001196Y012247D01*
X001196Y012247D01*
X000864Y011864D01*
X000864Y011864D01*
X000654Y011403D01*
X000582Y010901D01*
X000654Y010400D01*
X000864Y009939D01*
X001196Y009556D01*
X001622Y009282D01*
X002108Y009140D01*
X002615Y009140D01*
X003101Y009282D01*
X003527Y009556D01*
X004123Y009556D01*
X004123Y009647D02*
X004123Y009463D01*
X004134Y009422D01*
X004155Y009386D01*
X004185Y009356D01*
X004221Y009335D01*
X004262Y009324D01*
X004452Y009324D01*
X004452Y009647D01*
X004539Y009647D01*
X004539Y009324D01*
X004715Y009324D01*
X004715Y009300D01*
X004747Y009222D01*
X004715Y009145D01*
X004715Y009044D01*
X004747Y008966D01*
X004715Y008889D01*
X004715Y008813D01*
X004543Y008813D01*
X004543Y008490D01*
X004456Y008490D01*
X004456Y008813D01*
X004266Y008813D01*
X004225Y008802D01*
X004215Y008796D01*
X004215Y008811D01*
X004109Y008916D01*
X002976Y008916D01*
X002871Y008811D01*
X002871Y007874D01*
X002976Y007769D01*
X004107Y007769D01*
X004107Y007501D01*
X003483Y007501D01*
X003431Y007479D01*
X002976Y007479D01*
X002916Y007419D01*
X002916Y007508D01*
X002861Y007639D01*
X002761Y007740D01*
X002629Y007794D01*
X002487Y007794D01*
X002356Y007740D01*
X002256Y007639D01*
X002201Y007508D01*
X002201Y007366D01*
X002256Y007235D01*
X002356Y007134D01*
X002487Y007080D01*
X002629Y007080D01*
X002761Y007134D01*
X002861Y007235D01*
X002871Y007257D01*
X002871Y007028D01*
X002871Y006713D01*
X002871Y006429D01*
X002871Y006083D01*
X002891Y006062D01*
X002891Y006060D01*
X002891Y005941D01*
X003542Y005941D01*
X003542Y005941D01*
X002891Y005941D01*
X002891Y005836D01*
X002861Y005907D01*
X002761Y006007D01*
X002629Y006062D01*
X002487Y006062D01*
X002356Y006007D01*
X002256Y005907D01*
X002201Y005776D01*
X002201Y005634D01*
X002256Y005502D01*
X002356Y005402D01*
X002487Y005347D01*
X002629Y005347D01*
X002761Y005402D01*
X002861Y005502D01*
X002916Y005634D01*
X002916Y005756D01*
X002923Y005744D01*
X002952Y005714D01*
X002989Y005693D01*
X003029Y005682D01*
X003542Y005682D01*
X003542Y005940D01*
X003543Y005940D01*
X003543Y005682D01*
X004056Y005682D01*
X004065Y005685D01*
X004065Y005532D01*
X004170Y005427D01*
X005199Y005427D01*
X005274Y005502D01*
X005300Y005502D01*
X005338Y005464D01*
X005684Y005464D01*
X005722Y005502D01*
X005989Y005502D01*
X006027Y005464D01*
X006373Y005464D01*
X006532Y005623D01*
X006532Y004997D01*
X007065Y004997D01*
X007065Y004877D01*
X007185Y004877D01*
X007185Y004997D01*
X007718Y004997D01*
X007718Y005667D01*
X007707Y005707D01*
X007696Y005727D01*
X007786Y005817D01*
X007786Y006466D01*
X007680Y006572D01*
X006531Y006572D01*
X006481Y006522D01*
X006384Y006522D01*
X006245Y006464D01*
X006081Y006299D01*
X006027Y006299D01*
X005989Y006262D01*
X005722Y006262D01*
X005684Y006299D01*
X005338Y006299D01*
X005300Y006262D01*
X005204Y006262D01*
X005199Y006267D01*
X004215Y006267D01*
X004215Y006311D01*
X005957Y006311D01*
X006052Y006350D01*
X006125Y006423D01*
X007257Y007555D01*
X007649Y007555D01*
X007661Y007560D01*
X007973Y007560D01*
X008067Y007599D01*
X008138Y007670D01*
X008177Y007764D01*
X008177Y007865D01*
X008145Y007943D01*
X008174Y008013D01*
X008209Y007992D01*
X008250Y007982D01*
X008440Y007982D01*
X008440Y008305D01*
X008527Y008305D01*
X008527Y007982D01*
X008656Y007982D01*
X008656Y007615D01*
X008656Y007495D01*
X008656Y006834D01*
X008558Y006736D01*
X008558Y006406D01*
X008791Y006173D01*
X009121Y006173D01*
X009354Y006406D01*
X009354Y006736D01*
X009256Y006834D01*
X009256Y007214D01*
X009729Y007214D01*
X009835Y007319D01*
X009835Y008019D01*
X009729Y008125D01*
X009679Y008125D01*
X009679Y008525D01*
X009679Y008489D02*
X010026Y008489D01*
X010026Y008371D02*
X009679Y008371D01*
X009679Y008252D02*
X010026Y008252D01*
X010056Y008133D02*
X009679Y008133D01*
X009835Y008015D02*
X010656Y008015D01*
X010656Y007896D02*
X009835Y007896D01*
X009835Y007778D02*
X010656Y007778D01*
X010656Y007659D02*
X009835Y007659D01*
X009835Y007541D02*
X010656Y007541D01*
X010656Y007422D02*
X009835Y007422D01*
X009819Y007304D02*
X010671Y007304D01*
X011255Y007185D02*
X009256Y007185D01*
X009256Y007067D02*
X011255Y007067D01*
X011255Y006948D02*
X009256Y006948D01*
X009260Y006829D02*
X011255Y006829D01*
X011255Y006711D02*
X009354Y006711D01*
X009354Y006592D02*
X011255Y006592D01*
X011255Y006474D02*
X009354Y006474D01*
X009304Y006355D02*
X011255Y006355D01*
X011255Y006237D02*
X009185Y006237D01*
X009161Y006105D02*
X009121Y006094D01*
X009084Y006073D01*
X009054Y006043D01*
X009033Y006006D01*
X009022Y005966D01*
X009022Y005727D01*
X009360Y005727D01*
X009360Y005611D01*
X009022Y005611D01*
X009022Y005372D01*
X009033Y005332D01*
X009036Y005327D01*
X008719Y005327D01*
X008711Y005357D01*
X008690Y005393D01*
X008661Y005423D01*
X008624Y005444D01*
X008583Y005455D01*
X008347Y005455D01*
X008347Y005040D01*
X008552Y005040D01*
X008552Y004977D01*
X009152Y004977D01*
X009152Y004857D01*
X009272Y004857D01*
X009272Y004507D01*
X009733Y004507D01*
X009774Y004518D01*
X009810Y004539D01*
X009840Y004569D01*
X009861Y004605D01*
X009872Y004646D01*
X009872Y004857D01*
X009272Y004857D01*
X009272Y004977D01*
X009872Y004977D01*
X009872Y005188D01*
X009861Y005229D01*
X009840Y005265D01*
X009810Y005295D01*
X009790Y005307D01*
X009804Y005332D01*
X009815Y005372D01*
X009815Y005611D01*
X009477Y005611D01*
X009477Y005727D01*
X009815Y005727D01*
X009815Y005966D01*
X009804Y006006D01*
X009783Y006043D01*
X009753Y006073D01*
X009717Y006094D01*
X009676Y006105D01*
X009477Y006105D01*
X009477Y005727D01*
X009360Y005727D01*
X009360Y006105D01*
X009161Y006105D01*
X009032Y006000D02*
X007786Y006000D01*
X007786Y006118D02*
X010755Y006118D01*
X010656Y006000D02*
X009806Y006000D01*
X009815Y005881D02*
X010656Y005881D01*
X010656Y005763D02*
X009815Y005763D01*
X009477Y005763D02*
X009360Y005763D01*
X009360Y005881D02*
X009477Y005881D01*
X009477Y006000D02*
X009360Y006000D01*
X009022Y005881D02*
X007786Y005881D01*
X007731Y005763D02*
X009022Y005763D01*
X009360Y005644D02*
X007718Y005644D01*
X007718Y005525D02*
X009022Y005525D01*
X009022Y005407D02*
X008677Y005407D01*
X008347Y005407D02*
X008227Y005407D01*
X008227Y005455D02*
X007990Y005455D01*
X007949Y005444D01*
X007913Y005423D01*
X007883Y005393D01*
X007862Y005357D01*
X007851Y005316D01*
X007851Y005040D01*
X008227Y005040D01*
X008227Y005455D01*
X008227Y005288D02*
X008347Y005288D01*
X008347Y005170D02*
X008227Y005170D01*
X008227Y005051D02*
X008347Y005051D01*
X008347Y005040D02*
X008227Y005040D01*
X008227Y004920D01*
X008347Y004920D01*
X008347Y005040D01*
X008347Y004933D02*
X009152Y004933D01*
X009152Y004857D02*
X008722Y004857D01*
X008722Y004920D01*
X008347Y004920D01*
X008347Y004505D01*
X008583Y004505D01*
X008624Y004516D01*
X008639Y004525D01*
X008650Y004518D01*
X008691Y004507D01*
X009152Y004507D01*
X009152Y004857D01*
X009152Y004814D02*
X009272Y004814D01*
X009272Y004696D02*
X009152Y004696D01*
X009152Y004577D02*
X009272Y004577D01*
X009537Y004311D02*
X009256Y004029D01*
X009256Y003871D01*
X009695Y003871D01*
X009695Y004311D01*
X009537Y004311D01*
X009448Y004221D02*
X008709Y004221D01*
X008742Y004103D02*
X009329Y004103D01*
X009256Y003984D02*
X008742Y003984D01*
X008742Y003866D02*
X009695Y003866D01*
X009695Y003984D02*
X009776Y003984D01*
X009776Y004103D02*
X009695Y004103D01*
X009695Y004221D02*
X009776Y004221D01*
X009976Y004340D02*
X007718Y004340D01*
X007718Y004221D02*
X007864Y004221D01*
X007831Y004103D02*
X007659Y004103D01*
X007656Y004100D02*
X007686Y004130D01*
X007707Y004166D01*
X007718Y004207D01*
X007718Y004877D01*
X007185Y004877D01*
X007185Y004068D01*
X007579Y004068D01*
X007620Y004079D01*
X007656Y004100D01*
X007831Y003984D02*
X006618Y003984D01*
X006618Y003866D02*
X007800Y003866D01*
X007732Y003747D02*
X006527Y003747D01*
X006408Y003629D02*
X007710Y003629D01*
X007710Y003510D02*
X006920Y003510D01*
X007039Y003392D02*
X007710Y003392D01*
X007710Y003273D02*
X007140Y003273D01*
X007140Y003155D02*
X007710Y003155D01*
X007710Y003036D02*
X007140Y003036D01*
X007096Y002918D02*
X007710Y002918D01*
X007710Y002799D02*
X006978Y002799D01*
X006919Y002680D02*
X007710Y002680D01*
X007432Y002562D02*
X007346Y002562D01*
X007346Y002443D02*
X007432Y002443D01*
X007432Y002325D02*
X007346Y002325D01*
X007017Y002325D02*
X006899Y002325D01*
X006899Y002206D02*
X007017Y002206D01*
X006503Y002206D02*
X006503Y002206D01*
X006503Y002088D02*
X006503Y002088D01*
X005826Y002283D02*
X005638Y002283D01*
X005638Y002283D01*
X005825Y002283D01*
X005826Y002283D01*
X006919Y002443D02*
X007017Y002443D01*
X007052Y002562D02*
X006919Y002562D01*
X005550Y002918D02*
X005194Y002918D01*
X005194Y003036D02*
X005507Y003036D01*
X005507Y003155D02*
X005194Y003155D01*
X005194Y003273D02*
X005507Y003273D01*
X005608Y003392D02*
X005194Y003392D01*
X005194Y003510D02*
X005726Y003510D01*
X005691Y003629D02*
X005992Y003629D01*
X006083Y003510D02*
X006563Y003510D01*
X006444Y003392D02*
X006202Y003392D01*
X006303Y003273D02*
X006343Y003273D01*
X006343Y003155D02*
X006303Y003155D01*
X005331Y003629D02*
X005221Y003629D01*
X004434Y003510D02*
X003592Y003510D01*
X003527Y003585D02*
X003527Y003585D01*
X003459Y003629D02*
X004149Y003629D01*
X004434Y003392D02*
X003695Y003392D01*
X003798Y003273D02*
X004434Y003273D01*
X004434Y003155D02*
X003881Y003155D01*
X003935Y003036D02*
X004434Y003036D01*
X004434Y002918D02*
X003989Y002918D01*
X004043Y002799D02*
X004434Y002799D01*
X004434Y002680D02*
X004078Y002680D01*
X004095Y002562D02*
X004429Y002562D01*
X004422Y002443D02*
X004112Y002443D01*
X004129Y002325D02*
X004422Y002325D01*
X004422Y002206D02*
X004137Y002206D01*
X004120Y002088D02*
X004422Y002088D01*
X004445Y001969D02*
X004103Y001969D01*
X004086Y001851D02*
X004452Y001851D01*
X004442Y001732D02*
X004066Y001732D01*
X004069Y001739D02*
X004069Y001739D01*
X004012Y001614D02*
X004771Y001614D01*
X004771Y001541D02*
X004442Y001541D01*
X004442Y001357D01*
X004453Y001316D01*
X004474Y001280D01*
X004503Y001250D01*
X004540Y001229D01*
X004581Y001218D01*
X004771Y001218D01*
X004771Y001541D01*
X004771Y001495D02*
X004858Y001495D01*
X004858Y001541D02*
X004858Y001218D01*
X005048Y001218D01*
X005089Y001229D01*
X005125Y001250D01*
X005155Y001280D01*
X005176Y001316D01*
X005187Y001357D01*
X005187Y001541D01*
X004858Y001541D01*
X004858Y001614D02*
X005241Y001614D01*
X005248Y001495D02*
X005187Y001495D01*
X005187Y001376D02*
X005241Y001376D01*
X005241Y001258D02*
X005133Y001258D01*
X005221Y001139D02*
X003739Y001139D01*
X003636Y001021D02*
X005221Y001021D01*
X005221Y000902D02*
X003534Y000902D01*
X003527Y000895D02*
X003527Y000895D01*
X003527Y000895D01*
X003842Y001258D02*
X004495Y001258D01*
X004442Y001376D02*
X003904Y001376D01*
X003859Y001278D02*
X003859Y001278D01*
X003958Y001495D02*
X004442Y001495D01*
X004771Y001376D02*
X004858Y001376D01*
X004858Y001258D02*
X004771Y001258D01*
X005637Y001376D02*
X005637Y001376D01*
X005637Y001495D02*
X005637Y001495D01*
X005637Y001614D02*
X005637Y001614D01*
X001196Y000895D02*
X001196Y000895D01*
X001189Y000902D02*
X000573Y000902D01*
X000573Y001021D02*
X001087Y001021D01*
X000984Y001139D02*
X000573Y001139D01*
X000573Y001258D02*
X000881Y001258D01*
X000819Y001376D02*
X000573Y001376D01*
X000573Y001495D02*
X000765Y001495D01*
X000711Y001614D02*
X000573Y001614D01*
X000573Y001732D02*
X000657Y001732D01*
X000654Y001739D02*
X000654Y001739D01*
X000638Y001851D02*
X000573Y001851D01*
X000573Y001969D02*
X000620Y001969D01*
X000603Y002088D02*
X000573Y002088D01*
X000573Y002206D02*
X000586Y002206D01*
X000582Y002240D02*
X000582Y002240D01*
X000573Y002325D02*
X000594Y002325D01*
X000573Y002443D02*
X000611Y002443D01*
X000628Y002562D02*
X000573Y002562D01*
X000573Y002680D02*
X000645Y002680D01*
X000654Y002741D02*
X000654Y002741D01*
X000680Y002799D02*
X000573Y002799D01*
X000573Y002918D02*
X000734Y002918D01*
X000788Y003036D02*
X000573Y003036D01*
X000573Y003155D02*
X000842Y003155D01*
X000864Y003202D02*
X000864Y003202D01*
X000926Y003273D02*
X000573Y003273D01*
X000573Y003392D02*
X001028Y003392D01*
X001131Y003510D02*
X000573Y003510D01*
X000573Y003629D02*
X001264Y003629D01*
X001196Y003585D02*
X001196Y003585D01*
X001196Y003585D01*
X001448Y003747D02*
X000573Y003747D01*
X000573Y003866D02*
X001645Y003866D01*
X001622Y003859D02*
X001622Y003859D01*
X002049Y003984D02*
X000573Y003984D01*
X000573Y004103D02*
X003483Y004103D01*
X003483Y003984D02*
X003603Y003984D01*
X003603Y003866D02*
X003483Y003866D01*
X003483Y003747D02*
X003603Y003747D01*
X002883Y003984D02*
X002674Y003984D01*
X002615Y004002D02*
X002615Y004002D01*
X002108Y004002D02*
X002108Y004002D01*
X001944Y004225D02*
X002049Y004331D01*
X002049Y005267D01*
X001944Y005373D01*
X000811Y005373D01*
X000705Y005267D01*
X000705Y004331D01*
X000811Y004225D01*
X001944Y004225D01*
X002049Y004340D02*
X002871Y004340D01*
X002871Y004459D02*
X002049Y004459D01*
X002049Y004577D02*
X002871Y004577D01*
X002871Y004696D02*
X002049Y004696D01*
X002049Y004814D02*
X002871Y004814D01*
X002871Y004933D02*
X002049Y004933D01*
X002049Y005051D02*
X002871Y005051D01*
X002871Y005170D02*
X002049Y005170D01*
X002028Y005288D02*
X002892Y005288D01*
X002766Y005407D02*
X006532Y005407D01*
X006532Y005525D02*
X006435Y005525D01*
X006532Y005288D02*
X005239Y005288D01*
X005285Y005170D02*
X006532Y005170D01*
X006532Y005051D02*
X005285Y005051D01*
X005285Y004877D02*
X004745Y004877D01*
X004745Y004537D01*
X005146Y004537D01*
X005186Y004548D01*
X005223Y004569D01*
X005253Y004599D01*
X005274Y004635D01*
X005285Y004676D01*
X005285Y004877D01*
X005285Y004814D02*
X006532Y004814D01*
X006532Y004696D02*
X005285Y004696D01*
X005231Y004577D02*
X006532Y004577D01*
X006532Y004459D02*
X004215Y004459D01*
X004625Y004577D02*
X004745Y004577D01*
X004745Y004696D02*
X004625Y004696D01*
X004625Y004814D02*
X004745Y004814D01*
X004745Y004933D02*
X007065Y004933D01*
X007065Y004814D02*
X007185Y004814D01*
X007185Y004696D02*
X007065Y004696D01*
X007065Y004577D02*
X007185Y004577D01*
X007185Y004459D02*
X007065Y004459D01*
X007065Y004340D02*
X007185Y004340D01*
X007185Y004221D02*
X007065Y004221D01*
X007065Y004103D02*
X007185Y004103D01*
X006532Y004340D02*
X006463Y004340D01*
X007718Y004459D02*
X009976Y004459D01*
X010040Y004577D02*
X009845Y004577D01*
X009872Y004696D02*
X010067Y004696D01*
X010067Y004814D02*
X009872Y004814D01*
X010067Y004933D02*
X009272Y004933D01*
X009872Y005051D02*
X010067Y005051D01*
X010067Y005170D02*
X009872Y005170D01*
X009817Y005288D02*
X010114Y005288D01*
X009815Y005407D02*
X010656Y005407D01*
X010656Y005525D02*
X009815Y005525D01*
X009477Y005644D02*
X010656Y005644D01*
X008727Y006237D02*
X007786Y006237D01*
X007786Y006355D02*
X008608Y006355D01*
X008558Y006474D02*
X007778Y006474D01*
X008558Y006592D02*
X006294Y006592D01*
X006269Y006474D02*
X006176Y006474D01*
X006136Y006355D02*
X006057Y006355D01*
X006413Y006711D02*
X008558Y006711D01*
X008652Y006829D02*
X006531Y006829D01*
X006650Y006948D02*
X008656Y006948D01*
X008656Y007067D02*
X006768Y007067D01*
X006887Y007185D02*
X008656Y007185D01*
X008656Y007304D02*
X007005Y007304D01*
X007124Y007422D02*
X008656Y007422D01*
X008656Y007541D02*
X007243Y007541D01*
X008127Y007659D02*
X008656Y007659D01*
X008656Y007778D02*
X008177Y007778D01*
X008164Y007896D02*
X008656Y007896D01*
X008527Y008015D02*
X008440Y008015D01*
X008440Y008133D02*
X008527Y008133D01*
X008527Y008252D02*
X008440Y008252D01*
X007037Y008587D02*
X007013Y008587D01*
X006952Y008647D01*
X006952Y010062D01*
X006952Y010166D01*
X006913Y010261D01*
X006580Y010594D01*
X006484Y010634D01*
X006381Y010634D01*
X005961Y010634D01*
X006036Y010665D01*
X006249Y010878D01*
X006322Y010951D01*
X006362Y011047D01*
X006362Y011440D01*
X006362Y011544D01*
X006322Y011639D01*
X006003Y011958D01*
X005907Y011998D01*
X005804Y011998D01*
X005617Y011998D01*
X005479Y012136D01*
X005149Y012136D01*
X005024Y012011D01*
X004908Y012126D01*
X004579Y012126D01*
X004345Y011893D01*
X004345Y011563D01*
X004483Y011425D01*
X004483Y011406D01*
X004483Y011302D01*
X004523Y011207D01*
X004738Y010992D01*
X004715Y010936D01*
X004715Y010835D01*
X004743Y010766D01*
X004208Y010766D01*
X004108Y010666D01*
X004142Y010901D01*
X004069Y011403D01*
X003859Y011864D01*
X003527Y012247D01*
X003450Y012296D01*
X007326Y012296D01*
X007259Y012230D01*
X007220Y012134D01*
X007220Y012031D01*
X007220Y011637D01*
X007259Y011542D01*
X007332Y011468D01*
X007404Y011397D01*
X007221Y011397D01*
X007128Y011358D01*
X007056Y011286D01*
X007017Y011192D01*
X007017Y011091D01*
X007049Y011014D01*
X007017Y010936D01*
X007017Y010835D01*
X007049Y010758D01*
X007017Y010680D01*
X007017Y010579D01*
X007056Y010485D01*
X007062Y010480D01*
X007046Y010442D01*
X007037Y010397D01*
X007037Y010374D01*
X007597Y010374D01*
X007597Y010374D01*
X007037Y010374D01*
X007037Y010351D01*
X007046Y010305D01*
X007062Y010268D01*
X007056Y010262D01*
X007017Y010169D01*
X007017Y010067D01*
X007049Y009990D01*
X007017Y009913D01*
X007017Y009811D01*
X007049Y009734D01*
X007017Y009657D01*
X007017Y009556D01*
X006952Y009556D01*
X007017Y009556D02*
X007056Y009462D01*
X007062Y009456D01*
X007046Y009419D01*
X007037Y009373D01*
X007037Y009350D01*
X007037Y009327D01*
X007046Y009282D01*
X007062Y009244D01*
X007056Y009239D01*
X007017Y009145D01*
X007017Y009044D01*
X007049Y008966D01*
X007017Y008889D01*
X007017Y008788D01*
X007056Y008694D01*
X007062Y008688D01*
X007046Y008651D01*
X007037Y008606D01*
X007037Y008587D01*
X007038Y008608D02*
X006992Y008608D01*
X006952Y008726D02*
X007043Y008726D01*
X007017Y008845D02*
X006952Y008845D01*
X006952Y008963D02*
X007048Y008963D01*
X007017Y009082D02*
X006952Y009082D01*
X006952Y009200D02*
X007040Y009200D01*
X007039Y009319D02*
X006952Y009319D01*
X007037Y009350D02*
X007535Y009350D01*
X007536Y009350D01*
X007535Y009350D01*
X007037Y009350D01*
X007054Y009437D02*
X006952Y009437D01*
X006952Y009674D02*
X007024Y009674D01*
X007025Y009793D02*
X006952Y009793D01*
X006952Y009912D02*
X007017Y009912D01*
X007032Y010030D02*
X006952Y010030D01*
X006952Y010149D02*
X007017Y010149D01*
X007061Y010267D02*
X006907Y010267D01*
X006788Y010386D02*
X007037Y010386D01*
X007048Y010504D02*
X006670Y010504D01*
X006511Y010623D02*
X007017Y010623D01*
X007042Y010741D02*
X006112Y010741D01*
X006231Y010860D02*
X007017Y010860D01*
X007035Y010978D02*
X006334Y010978D01*
X006362Y011097D02*
X007017Y011097D01*
X007027Y011216D02*
X006362Y011216D01*
X006362Y011334D02*
X007104Y011334D01*
X007332Y011468D02*
X007332Y011468D01*
X007348Y011453D02*
X006362Y011453D01*
X006350Y011571D02*
X007247Y011571D01*
X007220Y011690D02*
X006272Y011690D01*
X006153Y011808D02*
X007220Y011808D01*
X007220Y011927D02*
X006035Y011927D01*
X005570Y012045D02*
X007220Y012045D01*
X007232Y012164D02*
X003599Y012164D01*
X003527Y012247D02*
X003527Y012247D01*
X003471Y012282D02*
X007312Y012282D01*
X005059Y012045D02*
X004989Y012045D01*
X004498Y012045D02*
X003702Y012045D01*
X003804Y011927D02*
X004379Y011927D01*
X004345Y011808D02*
X003884Y011808D01*
X003859Y011864D02*
X003859Y011864D01*
X003938Y011690D02*
X004345Y011690D01*
X004345Y011571D02*
X003993Y011571D01*
X004047Y011453D02*
X004456Y011453D01*
X004483Y011334D02*
X004079Y011334D01*
X004069Y011403D02*
X004069Y011403D01*
X004096Y011216D02*
X004519Y011216D01*
X004633Y011097D02*
X004113Y011097D01*
X004130Y010978D02*
X004732Y010978D01*
X004715Y010860D02*
X004136Y010860D01*
X004119Y010741D02*
X004183Y010741D01*
X004103Y010632D02*
X004103Y010099D01*
X004180Y010021D01*
X004155Y009996D01*
X004134Y009959D01*
X004123Y009919D01*
X004123Y009734D01*
X004452Y009734D01*
X004452Y009647D01*
X004123Y009647D01*
X004123Y009793D02*
X003732Y009793D01*
X003630Y009674D02*
X004452Y009674D01*
X004452Y009556D02*
X004539Y009556D01*
X004539Y009437D02*
X004452Y009437D01*
X004715Y009319D02*
X003158Y009319D01*
X003101Y009282D02*
X003101Y009282D01*
X002822Y009200D02*
X004738Y009200D01*
X004715Y009082D02*
X000573Y009082D01*
X000573Y009200D02*
X001901Y009200D01*
X001565Y009319D02*
X000573Y009319D01*
X000573Y009437D02*
X001381Y009437D01*
X001196Y009556D02*
X000573Y009556D01*
X000573Y009674D02*
X001093Y009674D01*
X000991Y009793D02*
X000573Y009793D01*
X000573Y009912D02*
X000888Y009912D01*
X000864Y009939D02*
X000864Y009939D01*
X000823Y010030D02*
X000573Y010030D01*
X000573Y010149D02*
X000768Y010149D01*
X000714Y010267D02*
X000573Y010267D01*
X000573Y010386D02*
X000660Y010386D01*
X000654Y010400D02*
X000654Y010400D01*
X000639Y010504D02*
X000573Y010504D01*
X000573Y010623D02*
X000622Y010623D01*
X000605Y010741D02*
X000573Y010741D01*
X000573Y010860D02*
X000588Y010860D01*
X000582Y010901D02*
X000582Y010901D01*
X000573Y010978D02*
X000593Y010978D01*
X000573Y011097D02*
X000610Y011097D01*
X000627Y011216D02*
X000573Y011216D01*
X000573Y011334D02*
X000644Y011334D01*
X000654Y011403D02*
X000654Y011403D01*
X000676Y011453D02*
X000573Y011453D01*
X000573Y011571D02*
X000731Y011571D01*
X000785Y011690D02*
X000573Y011690D01*
X000573Y011808D02*
X000839Y011808D01*
X000919Y011927D02*
X000573Y011927D01*
X000573Y012045D02*
X001022Y012045D01*
X001124Y012164D02*
X000573Y012164D01*
X000573Y012282D02*
X001252Y012282D01*
X004103Y010632D02*
X004069Y010400D01*
X004069Y010400D01*
X003859Y009939D01*
X003859Y009939D01*
X003527Y009556D01*
X003527Y009556D01*
X003527Y009556D01*
X003342Y009437D02*
X004130Y009437D01*
X004123Y009912D02*
X003835Y009912D01*
X003901Y010030D02*
X004171Y010030D01*
X004103Y010149D02*
X003955Y010149D01*
X004009Y010267D02*
X004103Y010267D01*
X004103Y010386D02*
X004063Y010386D01*
X004084Y010504D02*
X004103Y010504D01*
X004101Y010623D02*
X004103Y010623D01*
X006249Y010878D02*
X006249Y010878D01*
X008777Y010504D02*
X009236Y010504D01*
X009236Y010386D02*
X008881Y010386D01*
X008882Y010267D02*
X009236Y010267D01*
X009236Y010149D02*
X008882Y010149D01*
X008872Y010030D02*
X009309Y010030D01*
X009428Y009912D02*
X008785Y009912D01*
X008898Y010623D02*
X009340Y010623D01*
X009459Y010741D02*
X009016Y010741D01*
X009153Y010860D02*
X009479Y010860D01*
X010992Y010860D02*
X011609Y010860D01*
X011609Y010978D02*
X011110Y010978D01*
X011229Y011097D02*
X011577Y011097D01*
X011577Y011216D02*
X011236Y011216D01*
X011236Y011334D02*
X011577Y011334D01*
X011609Y010741D02*
X011012Y010741D01*
X011131Y010623D02*
X011723Y010623D01*
X011841Y010504D02*
X011236Y010504D01*
X011265Y010149D02*
X011780Y010149D01*
X011709Y010030D02*
X011384Y010030D01*
X011466Y009912D02*
X011709Y009912D01*
X011709Y009793D02*
X011480Y009793D01*
X011480Y009674D02*
X011722Y009674D01*
X011882Y009556D02*
X011480Y009556D01*
X011480Y009437D02*
X011750Y009437D01*
X011632Y009319D02*
X011480Y009319D01*
X011480Y009200D02*
X011513Y009200D01*
X010776Y009200D02*
X010695Y009200D01*
X010695Y009271D02*
X010776Y009271D01*
X010776Y008831D01*
X010798Y008831D01*
X010723Y008756D01*
X010698Y008781D01*
X010661Y008802D01*
X010621Y008813D01*
X010467Y008813D01*
X010493Y008875D01*
X010537Y008831D01*
X010695Y008831D01*
X010695Y009271D01*
X010695Y009351D02*
X010695Y009791D01*
X010583Y009791D01*
X010603Y009811D01*
X010868Y009811D01*
X010888Y009791D01*
X010776Y009791D01*
X010776Y009351D01*
X010695Y009351D01*
X010695Y009437D02*
X010776Y009437D01*
X010776Y009556D02*
X010695Y009556D01*
X010695Y009674D02*
X010776Y009674D01*
X010886Y009793D02*
X010585Y009793D01*
X010695Y009082D02*
X010776Y009082D01*
X010776Y008963D02*
X010695Y008963D01*
X010695Y008845D02*
X010776Y008845D01*
X010523Y008845D02*
X010480Y008845D01*
X010436Y008371D02*
X010350Y008371D01*
X010350Y008252D02*
X010436Y008252D01*
X010436Y008133D02*
X010350Y008133D01*
X006039Y009236D02*
X005900Y009098D01*
X005900Y008842D01*
X005875Y008842D01*
X005875Y008889D01*
X005843Y008966D01*
X005875Y009044D01*
X005875Y009145D01*
X005843Y009222D01*
X005875Y009300D01*
X005875Y009401D01*
X005836Y009495D01*
X005830Y009500D01*
X005846Y009538D01*
X005855Y009583D01*
X005855Y009606D01*
X005295Y009606D01*
X005295Y009606D01*
X005855Y009606D01*
X005855Y009629D01*
X005846Y009675D01*
X005830Y009712D01*
X005836Y009718D01*
X005864Y009787D01*
X006039Y009613D01*
X006039Y009236D01*
X006003Y009200D02*
X005852Y009200D01*
X005875Y009082D02*
X005900Y009082D01*
X005900Y008963D02*
X005844Y008963D01*
X005875Y008845D02*
X005900Y008845D01*
X004745Y008963D02*
X000573Y008963D01*
X000573Y008845D02*
X000739Y008845D01*
X000705Y008811D02*
X000705Y007874D01*
X000811Y007769D01*
X001944Y007769D01*
X002049Y007874D01*
X002049Y008811D01*
X001944Y008916D01*
X000811Y008916D01*
X000705Y008811D01*
X000705Y008726D02*
X000573Y008726D01*
X000573Y008608D02*
X000705Y008608D01*
X000705Y008489D02*
X000573Y008489D01*
X000573Y008371D02*
X000705Y008371D01*
X000705Y008252D02*
X000573Y008252D01*
X000573Y008133D02*
X000705Y008133D01*
X000705Y008015D02*
X000573Y008015D01*
X000573Y007896D02*
X000705Y007896D01*
X000801Y007778D02*
X000573Y007778D01*
X000573Y007659D02*
X002276Y007659D01*
X002215Y007541D02*
X000573Y007541D01*
X000573Y007422D02*
X002201Y007422D01*
X002227Y007304D02*
X000573Y007304D01*
X000573Y007185D02*
X002305Y007185D01*
X002812Y007185D02*
X002871Y007185D01*
X002871Y007067D02*
X000573Y007067D01*
X000573Y006948D02*
X002871Y006948D01*
X002871Y006829D02*
X000573Y006829D01*
X000573Y006711D02*
X002871Y006711D01*
X002871Y006592D02*
X000573Y006592D01*
X000573Y006474D02*
X002871Y006474D01*
X002871Y006355D02*
X000573Y006355D01*
X000573Y006237D02*
X002871Y006237D01*
X002871Y006118D02*
X000573Y006118D01*
X000573Y006000D02*
X002348Y006000D01*
X002245Y005881D02*
X000573Y005881D01*
X000573Y005763D02*
X002201Y005763D01*
X002201Y005644D02*
X000573Y005644D01*
X000573Y005525D02*
X002246Y005525D01*
X002351Y005407D02*
X000573Y005407D01*
X000573Y005288D02*
X000726Y005288D01*
X000705Y005170D02*
X000573Y005170D01*
X000573Y005051D02*
X000705Y005051D01*
X000705Y004933D02*
X000573Y004933D01*
X000573Y004814D02*
X000705Y004814D01*
X000705Y004696D02*
X000573Y004696D01*
X000573Y004577D02*
X000705Y004577D01*
X000705Y004459D02*
X000573Y004459D01*
X000573Y004340D02*
X000705Y004340D01*
X000573Y004221D02*
X002883Y004221D01*
X004215Y004877D02*
X004215Y004997D01*
X004625Y004997D01*
X004625Y004877D01*
X004215Y004877D01*
X004215Y004933D02*
X004625Y004933D01*
X004625Y005051D02*
X004745Y005051D01*
X004745Y005170D02*
X004625Y005170D01*
X004625Y005288D02*
X004745Y005288D01*
X004072Y005525D02*
X002871Y005525D01*
X002916Y005644D02*
X004065Y005644D01*
X004065Y005941D02*
X003543Y005941D01*
X004065Y005941D01*
X004065Y005941D01*
X003543Y005941D02*
X003543Y005941D01*
X003542Y005881D02*
X003543Y005881D01*
X003542Y005763D02*
X003543Y005763D01*
X002891Y005881D02*
X002872Y005881D01*
X002891Y006000D02*
X002768Y006000D01*
X002916Y007422D02*
X002919Y007422D01*
X002902Y007541D02*
X004107Y007541D01*
X004107Y007659D02*
X002841Y007659D01*
X002967Y007778D02*
X002669Y007778D01*
X002448Y007778D02*
X001953Y007778D01*
X002049Y007896D02*
X002871Y007896D01*
X002871Y008015D02*
X002049Y008015D01*
X002049Y008133D02*
X002871Y008133D01*
X002871Y008252D02*
X002049Y008252D01*
X002049Y008371D02*
X002871Y008371D01*
X002871Y008489D02*
X002049Y008489D01*
X002049Y008608D02*
X002871Y008608D01*
X002871Y008726D02*
X002049Y008726D01*
X002015Y008845D02*
X002905Y008845D01*
X004181Y008845D02*
X004715Y008845D01*
X004543Y008726D02*
X004456Y008726D01*
X004456Y008608D02*
X004543Y008608D01*
X005875Y009319D02*
X006039Y009319D01*
X006039Y009437D02*
X005860Y009437D01*
X005849Y009556D02*
X006039Y009556D01*
X005977Y009674D02*
X005846Y009674D01*
X009945Y011808D02*
X010526Y011808D01*
X010945Y011808D02*
X010972Y011808D01*
X007897Y005407D02*
X007718Y005407D01*
X007718Y005288D02*
X007851Y005288D01*
X007851Y005170D02*
X007718Y005170D01*
X007718Y005051D02*
X007851Y005051D01*
X007851Y004920D02*
X007851Y004644D01*
X007862Y004603D01*
X007883Y004567D01*
X007913Y004537D01*
X007949Y004516D01*
X007990Y004505D01*
X008227Y004505D01*
X008227Y004920D01*
X007851Y004920D01*
X007851Y004814D02*
X007718Y004814D01*
X007718Y004696D02*
X007851Y004696D01*
X007877Y004577D02*
X007718Y004577D01*
X008227Y004577D02*
X008347Y004577D01*
X008347Y004696D02*
X008227Y004696D01*
X008227Y004814D02*
X008347Y004814D01*
X008227Y004933D02*
X007185Y004933D01*
X008742Y003747D02*
X009256Y003747D01*
X009258Y003629D02*
X008742Y003629D01*
M02*
