G75*
G70*
%OFA0B0*%
%FSLAX24Y24*%
%IPPOS*%
%LPD*%
%AMOC8*
5,1,8,0,0,1.08239X$1,22.5*
%
%ADD10C,0.0090*%
%ADD11C,0.0100*%
%ADD12C,0.0080*%
%ADD13C,0.0060*%
%ADD14C,0.0050*%
%ADD15C,0.0020*%
D10*
X001986Y003919D02*
X002089Y003919D01*
X002141Y003971D01*
X002141Y004074D01*
X002038Y004074D01*
X002141Y004177D02*
X002089Y004229D01*
X001986Y004229D01*
X001934Y004177D01*
X001934Y003971D01*
X001986Y003919D01*
X002302Y003919D02*
X002302Y004229D01*
X002509Y003919D01*
X002509Y004229D01*
X002671Y004229D02*
X002826Y004229D01*
X002878Y004177D01*
X002878Y003971D01*
X002826Y003919D01*
X002671Y003919D01*
X002671Y004229D01*
X006934Y006719D02*
X007038Y006616D01*
X007141Y006719D01*
X007141Y006926D01*
X006934Y006926D02*
X006934Y006719D01*
X007302Y006771D02*
X007509Y006771D01*
X007406Y006874D02*
X007406Y006667D01*
X008745Y006166D02*
X008745Y006011D01*
X009055Y006011D01*
X009055Y006166D01*
X009003Y006218D01*
X008797Y006218D01*
X008745Y006166D01*
X008745Y005850D02*
X009055Y005850D01*
X008745Y005643D01*
X009055Y005643D01*
X009003Y005481D02*
X008900Y005481D01*
X008900Y005378D01*
X008797Y005481D02*
X008745Y005430D01*
X008745Y005326D01*
X008797Y005275D01*
X009003Y005275D01*
X009055Y005326D01*
X009055Y005430D01*
X009003Y005481D01*
X011455Y005342D02*
X011455Y005239D01*
X011507Y005187D01*
X011714Y005187D01*
X011765Y005239D01*
X011765Y005342D01*
X011714Y005394D01*
X011507Y005394D02*
X011455Y005342D01*
X011507Y005025D02*
X011455Y004974D01*
X011455Y004870D01*
X011507Y004819D01*
X011714Y004819D01*
X011765Y004870D01*
X011765Y004974D01*
X011714Y005025D01*
X011662Y004657D02*
X011455Y004657D01*
X011662Y004657D02*
X011765Y004554D01*
X011662Y004450D01*
X011455Y004450D01*
X023076Y006077D02*
X023128Y006025D01*
X023231Y006025D01*
X023283Y006077D01*
X023444Y006077D02*
X023444Y006180D01*
X023496Y006232D01*
X023599Y006232D01*
X023651Y006180D01*
X023651Y006077D01*
X023599Y006025D01*
X023496Y006025D01*
X023444Y006077D01*
X023076Y006077D02*
X023076Y006284D01*
X023128Y006335D01*
X023231Y006335D01*
X023283Y006284D01*
X023812Y006232D02*
X023812Y006025D01*
X023812Y006232D02*
X023968Y006232D01*
X024019Y006180D01*
X024019Y006025D01*
X024232Y006077D02*
X024284Y006025D01*
X024232Y006077D02*
X024232Y006284D01*
X024181Y006232D02*
X024284Y006232D01*
X024426Y006232D02*
X024426Y006025D01*
X024426Y006129D02*
X024530Y006232D01*
X024581Y006232D01*
X024733Y006180D02*
X024733Y006077D01*
X024785Y006025D01*
X024888Y006025D01*
X024940Y006077D01*
X024940Y006180D01*
X024888Y006232D01*
X024785Y006232D01*
X024733Y006180D01*
X025101Y006025D02*
X025205Y006025D01*
X025153Y006025D02*
X025153Y006335D01*
X025101Y006335D01*
X025347Y006335D02*
X025399Y006335D01*
X025399Y006025D01*
X025450Y006025D02*
X025347Y006025D01*
X025593Y006077D02*
X025593Y006180D01*
X025644Y006232D01*
X025748Y006232D01*
X025799Y006180D01*
X025799Y006129D01*
X025593Y006129D01*
X025593Y006077D02*
X025644Y006025D01*
X025748Y006025D01*
X025961Y006025D02*
X025961Y006232D01*
X025961Y006129D02*
X026064Y006232D01*
X026116Y006232D01*
X026619Y006232D02*
X026723Y006025D01*
X026826Y006232D01*
X026987Y006284D02*
X026987Y006077D01*
X027194Y006284D01*
X027194Y006077D01*
X027143Y006025D01*
X027039Y006025D01*
X026987Y006077D01*
X027356Y006025D02*
X027563Y006025D01*
X027459Y006025D02*
X027459Y006335D01*
X027356Y006232D01*
X027194Y006284D02*
X027143Y006335D01*
X027039Y006335D01*
X026987Y006284D01*
X026791Y006813D02*
X026636Y006916D01*
X026791Y007019D01*
X026636Y007123D02*
X026636Y006813D01*
X026475Y006813D02*
X026319Y006813D01*
X026268Y006864D01*
X026268Y006968D01*
X026319Y007019D01*
X026475Y007019D01*
X026074Y007019D02*
X026074Y006813D01*
X026022Y006813D02*
X026126Y006813D01*
X026074Y007019D02*
X026022Y007019D01*
X026074Y007123D02*
X026074Y007175D01*
X025880Y007019D02*
X025777Y007019D01*
X025828Y007071D02*
X025828Y006864D01*
X025880Y006813D01*
X025615Y006864D02*
X025564Y006813D01*
X025460Y006813D01*
X025408Y006864D01*
X025460Y006968D02*
X025564Y006968D01*
X025615Y006916D01*
X025615Y006864D01*
X025460Y006968D02*
X025408Y007019D01*
X025408Y007071D01*
X025460Y007123D01*
X025564Y007123D01*
X025615Y007071D01*
X025247Y006968D02*
X025040Y006968D01*
X024879Y007123D02*
X024672Y007123D01*
X024775Y007123D02*
X024775Y006813D01*
X024161Y006813D02*
X024058Y006813D01*
X024110Y006813D02*
X024110Y007019D01*
X024058Y007019D01*
X024110Y007123D02*
X024110Y007175D01*
X023896Y006968D02*
X023896Y006813D01*
X023896Y006968D02*
X023845Y007019D01*
X023690Y007019D01*
X023690Y006813D01*
X023548Y006813D02*
X023444Y006813D01*
X023496Y006813D02*
X023496Y007019D01*
X023444Y007019D01*
X023496Y007123D02*
X023496Y007175D01*
X023283Y007123D02*
X023179Y007019D01*
X023076Y007123D01*
X023076Y006813D01*
X023283Y006813D02*
X023283Y007123D01*
X018268Y011023D02*
X018061Y011023D01*
X017958Y011126D01*
X018061Y011229D01*
X018268Y011229D01*
X018113Y011229D02*
X018113Y011023D01*
X018216Y011391D02*
X018268Y011443D01*
X018268Y011546D01*
X018216Y011598D01*
X017958Y011598D01*
X017958Y011759D02*
X018268Y011966D01*
X018268Y011759D02*
X017958Y011966D01*
X017958Y011391D02*
X018216Y011391D01*
X012927Y011316D02*
X012617Y011316D01*
X012617Y011419D02*
X012617Y011212D01*
X012617Y011580D02*
X012927Y011787D01*
X012927Y011580D02*
X012617Y011787D01*
X007265Y011929D02*
X007058Y011929D01*
X007161Y011929D02*
X007161Y011619D01*
X006896Y011671D02*
X006845Y011619D01*
X006741Y011619D01*
X006690Y011671D01*
X006741Y011774D02*
X006845Y011774D01*
X006896Y011723D01*
X006896Y011671D01*
X006741Y011774D02*
X006690Y011826D01*
X006690Y011878D01*
X006741Y011929D01*
X006845Y011929D01*
X006896Y011878D01*
X006528Y011878D02*
X006528Y011774D01*
X006476Y011723D01*
X006321Y011723D01*
X006425Y011723D02*
X006528Y011619D01*
X006321Y011619D02*
X006321Y011929D01*
X006476Y011929D01*
X006528Y011878D01*
X029178Y011759D02*
X029178Y011914D01*
X029230Y011966D01*
X029333Y011966D01*
X029385Y011914D01*
X029385Y011759D01*
X029488Y011759D02*
X029178Y011759D01*
X029281Y011598D02*
X029488Y011598D01*
X029333Y011598D02*
X029333Y011391D01*
X029281Y011391D02*
X029178Y011494D01*
X029281Y011598D01*
X029281Y011391D02*
X029488Y011391D01*
X029437Y011229D02*
X029488Y011178D01*
X029488Y011074D01*
X029437Y011023D01*
X029230Y011023D01*
X029178Y011074D01*
X029178Y011178D01*
X029230Y011229D01*
D11*
X024290Y011295D02*
X024292Y011310D01*
X024297Y011324D01*
X024306Y011336D01*
X024318Y011346D01*
X024331Y011352D01*
X024346Y011355D01*
X024361Y011354D01*
X024376Y011349D01*
X024388Y011341D01*
X024399Y011330D01*
X024406Y011317D01*
X024410Y011303D01*
X024410Y011287D01*
X024406Y011273D01*
X024399Y011260D01*
X024388Y011249D01*
X024376Y011241D01*
X024361Y011236D01*
X024346Y011235D01*
X024331Y011238D01*
X024318Y011244D01*
X024306Y011254D01*
X024297Y011266D01*
X024292Y011280D01*
X024290Y011295D01*
X009870Y007653D02*
X009872Y007668D01*
X009877Y007682D01*
X009886Y007694D01*
X009898Y007704D01*
X009911Y007710D01*
X009926Y007713D01*
X009941Y007712D01*
X009956Y007707D01*
X009968Y007699D01*
X009979Y007688D01*
X009986Y007675D01*
X009990Y007661D01*
X009990Y007645D01*
X009986Y007631D01*
X009979Y007618D01*
X009968Y007607D01*
X009956Y007599D01*
X009941Y007594D01*
X009926Y007593D01*
X009911Y007596D01*
X009898Y007602D01*
X009886Y007612D01*
X009877Y007624D01*
X009872Y007638D01*
X009870Y007653D01*
X004467Y011138D02*
X004469Y011153D01*
X004474Y011167D01*
X004483Y011179D01*
X004495Y011189D01*
X004508Y011195D01*
X004523Y011198D01*
X004538Y011197D01*
X004553Y011192D01*
X004565Y011184D01*
X004576Y011173D01*
X004583Y011160D01*
X004587Y011146D01*
X004587Y011130D01*
X004583Y011116D01*
X004576Y011103D01*
X004565Y011092D01*
X004553Y011084D01*
X004538Y011079D01*
X004523Y011078D01*
X004508Y011081D01*
X004495Y011087D01*
X004483Y011097D01*
X004474Y011109D01*
X004469Y011123D01*
X004467Y011138D01*
X009191Y011827D02*
X009193Y011842D01*
X009198Y011856D01*
X009207Y011868D01*
X009219Y011878D01*
X009232Y011884D01*
X009247Y011887D01*
X009262Y011886D01*
X009277Y011881D01*
X009289Y011873D01*
X009300Y011862D01*
X009307Y011849D01*
X009311Y011835D01*
X009311Y011819D01*
X009307Y011805D01*
X009300Y011792D01*
X009289Y011781D01*
X009277Y011773D01*
X009262Y011768D01*
X009247Y011767D01*
X009232Y011770D01*
X009219Y011776D01*
X009207Y011786D01*
X009198Y011798D01*
X009193Y011812D01*
X009191Y011827D01*
X024250Y005183D02*
X024252Y005198D01*
X024257Y005212D01*
X024266Y005224D01*
X024278Y005234D01*
X024291Y005240D01*
X024306Y005243D01*
X024321Y005242D01*
X024336Y005237D01*
X024348Y005229D01*
X024359Y005218D01*
X024366Y005205D01*
X024370Y005191D01*
X024370Y005175D01*
X024366Y005161D01*
X024359Y005148D01*
X024348Y005137D01*
X024336Y005129D01*
X024321Y005124D01*
X024306Y005123D01*
X024291Y005126D01*
X024278Y005132D01*
X024266Y005142D01*
X024257Y005154D01*
X024252Y005168D01*
X024250Y005183D01*
X015796Y001167D02*
X015798Y001182D01*
X015803Y001196D01*
X015812Y001208D01*
X015824Y001218D01*
X015837Y001224D01*
X015852Y001227D01*
X015867Y001226D01*
X015882Y001221D01*
X015894Y001213D01*
X015905Y001202D01*
X015912Y001189D01*
X015916Y001175D01*
X015916Y001159D01*
X015912Y001145D01*
X015905Y001132D01*
X015894Y001121D01*
X015882Y001113D01*
X015867Y001108D01*
X015852Y001107D01*
X015837Y001110D01*
X015824Y001116D01*
X015812Y001126D01*
X015803Y001138D01*
X015798Y001152D01*
X015796Y001167D01*
X011160Y001394D02*
X011162Y001409D01*
X011167Y001423D01*
X011176Y001435D01*
X011188Y001445D01*
X011201Y001451D01*
X011216Y001454D01*
X011231Y001453D01*
X011246Y001448D01*
X011258Y001440D01*
X011269Y001429D01*
X011276Y001416D01*
X011280Y001402D01*
X011280Y001386D01*
X011276Y001372D01*
X011269Y001359D01*
X011258Y001348D01*
X011246Y001340D01*
X011231Y001335D01*
X011216Y001334D01*
X011201Y001337D01*
X011188Y001343D01*
X011176Y001353D01*
X011167Y001365D01*
X011162Y001379D01*
X011160Y001394D01*
X005254Y002968D02*
X005256Y002983D01*
X005261Y002997D01*
X005270Y003009D01*
X005282Y003019D01*
X005295Y003025D01*
X005310Y003028D01*
X005325Y003027D01*
X005340Y003022D01*
X005352Y003014D01*
X005363Y003003D01*
X005370Y002990D01*
X005374Y002976D01*
X005374Y002960D01*
X005370Y002946D01*
X005363Y002933D01*
X005352Y002922D01*
X005340Y002914D01*
X005325Y002909D01*
X005310Y002908D01*
X005295Y002911D01*
X005282Y002917D01*
X005270Y002927D01*
X005261Y002939D01*
X005256Y002953D01*
X005254Y002968D01*
D12*
X005480Y000827D02*
X005795Y000827D01*
X006346Y000827D02*
X006661Y000827D01*
X006031Y002205D02*
X006033Y002217D01*
X006038Y002228D01*
X006047Y002237D01*
X006058Y002242D01*
X006070Y002244D01*
X006082Y002242D01*
X006093Y002237D01*
X006102Y002228D01*
X006107Y002217D01*
X006109Y002205D01*
X006107Y002193D01*
X006102Y002182D01*
X006093Y002173D01*
X006082Y002168D01*
X006070Y002166D01*
X006058Y002168D01*
X006047Y002173D01*
X006038Y002182D01*
X006033Y002193D01*
X006031Y002205D01*
X005795Y002795D02*
X005480Y002795D01*
X006346Y002795D02*
X006661Y002795D01*
X006605Y003647D02*
X005205Y003647D01*
X005205Y006227D01*
X006605Y006227D01*
X006605Y003647D01*
X002873Y005075D02*
X002047Y005075D01*
X003858Y005350D02*
X003858Y005705D01*
X003858Y007437D02*
X003858Y007791D01*
X002873Y008067D02*
X002047Y008067D01*
X005545Y007542D02*
X007345Y007542D01*
X006095Y010992D02*
X005845Y011142D01*
X006095Y011292D01*
X006095Y010992D01*
X005545Y011442D02*
X007345Y011442D01*
X007572Y011364D02*
X007572Y012014D01*
X007574Y012031D01*
X007578Y012048D01*
X007585Y012064D01*
X007595Y012078D01*
X007608Y012091D01*
X007622Y012101D01*
X007638Y012108D01*
X007655Y012112D01*
X007672Y012114D01*
X008272Y012114D02*
X008289Y012112D01*
X008306Y012108D01*
X008322Y012101D01*
X008336Y012091D01*
X008349Y012078D01*
X008359Y012064D01*
X008366Y012048D01*
X008370Y012031D01*
X008372Y012014D01*
X008372Y011364D01*
X008370Y011347D01*
X008366Y011330D01*
X008359Y011314D01*
X008349Y011300D01*
X008336Y011287D01*
X008322Y011277D01*
X008306Y011270D01*
X008289Y011266D01*
X008272Y011264D01*
X007672Y011264D02*
X007655Y011266D01*
X007638Y011270D01*
X007622Y011277D01*
X007608Y011287D01*
X007595Y011300D01*
X007585Y011314D01*
X007578Y011330D01*
X007574Y011347D01*
X007572Y011364D01*
X011607Y011167D02*
X011607Y011817D01*
X011609Y011834D01*
X011613Y011851D01*
X011620Y011867D01*
X011630Y011881D01*
X011643Y011894D01*
X011657Y011904D01*
X011673Y011911D01*
X011690Y011915D01*
X011707Y011917D01*
X012307Y011917D02*
X012324Y011915D01*
X012341Y011911D01*
X012357Y011904D01*
X012371Y011894D01*
X012384Y011881D01*
X012394Y011867D01*
X012401Y011851D01*
X012405Y011834D01*
X012407Y011817D01*
X012407Y011167D01*
X012405Y011150D01*
X012401Y011133D01*
X012394Y011117D01*
X012384Y011103D01*
X012371Y011090D01*
X012357Y011080D01*
X012341Y011073D01*
X012324Y011069D01*
X012307Y011067D01*
X011707Y011067D02*
X011690Y011069D01*
X011673Y011073D01*
X011657Y011080D01*
X011643Y011090D01*
X011630Y011103D01*
X011620Y011117D01*
X011613Y011133D01*
X011609Y011150D01*
X011607Y011167D01*
X025629Y011468D02*
X025629Y007579D01*
X025826Y007579D02*
X027125Y007579D01*
X027125Y011468D01*
X025826Y011468D01*
X025826Y005366D02*
X027125Y005366D01*
X027125Y001476D01*
X025826Y001476D01*
X025629Y001476D02*
X025629Y005366D01*
X017283Y001512D02*
X017125Y001512D01*
X017125Y001000D01*
X016574Y001000D01*
X017125Y001000D02*
X017283Y001000D01*
X017125Y001512D02*
X016574Y001512D01*
D13*
X018622Y001571D02*
X018722Y001571D01*
X018722Y001071D01*
X022222Y001071D01*
X022222Y002771D01*
X022172Y002771D01*
X022172Y003371D01*
X022222Y003371D01*
X022222Y003921D01*
X022022Y004071D01*
X022022Y004271D01*
X022022Y004871D01*
X022022Y005071D01*
X022222Y005221D01*
X022222Y005771D01*
X021822Y005771D01*
X021722Y005771D01*
X021722Y004871D01*
X021722Y004271D01*
X021722Y001571D01*
X019222Y001571D01*
X019222Y011571D01*
X021722Y011571D01*
X021722Y009871D01*
X021722Y009271D01*
X021722Y007371D01*
X021822Y007371D01*
X022222Y007371D01*
X022222Y005771D01*
X021722Y005771D02*
X021422Y005771D01*
X021422Y007371D01*
X021722Y007371D01*
X022222Y007371D02*
X022222Y008921D01*
X022022Y009071D01*
X022022Y009271D01*
X022022Y009871D01*
X021822Y009871D01*
X021722Y009871D01*
X022022Y009871D02*
X022022Y010071D01*
X022222Y010221D01*
X022222Y012071D01*
X018722Y012071D01*
X018722Y011571D01*
X018622Y011571D01*
X018622Y011071D01*
X018722Y011071D01*
X018722Y006821D01*
X018622Y006821D01*
X018622Y006321D01*
X018722Y006321D01*
X018722Y002071D01*
X018622Y002071D01*
X018622Y001571D01*
X015951Y003512D02*
X015951Y004512D01*
X015949Y004529D01*
X015945Y004546D01*
X015938Y004562D01*
X015928Y004576D01*
X015915Y004589D01*
X015901Y004599D01*
X015885Y004606D01*
X015868Y004610D01*
X015851Y004612D01*
X015251Y004612D01*
X015234Y004610D01*
X015217Y004606D01*
X015201Y004599D01*
X015187Y004589D01*
X015174Y004576D01*
X015164Y004562D01*
X015157Y004546D01*
X015153Y004529D01*
X015151Y004512D01*
X015151Y003512D01*
X015153Y003495D01*
X015157Y003478D01*
X015164Y003462D01*
X015174Y003448D01*
X015187Y003435D01*
X015201Y003425D01*
X015217Y003418D01*
X015234Y003414D01*
X015251Y003412D01*
X015851Y003412D01*
X015868Y003414D01*
X015885Y003418D01*
X015901Y003425D01*
X015915Y003435D01*
X015928Y003448D01*
X015938Y003462D01*
X015945Y003478D01*
X015949Y003495D01*
X015951Y003512D01*
X011236Y003581D02*
X011236Y004081D01*
X010986Y004331D01*
X009486Y004331D01*
X009236Y004081D01*
X009236Y003581D01*
X009486Y003331D01*
X010986Y003331D01*
X011236Y003581D01*
X010986Y003331D02*
X011236Y003081D01*
X011236Y002581D01*
X010986Y002331D01*
X009486Y002331D01*
X009236Y002581D01*
X009236Y003081D01*
X009486Y003331D01*
X009486Y002331D02*
X009236Y002081D01*
X009236Y001581D01*
X009486Y001331D01*
X010986Y001331D01*
X011236Y001581D01*
X011236Y002081D01*
X010986Y002331D01*
X021722Y004271D02*
X021822Y004271D01*
X022022Y004271D01*
X022022Y004871D02*
X021822Y004871D01*
X021722Y004871D01*
X016930Y007356D02*
X016930Y009976D01*
X016791Y010116D01*
X014171Y010116D01*
X014171Y007356D01*
X016930Y007356D01*
X021722Y009271D02*
X021822Y009271D01*
X022022Y009271D01*
X016490Y009816D02*
X016492Y009839D01*
X016498Y009862D01*
X016507Y009883D01*
X016520Y009903D01*
X016536Y009920D01*
X016554Y009934D01*
X016574Y009945D01*
X016596Y009953D01*
X016619Y009957D01*
X016643Y009957D01*
X016666Y009953D01*
X016688Y009945D01*
X016708Y009934D01*
X016726Y009920D01*
X016742Y009903D01*
X016755Y009883D01*
X016764Y009862D01*
X016770Y009839D01*
X016772Y009816D01*
X016770Y009793D01*
X016764Y009770D01*
X016755Y009749D01*
X016742Y009729D01*
X016726Y009712D01*
X016708Y009698D01*
X016688Y009687D01*
X016666Y009679D01*
X016643Y009675D01*
X016619Y009675D01*
X016596Y009679D01*
X016574Y009687D01*
X016554Y009698D01*
X016536Y009712D01*
X016520Y009729D01*
X016507Y009749D01*
X016498Y009770D01*
X016492Y009793D01*
X016490Y009816D01*
X011236Y010061D02*
X010986Y009811D01*
X011236Y009561D01*
X011236Y009061D01*
X010986Y008811D01*
X009486Y008811D01*
X009236Y009061D01*
X009236Y009561D01*
X009486Y009811D01*
X010986Y009811D01*
X011236Y010061D02*
X011236Y010561D01*
X010986Y010811D01*
X009486Y010811D01*
X009236Y010561D01*
X009236Y010061D01*
X009486Y009811D01*
X009486Y010811D02*
X009236Y011061D01*
X009236Y011561D01*
X009486Y011811D01*
X010986Y011811D01*
X011236Y011561D01*
X011236Y011061D01*
X010986Y010811D01*
X029842Y011071D02*
X029942Y011071D01*
X029942Y006821D01*
X029842Y006821D01*
X029842Y006321D01*
X029942Y006321D01*
X029942Y002071D01*
X029842Y002071D01*
X029842Y001571D01*
X029942Y001571D01*
X029942Y001071D01*
X033442Y001071D01*
X033442Y002771D01*
X033392Y002771D01*
X033392Y003371D01*
X033442Y003371D01*
X033442Y003921D01*
X033242Y004071D01*
X033242Y004271D01*
X033242Y004871D01*
X033242Y005071D01*
X033442Y005221D01*
X033442Y005771D01*
X033042Y005771D01*
X032942Y005771D01*
X032942Y004871D01*
X032942Y004271D01*
X032942Y001571D01*
X030442Y001571D01*
X030442Y011571D01*
X032942Y011571D01*
X032942Y009871D01*
X032942Y009271D01*
X032942Y007371D01*
X033042Y007371D01*
X033442Y007371D01*
X033442Y005771D01*
X032942Y005771D02*
X032642Y005771D01*
X032642Y007371D01*
X032942Y007371D01*
X033442Y007371D02*
X033442Y008921D01*
X033242Y009071D01*
X033242Y009271D01*
X033242Y009871D01*
X033042Y009871D01*
X032942Y009871D01*
X033242Y009871D02*
X033242Y010071D01*
X033442Y010221D01*
X033442Y012071D01*
X029942Y012071D01*
X029942Y011571D01*
X029842Y011571D01*
X029842Y011071D01*
X032942Y009271D02*
X033042Y009271D01*
X033242Y009271D01*
X033242Y004871D02*
X033042Y004871D01*
X032942Y004871D01*
X032942Y004271D02*
X033042Y004271D01*
X033242Y004271D01*
D14*
X029251Y003264D02*
X028621Y003264D01*
X028621Y002004D01*
X029251Y002004D01*
X029251Y003264D01*
X030967Y002321D02*
X031042Y002396D01*
X031117Y002396D01*
X031417Y002096D01*
X031417Y002396D01*
X030967Y002321D02*
X030967Y002171D01*
X031042Y002096D01*
X031967Y002246D02*
X032117Y002096D01*
X031967Y002246D02*
X032417Y002246D01*
X032417Y002096D02*
X032417Y002396D01*
X023740Y003382D02*
X023110Y003382D01*
X023110Y004642D01*
X023740Y004642D01*
X023740Y003382D01*
X021197Y002396D02*
X021197Y002096D01*
X021197Y002246D02*
X020746Y002246D01*
X020897Y002096D01*
X020197Y002096D02*
X020197Y002396D01*
X020197Y002096D02*
X019897Y002396D01*
X019821Y002396D01*
X019746Y002321D01*
X019746Y002171D01*
X019821Y002096D01*
X011230Y005291D02*
X009261Y005291D01*
X009261Y008047D01*
X011230Y008047D01*
X011230Y005291D01*
X011712Y008736D02*
X011712Y009917D01*
X012696Y009917D01*
X012696Y008736D01*
X011712Y008736D01*
X021596Y006956D02*
X021671Y006806D01*
X021822Y006656D01*
X021822Y006881D01*
X021897Y006956D01*
X021972Y006956D01*
X022047Y006881D01*
X022047Y006731D01*
X021972Y006656D01*
X021822Y006656D01*
X022047Y006496D02*
X022047Y006196D01*
X022047Y006346D02*
X021596Y006346D01*
X021747Y006196D01*
X028621Y008106D02*
X028621Y009366D01*
X029251Y009366D01*
X029251Y008106D01*
X028621Y008106D01*
X032817Y006956D02*
X032892Y006806D01*
X033042Y006656D01*
X033042Y006881D01*
X033117Y006956D01*
X033192Y006956D01*
X033267Y006881D01*
X033267Y006731D01*
X033192Y006656D01*
X033042Y006656D01*
X033267Y006496D02*
X033267Y006196D01*
X033267Y006346D02*
X032817Y006346D01*
X032967Y006196D01*
X023740Y009484D02*
X023110Y009484D01*
X023110Y010744D01*
X023740Y010744D01*
X023740Y009484D01*
D15*
X021822Y009271D02*
X021822Y007371D01*
X021822Y005771D02*
X021822Y004871D01*
X021822Y004271D02*
X021822Y001471D01*
X019122Y001471D01*
X019122Y011671D01*
X021822Y011671D01*
X021822Y009871D01*
X030342Y011671D02*
X030342Y001471D01*
X033042Y001471D01*
X033042Y004271D01*
X033042Y004871D02*
X033042Y005771D01*
X033042Y007371D02*
X033042Y009271D01*
X033042Y009871D02*
X033042Y011671D01*
X030342Y011671D01*
M02*
