G75*
G70*
%OFA0B0*%
%FSLAX24Y24*%
%IPPOS*%
%LPD*%
%AMOC8*
5,1,8,0,0,1.08239X$1,22.5*
%
%ADD10R,0.0433X0.0394*%
%ADD11R,0.0315X0.0315*%
%ADD12C,0.0160*%
%ADD13C,0.0120*%
%ADD14OC8,0.0600*%
%ADD15OC8,0.0640*%
%ADD16OC8,0.0400*%
%ADD17C,0.0400*%
D10*
X001771Y004169D03*
X001771Y004838D03*
X001771Y005547D03*
X001771Y006216D03*
X001771Y006925D03*
X001771Y007594D03*
X001716Y008311D03*
X001716Y008980D03*
D11*
X001058Y008933D03*
X001058Y008342D03*
X001082Y007555D03*
X001082Y006964D03*
X001082Y006177D03*
X001082Y005586D03*
X001082Y004799D03*
X001082Y004209D03*
D12*
X000593Y000865D02*
X006884Y000865D01*
X006504Y001245D01*
X006461Y001348D01*
X006461Y001459D01*
X006461Y002840D01*
X006341Y002960D01*
X006341Y003167D01*
X006305Y003130D01*
X006305Y002960D01*
X006071Y002726D01*
X006461Y002726D01*
X006461Y002568D02*
X003119Y002568D01*
X003061Y002707D02*
X003187Y002404D01*
X003187Y002076D01*
X003061Y001773D01*
X002829Y001541D01*
X002526Y001415D01*
X002197Y001415D01*
X001894Y001541D01*
X001662Y001773D01*
X001537Y002076D01*
X001537Y002404D01*
X001662Y002707D01*
X001894Y002939D01*
X002197Y003065D01*
X002526Y003065D01*
X002829Y002939D01*
X003061Y002707D01*
X003042Y002726D02*
X005739Y002726D01*
X006071Y002726D01*
X005739Y002726D02*
X005505Y002960D01*
X005505Y003291D01*
X005739Y003526D01*
X005909Y003526D01*
X005995Y003612D01*
X005432Y003612D01*
X005346Y003612D01*
X005285Y003673D01*
X005285Y003673D01*
X005225Y003732D01*
X002478Y003732D01*
X002323Y003577D01*
X002220Y003535D01*
X002109Y003535D01*
X001887Y003535D01*
X001536Y003184D01*
X001433Y003141D01*
X001322Y003141D01*
X000842Y003141D01*
X000731Y003141D01*
X000628Y003184D01*
X000593Y003219D01*
X000593Y000865D01*
X000593Y000982D02*
X006767Y000982D01*
X006608Y001141D02*
X000593Y001141D01*
X000593Y001299D02*
X006481Y001299D01*
X006741Y001403D02*
X006741Y003126D01*
X006417Y002885D02*
X006229Y002885D01*
X006305Y003043D02*
X006341Y003043D01*
X005905Y003126D02*
X006397Y003618D01*
X006889Y003618D01*
X007283Y003224D01*
X007283Y002043D01*
X008070Y001256D01*
X011220Y001256D01*
X011417Y001453D01*
X011417Y002043D01*
X012007Y002634D01*
X012007Y003716D01*
X013139Y004848D01*
X013188Y004897D01*
X013188Y006571D01*
X014763Y008146D01*
X014763Y008342D01*
X014363Y008275D02*
X012998Y008275D01*
X012998Y008311D02*
X012783Y008526D01*
X012808Y008551D01*
X012826Y008533D01*
X013157Y008533D01*
X013391Y008767D01*
X013391Y009047D01*
X014294Y009047D01*
X014405Y009047D01*
X014481Y009078D01*
X014481Y008932D01*
X014481Y008866D01*
X014528Y008819D01*
X014542Y008785D01*
X014591Y008736D01*
X014363Y008508D01*
X014363Y008177D01*
X014381Y008159D01*
X013588Y007367D01*
X013588Y007524D01*
X013354Y007758D01*
X013023Y007758D01*
X012991Y007727D01*
X012868Y007850D01*
X012998Y007980D01*
X012998Y008311D01*
X012875Y008434D02*
X014363Y008434D01*
X014448Y008592D02*
X013217Y008592D01*
X013375Y008751D02*
X014576Y008751D01*
X014481Y008909D02*
X013391Y008909D01*
X012991Y008933D02*
X012795Y008933D01*
X008661Y004799D01*
X008661Y002437D01*
X009054Y002043D01*
X008654Y002047D02*
X008654Y001877D01*
X008889Y001643D01*
X009216Y001643D01*
X009216Y001615D01*
X009295Y001536D01*
X008186Y001536D01*
X007563Y002159D01*
X007563Y003169D01*
X007563Y003280D01*
X007520Y003383D01*
X007291Y003612D01*
X007531Y003612D01*
X007690Y003452D01*
X007690Y002622D01*
X007690Y002291D01*
X007751Y002230D01*
X007863Y002117D01*
X007863Y002117D01*
X007924Y002057D01*
X008256Y002057D01*
X008316Y002117D01*
X008316Y002117D01*
X008429Y002230D01*
X008450Y002251D01*
X008502Y002199D01*
X008654Y002047D01*
X008610Y002092D02*
X008291Y002092D01*
X008654Y001934D02*
X007788Y001934D01*
X007889Y002092D02*
X007630Y002092D01*
X007563Y002251D02*
X007730Y002251D01*
X007751Y002230D02*
X007751Y002230D01*
X007690Y002409D02*
X007563Y002409D01*
X007563Y002568D02*
X007690Y002568D01*
X007690Y002726D02*
X007563Y002726D01*
X007563Y002885D02*
X007690Y002885D01*
X007690Y003043D02*
X007563Y003043D01*
X007563Y003202D02*
X007690Y003202D01*
X007690Y003360D02*
X007529Y003360D01*
X007623Y003519D02*
X007384Y003519D01*
X008316Y003957D02*
X008381Y003893D01*
X008381Y004743D01*
X008381Y004855D01*
X008423Y004958D01*
X010938Y007472D01*
X009170Y007472D01*
X006339Y004640D01*
X006260Y004562D01*
X006157Y004519D01*
X002674Y004519D01*
X002447Y004292D01*
X005225Y004292D01*
X005285Y004351D01*
X005285Y004351D01*
X005346Y004412D01*
X005432Y004412D01*
X006034Y004412D01*
X006366Y004412D01*
X007296Y004412D01*
X007296Y005231D01*
X007296Y005390D01*
X007357Y005537D01*
X008729Y006910D01*
X008730Y006910D01*
X008790Y006971D01*
X009122Y006971D01*
X009183Y006910D01*
X009183Y006910D01*
X009295Y006797D01*
X009295Y006797D01*
X009356Y006736D01*
X009356Y006405D01*
X009295Y006344D01*
X009295Y006344D01*
X008096Y005145D01*
X008096Y004177D01*
X008316Y003957D01*
X008316Y003957D01*
X008279Y003995D02*
X008381Y003995D01*
X008381Y004153D02*
X008120Y004153D01*
X008096Y004312D02*
X008381Y004312D01*
X008381Y004470D02*
X008096Y004470D01*
X008096Y004629D02*
X008381Y004629D01*
X008381Y004787D02*
X008096Y004787D01*
X008096Y004946D02*
X008419Y004946D01*
X008570Y005104D02*
X008096Y005104D01*
X008214Y005263D02*
X008729Y005263D01*
X008887Y005421D02*
X008373Y005421D01*
X008531Y005580D02*
X009046Y005580D01*
X009204Y005739D02*
X008690Y005739D01*
X008848Y005897D02*
X009363Y005897D01*
X009521Y006056D02*
X009007Y006056D01*
X009165Y006214D02*
X009680Y006214D01*
X009839Y006373D02*
X009324Y006373D01*
X009356Y006531D02*
X009997Y006531D01*
X010156Y006690D02*
X009356Y006690D01*
X009244Y006848D02*
X010314Y006848D01*
X010473Y007007D02*
X008706Y007007D01*
X008668Y006848D02*
X008547Y006848D01*
X008510Y006690D02*
X008388Y006690D01*
X008351Y006531D02*
X008230Y006531D01*
X008192Y006373D02*
X008071Y006373D01*
X008034Y006214D02*
X007913Y006214D01*
X007875Y006056D02*
X007754Y006056D01*
X007717Y005897D02*
X007596Y005897D01*
X007558Y005739D02*
X007437Y005739D01*
X007400Y005580D02*
X007279Y005580D01*
X007309Y005421D02*
X007120Y005421D01*
X006962Y005263D02*
X007296Y005263D01*
X007296Y005104D02*
X006803Y005104D01*
X006644Y004946D02*
X007296Y004946D01*
X007296Y004787D02*
X006486Y004787D01*
X006327Y004629D02*
X007296Y004629D01*
X007296Y004470D02*
X002626Y004470D01*
X002467Y004312D02*
X005246Y004312D01*
X005511Y004012D02*
X002362Y004012D01*
X002165Y003815D01*
X001771Y003815D01*
X001377Y003421D01*
X000787Y003421D01*
X000688Y003520D01*
X000688Y006029D01*
X000688Y009425D01*
X000984Y009720D01*
X001377Y009720D01*
X001716Y009382D01*
X001716Y008980D01*
X002132Y008909D02*
X002869Y008909D01*
X002869Y008877D02*
X002869Y008989D01*
X002912Y009091D01*
X004191Y010371D01*
X004270Y010450D01*
X004373Y010492D01*
X008160Y010492D01*
X008064Y010588D01*
X008064Y010919D01*
X008184Y011039D01*
X008184Y011179D01*
X007905Y011458D01*
X005600Y011458D01*
X005480Y011338D01*
X005149Y011338D01*
X005034Y011453D01*
X004909Y011328D01*
X004890Y011328D01*
X005037Y011181D01*
X006308Y011181D01*
X006428Y011301D01*
X006759Y011301D01*
X006994Y011067D01*
X006994Y010736D01*
X006759Y010501D01*
X006428Y010501D01*
X006308Y010621D01*
X004976Y010621D01*
X004865Y010621D01*
X004762Y010664D01*
X004118Y011309D01*
X003948Y011309D01*
X003714Y011543D01*
X003714Y011874D01*
X003948Y012108D01*
X004279Y012108D01*
X004419Y011969D01*
X004463Y012014D01*
X004463Y012046D01*
X004463Y012158D01*
X004506Y012261D01*
X004522Y012276D01*
X000593Y012276D01*
X000593Y009726D01*
X000746Y009879D01*
X000825Y009958D01*
X000928Y010000D01*
X001322Y010000D01*
X001433Y010000D01*
X001536Y009958D01*
X001874Y009619D01*
X001953Y009540D01*
X001996Y009437D01*
X001996Y009377D01*
X002015Y009377D01*
X002132Y009260D01*
X002132Y008700D01*
X002077Y008645D01*
X002132Y008591D01*
X002132Y008031D01*
X002081Y007980D01*
X002188Y007874D01*
X002188Y007527D01*
X002239Y007650D01*
X002345Y007757D01*
X002483Y007814D01*
X002633Y007814D01*
X002772Y007757D01*
X002869Y007660D01*
X002869Y008877D01*
X002869Y008751D02*
X002132Y008751D01*
X002131Y008592D02*
X002869Y008592D01*
X002869Y008434D02*
X002132Y008434D01*
X002132Y008275D02*
X002869Y008275D01*
X002869Y008117D02*
X002132Y008117D01*
X001716Y008311D02*
X001684Y008342D01*
X001058Y008342D01*
X001322Y008008D02*
X001406Y007925D01*
X001358Y007877D01*
X001322Y007912D01*
X000968Y007912D01*
X000968Y007985D01*
X001299Y007985D01*
X001322Y008008D01*
X001372Y007958D02*
X000968Y007958D01*
X001082Y007555D02*
X001732Y007555D01*
X001771Y007594D01*
X002188Y007641D02*
X002235Y007641D01*
X002188Y007800D02*
X002449Y007800D01*
X002668Y007800D02*
X002869Y007800D01*
X002869Y007958D02*
X002103Y007958D01*
X002188Y007347D02*
X002239Y007223D01*
X002257Y007205D01*
X002187Y007205D01*
X002133Y007260D01*
X002188Y007315D01*
X002188Y007347D01*
X002188Y007324D02*
X002197Y007324D01*
X001409Y007260D02*
X001397Y007247D01*
X001385Y007260D01*
X001397Y007272D01*
X001409Y007260D01*
X001082Y006964D02*
X001082Y006374D01*
X001033Y006374D01*
X000688Y006029D01*
X001082Y006177D02*
X001082Y006374D01*
X001362Y006504D02*
X001362Y006638D01*
X001429Y006571D01*
X001362Y006504D01*
X001362Y006531D02*
X001390Y006531D01*
X001771Y006216D02*
X002499Y006216D01*
X003444Y007161D01*
X003444Y008834D01*
X004251Y009642D01*
X008464Y009642D01*
X008744Y009927D02*
X008864Y009807D01*
X008864Y009476D01*
X008798Y009410D01*
X009216Y009410D01*
X009216Y009526D01*
X009500Y009811D01*
X009216Y010095D01*
X009216Y010526D01*
X009500Y010811D01*
X009216Y011095D01*
X009216Y011526D01*
X009520Y011831D01*
X009951Y011831D01*
X009956Y011826D01*
X009956Y011967D01*
X009923Y011999D01*
X008122Y011999D01*
X008180Y011975D01*
X008701Y011454D01*
X008744Y011351D01*
X008744Y011239D01*
X008744Y011039D01*
X008864Y010919D01*
X008864Y010588D01*
X008759Y010483D01*
X008864Y010378D01*
X008864Y010047D01*
X008744Y009927D01*
X008810Y009861D02*
X009450Y009861D01*
X009392Y009702D02*
X008864Y009702D01*
X008864Y009544D02*
X009233Y009544D01*
X009554Y009130D02*
X009736Y009311D01*
X009554Y009130D02*
X007086Y009130D01*
X006905Y009311D01*
X005929Y009311D01*
X005708Y009090D01*
X005708Y008736D01*
X006299Y008146D01*
X006495Y008146D01*
X006895Y008117D02*
X009502Y008117D01*
X009442Y008177D02*
X009587Y008032D01*
X009110Y008032D01*
X008999Y008032D01*
X008896Y007989D01*
X005986Y005079D01*
X002614Y005079D01*
X002503Y005079D01*
X002400Y005036D01*
X002188Y004824D01*
X002188Y005118D01*
X002113Y005193D01*
X002188Y005267D01*
X002188Y005615D01*
X002239Y005491D01*
X002345Y005385D01*
X002483Y005327D01*
X002633Y005327D01*
X002772Y005385D01*
X002878Y005491D01*
X002936Y005630D01*
X002936Y005780D01*
X002878Y005918D01*
X002772Y006024D01*
X002723Y006044D01*
X003682Y007003D01*
X003724Y007106D01*
X003724Y007217D01*
X003724Y008719D01*
X004367Y009362D01*
X005583Y009362D01*
X005471Y009249D01*
X005428Y009146D01*
X005428Y009035D01*
X005428Y008680D01*
X005471Y008577D01*
X005549Y008499D01*
X006140Y007908D01*
X006186Y007889D01*
X006330Y007746D01*
X006661Y007746D01*
X006895Y007980D01*
X006895Y008311D01*
X006662Y008545D01*
X009479Y008545D01*
X009442Y008508D01*
X009442Y008177D01*
X009442Y008275D02*
X006895Y008275D01*
X006773Y008434D02*
X009442Y008434D01*
X009842Y008342D02*
X011220Y008342D01*
X012204Y009327D01*
X012204Y009878D01*
X013543Y009878D01*
X013779Y010114D01*
X014763Y010114D01*
X015551Y009327D01*
X015151Y009331D02*
X015035Y009446D01*
X015020Y009431D01*
X015047Y009431D01*
X015108Y009370D01*
X015108Y009370D01*
X015151Y009328D01*
X015151Y009331D01*
X015096Y009385D02*
X015093Y009385D01*
X014645Y009622D02*
X014350Y009327D01*
X012598Y009327D01*
X011023Y007752D01*
X009054Y007752D01*
X006102Y004799D01*
X002558Y004799D01*
X001929Y004169D01*
X001771Y004169D01*
X001180Y003815D02*
X001082Y003913D01*
X001082Y004209D01*
X001397Y004491D02*
X001385Y004504D01*
X001397Y004516D01*
X001409Y004504D01*
X001397Y004491D01*
X001082Y004799D02*
X001121Y004838D01*
X001771Y004838D01*
X002188Y004946D02*
X002309Y004946D01*
X002188Y005104D02*
X006011Y005104D01*
X006170Y005263D02*
X002183Y005263D01*
X002188Y005421D02*
X002308Y005421D01*
X002202Y005580D02*
X002188Y005580D01*
X001771Y005547D02*
X001732Y005586D01*
X001082Y005586D01*
X001385Y005882D02*
X001397Y005894D01*
X001409Y005882D01*
X001397Y005869D01*
X001385Y005882D01*
X002133Y005882D02*
X002187Y005936D01*
X002257Y005936D01*
X002239Y005918D01*
X002188Y005795D01*
X002188Y005827D01*
X002133Y005882D01*
X002148Y005897D02*
X002230Y005897D01*
X002735Y006056D02*
X005111Y006056D01*
X005111Y006047D02*
X005111Y005716D01*
X005172Y005655D01*
X005285Y005543D01*
X005346Y005482D01*
X005677Y005482D01*
X006280Y005482D01*
X006366Y005482D01*
X006427Y005543D01*
X006539Y005655D01*
X006539Y005655D01*
X006600Y005716D01*
X006600Y005802D01*
X006600Y005961D01*
X006600Y006047D01*
X006539Y006108D01*
X006539Y006108D01*
X006427Y006221D01*
X006427Y006221D01*
X006366Y006282D01*
X006280Y006282D01*
X005911Y006282D01*
X005911Y007045D01*
X005949Y007082D01*
X005949Y007082D01*
X006010Y007143D01*
X006010Y007229D01*
X006010Y007388D01*
X006010Y007475D01*
X005949Y007535D01*
X005949Y007535D01*
X005836Y007648D01*
X005775Y007709D01*
X005689Y007709D01*
X004939Y007709D01*
X004853Y007709D01*
X004793Y007648D01*
X004792Y007648D01*
X004680Y007535D01*
X004619Y007475D01*
X004619Y007388D01*
X004619Y007229D01*
X004619Y007143D01*
X004680Y007082D01*
X004792Y006970D01*
X004793Y006970D01*
X004853Y006909D01*
X004939Y006909D01*
X005111Y006909D01*
X005111Y006047D01*
X005111Y005897D02*
X002887Y005897D01*
X002936Y005739D02*
X005111Y005739D01*
X005172Y005655D02*
X005172Y005655D01*
X005247Y005580D02*
X002915Y005580D01*
X002809Y005421D02*
X006328Y005421D01*
X006427Y005543D02*
X006427Y005543D01*
X006464Y005580D02*
X006487Y005580D01*
X006600Y005739D02*
X006645Y005739D01*
X006600Y005897D02*
X006804Y005897D01*
X006962Y006056D02*
X006592Y006056D01*
X006433Y006214D02*
X007121Y006214D01*
X007279Y006373D02*
X005911Y006373D01*
X005911Y006531D02*
X007438Y006531D01*
X007597Y006690D02*
X005911Y006690D01*
X005911Y006848D02*
X007755Y006848D01*
X007914Y007007D02*
X005911Y007007D01*
X006010Y007165D02*
X008072Y007165D01*
X008231Y007324D02*
X006010Y007324D01*
X006002Y007483D02*
X008389Y007483D01*
X008548Y007641D02*
X005843Y007641D01*
X005836Y007648D02*
X005836Y007648D01*
X006276Y007800D02*
X003724Y007800D01*
X003724Y007958D02*
X006090Y007958D01*
X005931Y008117D02*
X003724Y008117D01*
X003724Y008275D02*
X005773Y008275D01*
X005614Y008434D02*
X003724Y008434D01*
X003724Y008592D02*
X005464Y008592D01*
X005428Y008751D02*
X003757Y008751D01*
X003915Y008909D02*
X005428Y008909D01*
X005428Y009068D02*
X004074Y009068D01*
X004232Y009227D02*
X005461Y009227D01*
X006299Y008933D02*
X006407Y008825D01*
X010915Y008825D01*
X011417Y009327D01*
X011417Y010508D01*
X011810Y010901D01*
X012007Y010901D01*
X012407Y010971D02*
X012861Y010971D01*
X012859Y010967D02*
X012859Y010856D01*
X012859Y010596D01*
X012739Y010476D01*
X012739Y010158D01*
X012604Y010158D01*
X012604Y010476D01*
X012376Y010705D01*
X012407Y010736D01*
X012407Y011067D01*
X012173Y011301D01*
X011842Y011301D01*
X011698Y011158D01*
X011659Y011142D01*
X012025Y011507D01*
X013182Y011507D01*
X013182Y011350D01*
X012902Y011070D01*
X012859Y010967D01*
X012859Y010812D02*
X012407Y010812D01*
X012427Y010653D02*
X012859Y010653D01*
X012758Y010495D02*
X012586Y010495D01*
X012604Y010336D02*
X012739Y010336D01*
X012739Y010178D02*
X012604Y010178D01*
X012204Y010311D02*
X012204Y009878D01*
X011924Y009861D02*
X011697Y009861D01*
X011697Y010019D02*
X011924Y010019D01*
X011924Y010025D02*
X011924Y009933D01*
X011924Y009822D01*
X011924Y009443D01*
X011657Y009176D01*
X011697Y009271D01*
X011697Y010392D01*
X011824Y010519D01*
X011835Y010508D01*
X011804Y010476D01*
X011804Y010145D01*
X011924Y010025D01*
X011804Y010178D02*
X011697Y010178D01*
X011697Y010336D02*
X011804Y010336D01*
X011800Y010495D02*
X011822Y010495D01*
X011176Y010659D02*
X011161Y010621D01*
X011150Y010632D01*
X011176Y010659D01*
X011174Y010653D02*
X011171Y010653D01*
X010932Y010811D02*
X011909Y011787D01*
X015117Y011787D01*
X017913Y008992D01*
X017513Y008996D02*
X017513Y008826D01*
X017520Y008819D01*
X016670Y008819D01*
X016563Y008927D01*
X016582Y008927D01*
X016817Y009161D01*
X016817Y009492D01*
X016673Y009636D01*
X016654Y009682D01*
X016575Y009761D01*
X014829Y011507D01*
X015001Y011507D01*
X017513Y008996D01*
X017513Y008909D02*
X016580Y008909D01*
X016724Y009068D02*
X017441Y009068D01*
X017282Y009227D02*
X016817Y009227D01*
X016817Y009385D02*
X017124Y009385D01*
X016965Y009544D02*
X016765Y009544D01*
X016417Y009523D02*
X016417Y009327D01*
X016417Y009523D02*
X014586Y011354D01*
X013582Y011354D01*
X013139Y010911D01*
X013139Y010311D01*
X013779Y010508D02*
X014960Y010508D01*
X016003Y009464D01*
X016003Y009090D01*
X016554Y008539D01*
X017696Y008539D01*
X018405Y007831D01*
X018005Y007835D02*
X018005Y007810D01*
X017894Y007856D01*
X017735Y007856D01*
X017588Y007796D01*
X017180Y007388D01*
X017119Y007241D01*
X017119Y007082D01*
X017119Y006540D01*
X016866Y006286D01*
X016866Y007938D01*
X016866Y008097D01*
X016805Y008244D01*
X016790Y008259D01*
X017580Y008259D01*
X018005Y007835D01*
X017881Y007958D02*
X016866Y007958D01*
X016866Y007800D02*
X017597Y007800D01*
X017433Y007641D02*
X016866Y007641D01*
X016866Y007483D02*
X017275Y007483D01*
X017814Y007457D02*
X018799Y007457D01*
X019114Y007142D01*
X019114Y006157D01*
X019684Y005586D01*
X021259Y005586D01*
X021456Y005390D01*
X021456Y004555D01*
X020972Y004071D01*
X021432Y003824D02*
X021432Y003318D01*
X021179Y003571D01*
X021432Y003824D01*
X021432Y003678D02*
X021286Y003678D01*
X021179Y003571D02*
X020765Y003571D01*
X020752Y003584D01*
X020752Y003558D01*
X020765Y003571D01*
X021179Y003571D01*
X021231Y003519D02*
X021432Y003519D01*
X021432Y003360D02*
X021389Y003360D01*
X022440Y003224D02*
X022834Y003618D01*
X029921Y003618D01*
X030905Y004602D01*
X031724Y004602D01*
X032192Y005071D01*
X032692Y005104D02*
X033461Y005104D01*
X033461Y004946D02*
X032692Y004946D01*
X032692Y004864D02*
X032692Y005278D01*
X032399Y005571D01*
X032692Y005864D01*
X032692Y006278D01*
X032679Y006291D01*
X032732Y006291D01*
X032835Y006333D01*
X033032Y006530D01*
X033111Y006609D01*
X033153Y006712D01*
X033153Y010452D01*
X033153Y010563D01*
X033111Y010666D01*
X032373Y011404D01*
X032294Y011483D01*
X032191Y011526D01*
X028631Y011526D01*
X028511Y011646D01*
X028180Y011646D01*
X027946Y011412D01*
X027946Y011080D01*
X028180Y010846D01*
X028511Y010846D01*
X028631Y010966D01*
X032019Y010966D01*
X032593Y010392D01*
X032593Y010377D01*
X032399Y010571D01*
X031985Y010571D01*
X031692Y010278D01*
X031399Y010571D01*
X030985Y010571D01*
X030692Y010278D01*
X030692Y009864D01*
X030985Y009571D01*
X031399Y009571D01*
X031692Y009864D01*
X031692Y010278D01*
X031692Y009864D01*
X031985Y009571D01*
X031692Y009278D01*
X031399Y009571D01*
X030985Y009571D01*
X030692Y009278D01*
X030692Y008864D01*
X030737Y008819D01*
X029643Y008819D01*
X027796Y010666D01*
X027717Y010745D01*
X027614Y010788D01*
X022950Y010788D01*
X022840Y010897D01*
X022840Y011067D01*
X022606Y011301D01*
X022275Y011301D01*
X022040Y011067D01*
X022040Y010736D01*
X022170Y010606D01*
X022040Y010476D01*
X022040Y010145D01*
X022170Y010016D01*
X022040Y009886D01*
X022040Y009555D01*
X022170Y009425D01*
X022060Y009315D01*
X021933Y009443D01*
X021933Y009973D01*
X021890Y010076D01*
X021811Y010154D01*
X021737Y010229D01*
X021658Y010308D01*
X021555Y010351D01*
X021399Y010351D01*
X021179Y010571D01*
X020765Y010571D01*
X020686Y010492D01*
X020630Y010548D01*
X019252Y011926D01*
X019150Y011969D01*
X019038Y011969D01*
X018001Y011969D01*
X017881Y012089D01*
X017550Y012089D01*
X017316Y011854D01*
X017316Y011523D01*
X017550Y011289D01*
X017881Y011289D01*
X018001Y011409D01*
X018978Y011409D01*
X019816Y010571D01*
X019765Y010571D01*
X019497Y010303D01*
X018903Y010897D01*
X018903Y011067D01*
X018669Y011301D01*
X018338Y011301D01*
X018103Y011067D01*
X018103Y010736D01*
X018338Y010501D01*
X018507Y010501D01*
X019085Y009923D01*
X018928Y009923D01*
X018812Y009807D01*
X018510Y010110D01*
X018510Y010280D01*
X018275Y010514D01*
X017944Y010514D01*
X017729Y010299D01*
X015753Y012276D01*
X033461Y012276D01*
X033461Y000865D01*
X020056Y000865D01*
X021311Y002120D01*
X021372Y002267D01*
X021372Y002426D01*
X021372Y002764D01*
X021432Y002824D01*
X021432Y002512D01*
X021432Y002401D01*
X021475Y002298D01*
X022040Y001732D01*
X022040Y001681D01*
X022275Y001446D01*
X022606Y001446D01*
X022840Y001681D01*
X022840Y002012D01*
X022711Y002142D01*
X022840Y002271D01*
X022840Y002602D01*
X022612Y002831D01*
X022840Y003059D01*
X022840Y003228D01*
X022950Y003338D01*
X023812Y003338D01*
X023812Y003059D01*
X024046Y002824D01*
X024216Y002824D01*
X025353Y001688D01*
X025431Y001609D01*
X025534Y001566D01*
X026092Y001566D01*
X026212Y001446D01*
X026543Y001446D01*
X026777Y001681D01*
X026777Y002012D01*
X026543Y002246D01*
X026212Y002246D01*
X026092Y002126D01*
X025706Y002126D01*
X024612Y003220D01*
X024612Y003338D01*
X029865Y003338D01*
X029976Y003338D01*
X030079Y003381D01*
X030692Y003994D01*
X030692Y003864D01*
X030985Y003571D01*
X030692Y003278D01*
X030692Y002864D01*
X030985Y002571D01*
X031399Y002571D01*
X031692Y002864D01*
X031692Y003278D01*
X031399Y003571D01*
X031692Y003864D01*
X031692Y004278D01*
X031648Y004322D01*
X031668Y004322D01*
X031737Y004322D01*
X031692Y004278D01*
X031692Y003864D01*
X031985Y003571D01*
X031692Y003278D01*
X031692Y002864D01*
X031985Y002571D01*
X032399Y002571D01*
X032692Y002864D01*
X032692Y003278D01*
X032399Y003571D01*
X032692Y003864D01*
X032692Y004278D01*
X032399Y004571D01*
X032692Y004864D01*
X032616Y004787D02*
X033461Y004787D01*
X033461Y004629D02*
X032457Y004629D01*
X032399Y004571D02*
X032088Y004571D01*
X032088Y004571D01*
X032399Y004571D01*
X032500Y004470D02*
X033461Y004470D01*
X033461Y004312D02*
X032658Y004312D01*
X032692Y004153D02*
X033461Y004153D01*
X033461Y003995D02*
X032692Y003995D01*
X032665Y003836D02*
X033461Y003836D01*
X033461Y003678D02*
X032506Y003678D01*
X032399Y003571D02*
X031985Y003571D01*
X032399Y003571D01*
X032451Y003519D02*
X033461Y003519D01*
X033461Y003360D02*
X032610Y003360D01*
X032692Y003202D02*
X033461Y003202D01*
X033461Y003043D02*
X032692Y003043D01*
X032692Y002885D02*
X033461Y002885D01*
X033461Y002726D02*
X032555Y002726D01*
X031830Y002726D02*
X031555Y002726D01*
X031692Y002885D02*
X031692Y002885D01*
X031692Y003043D02*
X031692Y003043D01*
X031692Y003202D02*
X031692Y003202D01*
X031610Y003360D02*
X031775Y003360D01*
X031933Y003519D02*
X031451Y003519D01*
X031399Y003571D02*
X030985Y003571D01*
X031399Y003571D01*
X031506Y003678D02*
X031878Y003678D01*
X031720Y003836D02*
X031665Y003836D01*
X031692Y003995D02*
X031692Y003995D01*
X031692Y004153D02*
X031692Y004153D01*
X031658Y004312D02*
X031726Y004312D01*
X030720Y003836D02*
X030535Y003836D01*
X030376Y003678D02*
X030878Y003678D01*
X030933Y003519D02*
X030218Y003519D01*
X030031Y003360D02*
X030775Y003360D01*
X030692Y003202D02*
X024630Y003202D01*
X024789Y003043D02*
X030692Y003043D01*
X030692Y002885D02*
X024947Y002885D01*
X025106Y002726D02*
X030830Y002726D01*
X033461Y002568D02*
X025264Y002568D01*
X025423Y002409D02*
X033461Y002409D01*
X033461Y002251D02*
X025581Y002251D01*
X024948Y002092D02*
X022760Y002092D01*
X022840Y001934D02*
X025107Y001934D01*
X025265Y001775D02*
X022840Y001775D01*
X022776Y001616D02*
X025424Y001616D01*
X025590Y001846D02*
X026377Y001846D01*
X026697Y002092D02*
X033461Y002092D01*
X033461Y001934D02*
X026777Y001934D01*
X026777Y001775D02*
X033461Y001775D01*
X033461Y001616D02*
X026713Y001616D01*
X026555Y001458D02*
X033461Y001458D01*
X033461Y001299D02*
X020491Y001299D01*
X020332Y001141D02*
X033461Y001141D01*
X033461Y000982D02*
X020173Y000982D01*
X020649Y001458D02*
X022263Y001458D01*
X022104Y001616D02*
X020808Y001616D01*
X020966Y001775D02*
X021998Y001775D01*
X021839Y001934D02*
X021125Y001934D01*
X021283Y002092D02*
X021680Y002092D01*
X021712Y002457D02*
X022322Y001846D01*
X022440Y001846D01*
X022618Y001458D02*
X026200Y001458D01*
X025590Y001846D02*
X024212Y003224D01*
X023812Y003202D02*
X022840Y003202D01*
X022825Y003043D02*
X023827Y003043D01*
X023986Y002885D02*
X022666Y002885D01*
X022440Y002437D02*
X022047Y002831D01*
X022047Y008342D01*
X021456Y008933D01*
X021318Y009071D01*
X020972Y009071D01*
X020472Y009132D02*
X020472Y009175D01*
X020472Y009175D01*
X020472Y009132D01*
X020472Y009132D01*
X020137Y009071D02*
X019972Y009071D01*
X020472Y009571D01*
X020472Y010311D01*
X019094Y011689D01*
X017716Y011689D01*
X017316Y011763D02*
X016266Y011763D01*
X016424Y011605D02*
X017316Y011605D01*
X017393Y011446D02*
X016583Y011446D01*
X016741Y011288D02*
X018324Y011288D01*
X018165Y011129D02*
X016900Y011129D01*
X017058Y010971D02*
X018103Y010971D01*
X018103Y010812D02*
X017217Y010812D01*
X017376Y010653D02*
X018186Y010653D01*
X018294Y010495D02*
X018514Y010495D01*
X018453Y010336D02*
X018672Y010336D01*
X018831Y010178D02*
X018510Y010178D01*
X018600Y010019D02*
X018989Y010019D01*
X018865Y009861D02*
X018759Y009861D01*
X018700Y009524D02*
X018110Y010114D01*
X017766Y010336D02*
X017693Y010336D01*
X017534Y010495D02*
X017925Y010495D01*
X018503Y010901D02*
X018503Y010901D01*
X019488Y009917D01*
X019488Y008736D01*
X019684Y008539D01*
X020196Y008539D01*
X020665Y008071D01*
X020972Y008071D01*
X020472Y007868D02*
X020472Y007864D01*
X020179Y007571D01*
X020045Y007571D01*
X020045Y007571D01*
X020179Y007571D01*
X020472Y007278D01*
X020472Y006967D01*
X020472Y006967D01*
X020472Y007278D01*
X020765Y007571D01*
X021179Y007571D01*
X021432Y007824D01*
X021432Y007318D01*
X021179Y007571D01*
X020765Y007571D01*
X020472Y007864D01*
X020472Y007868D01*
X020472Y007868D01*
X020408Y007800D02*
X020536Y007800D01*
X020694Y007641D02*
X020249Y007641D01*
X020267Y007483D02*
X020677Y007483D01*
X021267Y007483D02*
X021432Y007483D01*
X021432Y007641D02*
X021249Y007641D01*
X021408Y007800D02*
X021432Y007800D01*
X021712Y008086D02*
X021259Y008539D01*
X020669Y008539D01*
X020137Y009071D01*
X019094Y009523D02*
X019094Y008126D01*
X019972Y007248D01*
X019972Y007071D01*
X020472Y007007D02*
X020472Y007007D01*
X020472Y007165D02*
X020472Y007165D01*
X020426Y007324D02*
X020518Y007324D01*
X020972Y007071D02*
X020472Y006571D01*
X019684Y006571D01*
X019448Y006807D01*
X019448Y007319D01*
X018700Y008067D01*
X018700Y008342D01*
X018700Y009524D01*
X018306Y009327D02*
X015551Y012083D01*
X011614Y012083D01*
X010842Y011311D01*
X010736Y011311D01*
X011805Y011288D02*
X011828Y011288D01*
X011964Y011446D02*
X013182Y011446D01*
X013120Y011288D02*
X012187Y011288D01*
X012345Y011129D02*
X012961Y011129D01*
X013419Y010795D02*
X013578Y010954D01*
X013748Y010954D01*
X013868Y011074D01*
X014470Y011074D01*
X014757Y010788D01*
X014065Y010788D01*
X013945Y010908D01*
X013613Y010908D01*
X013419Y010714D01*
X013419Y010795D01*
X013436Y010812D02*
X013518Y010812D01*
X013764Y010971D02*
X014574Y010971D01*
X014732Y010812D02*
X014040Y010812D01*
X015207Y011129D02*
X015380Y011129D01*
X015221Y011288D02*
X015048Y011288D01*
X015063Y011446D02*
X014890Y011446D01*
X015366Y010971D02*
X015538Y010971D01*
X015524Y010812D02*
X015697Y010812D01*
X015683Y010653D02*
X015855Y010653D01*
X015841Y010495D02*
X016014Y010495D01*
X016000Y010336D02*
X016172Y010336D01*
X016158Y010178D02*
X016331Y010178D01*
X016317Y010019D02*
X016489Y010019D01*
X016475Y009861D02*
X016648Y009861D01*
X016634Y009702D02*
X016807Y009702D01*
X018313Y008927D02*
X018420Y008927D01*
X018420Y008398D01*
X018420Y008231D01*
X018401Y008231D01*
X018039Y008592D01*
X018078Y008592D01*
X018313Y008826D01*
X018313Y008927D01*
X018313Y008909D02*
X018420Y008909D01*
X018420Y008751D02*
X018237Y008751D01*
X018079Y008592D02*
X018420Y008592D01*
X018420Y008434D02*
X018198Y008434D01*
X018356Y008275D02*
X018420Y008275D01*
X018700Y008342D02*
X018700Y008342D01*
X019374Y008275D02*
X019472Y008275D01*
X019472Y008278D02*
X019511Y008317D01*
X019374Y008454D01*
X019374Y008242D01*
X019472Y008144D01*
X019472Y008278D01*
X019394Y008434D02*
X019374Y008434D01*
X017723Y008117D02*
X016858Y008117D01*
X015766Y008152D02*
X015754Y008152D01*
X015754Y008164D01*
X015766Y008152D01*
X015354Y008146D02*
X014960Y007752D01*
X013582Y006374D01*
X013582Y004602D01*
X012303Y003323D01*
X012303Y002535D01*
X011810Y002043D01*
X011810Y001453D01*
X011220Y000862D01*
X007283Y000862D01*
X006741Y001403D01*
X006461Y001458D02*
X002629Y001458D01*
X002905Y001616D02*
X006461Y001616D01*
X006461Y001775D02*
X003062Y001775D01*
X003128Y001934D02*
X006461Y001934D01*
X006461Y002092D02*
X003187Y002092D01*
X003187Y002251D02*
X006461Y002251D01*
X006461Y002409D02*
X003184Y002409D01*
X002883Y002885D02*
X005580Y002885D01*
X005505Y003043D02*
X002578Y003043D01*
X002145Y003043D02*
X000593Y003043D01*
X000593Y002885D02*
X001840Y002885D01*
X001681Y002726D02*
X000593Y002726D01*
X000593Y002568D02*
X001604Y002568D01*
X001539Y002409D02*
X000593Y002409D01*
X000593Y002251D02*
X001537Y002251D01*
X001537Y002092D02*
X000593Y002092D01*
X000593Y001934D02*
X001596Y001934D01*
X001661Y001775D02*
X000593Y001775D01*
X000593Y001616D02*
X001818Y001616D01*
X002094Y001458D02*
X000593Y001458D01*
X000593Y003202D02*
X000610Y003202D01*
X001554Y003202D02*
X005505Y003202D01*
X005574Y003360D02*
X001713Y003360D01*
X001871Y003519D02*
X005732Y003519D01*
X005280Y003678D02*
X002423Y003678D01*
X001358Y005121D02*
X001322Y005156D01*
X000968Y005156D01*
X000968Y005229D01*
X001322Y005229D01*
X001358Y005264D01*
X001429Y005193D01*
X001358Y005121D01*
X001356Y005263D02*
X001359Y005263D01*
X002893Y006214D02*
X005111Y006214D01*
X005111Y006373D02*
X003052Y006373D01*
X003210Y006531D02*
X005111Y006531D01*
X005111Y006690D02*
X003369Y006690D01*
X003527Y006848D02*
X005111Y006848D01*
X004755Y007007D02*
X003683Y007007D01*
X003724Y007165D02*
X004619Y007165D01*
X004680Y007082D02*
X004680Y007082D01*
X004619Y007324D02*
X003724Y007324D01*
X003724Y007483D02*
X004627Y007483D01*
X004680Y007535D02*
X004680Y007535D01*
X004786Y007641D02*
X003724Y007641D01*
X003149Y007358D02*
X003149Y008933D01*
X004429Y010212D01*
X008464Y010212D01*
X008864Y010178D02*
X009216Y010178D01*
X009216Y010336D02*
X008864Y010336D01*
X008771Y010495D02*
X009216Y010495D01*
X009343Y010653D02*
X008864Y010653D01*
X008864Y010812D02*
X009499Y010812D01*
X009341Y010971D02*
X008813Y010971D01*
X008464Y010754D02*
X008464Y011295D01*
X008021Y011738D01*
X005314Y011738D01*
X004743Y011728D02*
X004743Y012102D01*
X004921Y012279D01*
X010039Y012279D01*
X010236Y012083D01*
X010236Y010811D01*
X010932Y010811D01*
X010236Y010811D02*
X009736Y010311D01*
X010179Y010019D02*
X010292Y010019D01*
X010236Y010076D02*
X010500Y009811D01*
X010236Y009546D01*
X009971Y009811D01*
X010236Y010076D01*
X010450Y009861D02*
X010021Y009861D01*
X010080Y009702D02*
X010391Y009702D01*
X010971Y009811D02*
X011137Y009977D01*
X011137Y009645D01*
X010971Y009811D01*
X011021Y009861D02*
X011137Y009861D01*
X011137Y009702D02*
X011080Y009702D01*
X011697Y009702D02*
X011924Y009702D01*
X012484Y009598D02*
X012484Y009583D01*
X012521Y009598D01*
X012484Y009598D01*
X011924Y009544D02*
X011697Y009544D01*
X011697Y009385D02*
X011867Y009385D01*
X011708Y009227D02*
X011678Y009227D01*
X013619Y009607D02*
X013701Y009640D01*
X013780Y009719D01*
X013895Y009834D01*
X014292Y009834D01*
X014245Y009788D01*
X014245Y009618D01*
X014234Y009607D01*
X013619Y009607D01*
X013763Y009702D02*
X014245Y009702D01*
X014457Y009068D02*
X014481Y009068D01*
X014338Y008117D02*
X012998Y008117D01*
X012598Y008146D02*
X009054Y004602D01*
X009054Y002831D01*
X009310Y002521D02*
X009500Y002331D01*
X009416Y002247D01*
X009226Y002437D01*
X009310Y002521D01*
X009254Y002409D02*
X009421Y002409D01*
X009413Y002251D02*
X009420Y002251D01*
X009971Y002331D02*
X010236Y002595D01*
X010500Y002331D01*
X010236Y002066D01*
X009971Y002331D01*
X010049Y002409D02*
X010421Y002409D01*
X010420Y002251D02*
X010051Y002251D01*
X010209Y002092D02*
X010262Y002092D01*
X010736Y001831D02*
X011712Y002807D01*
X011712Y005488D01*
X013188Y006964D01*
X013188Y007358D01*
X012598Y007555D02*
X010236Y005193D01*
X010236Y003331D01*
X009736Y002831D01*
X010208Y002568D02*
X010263Y002568D01*
X010736Y002831D02*
X011417Y003512D01*
X011417Y005783D01*
X012598Y006964D01*
X013588Y007483D02*
X013704Y007483D01*
X013863Y007641D02*
X013471Y007641D01*
X014021Y007800D02*
X012919Y007800D01*
X012976Y007958D02*
X014180Y007958D01*
X015354Y007752D02*
X015747Y007752D01*
X015354Y007752D02*
X014369Y006768D01*
X014369Y005508D01*
X015157Y004720D01*
X015157Y003146D01*
X015437Y003431D02*
X015557Y003311D01*
X015557Y002980D01*
X015322Y002746D01*
X014991Y002746D01*
X014812Y002924D01*
X014614Y002726D01*
X014283Y002726D01*
X014182Y002826D01*
X013100Y002826D01*
X012980Y002706D01*
X012649Y002706D01*
X012582Y002772D01*
X012582Y002591D01*
X012582Y002480D01*
X012540Y002377D01*
X012090Y001927D01*
X012090Y001508D01*
X012090Y001459D01*
X012124Y001459D01*
X017050Y001459D01*
X017050Y002537D01*
X016239Y003348D01*
X016239Y003348D01*
X016127Y003460D01*
X016066Y003607D01*
X016066Y004112D01*
X015437Y004741D01*
X015437Y004665D01*
X015437Y003431D01*
X015437Y003519D02*
X016102Y003519D01*
X016227Y003360D02*
X015508Y003360D01*
X015557Y003202D02*
X016385Y003202D01*
X016544Y003043D02*
X015557Y003043D01*
X015462Y002885D02*
X016702Y002885D01*
X016861Y002726D02*
X014614Y002726D01*
X014282Y002726D02*
X013000Y002726D01*
X012629Y002726D02*
X012582Y002726D01*
X012582Y002568D02*
X017019Y002568D01*
X017050Y002409D02*
X012553Y002409D01*
X012414Y002251D02*
X017050Y002251D01*
X017050Y002092D02*
X012255Y002092D01*
X012097Y001934D02*
X017050Y001934D01*
X017050Y001775D02*
X012090Y001775D01*
X012090Y001616D02*
X017050Y001616D01*
X018110Y001649D02*
X018110Y001649D01*
X018110Y002831D01*
X018503Y003224D01*
X018503Y004012D01*
X018306Y004209D01*
X018700Y004602D01*
X018700Y005390D01*
X018700Y005390D01*
X018700Y006964D01*
X018420Y006679D02*
X018420Y005445D01*
X018420Y004718D01*
X018411Y004709D01*
X018411Y004886D01*
X018291Y005006D01*
X018291Y006580D01*
X018405Y006694D01*
X018420Y006679D01*
X018409Y006690D02*
X018401Y006690D01*
X018110Y006964D02*
X018011Y006866D01*
X018011Y004720D01*
X017731Y005006D02*
X017621Y004896D01*
X017491Y005027D01*
X017388Y005069D01*
X017313Y005069D01*
X017193Y005189D01*
X016866Y005189D01*
X016866Y005383D01*
X017008Y005383D01*
X017155Y005444D01*
X017268Y005557D01*
X017731Y006020D01*
X017731Y005006D01*
X017671Y004946D02*
X017571Y004946D01*
X017731Y005104D02*
X017277Y005104D01*
X017332Y004789D02*
X017027Y004789D01*
X017332Y004789D02*
X017913Y004209D01*
X018306Y004209D01*
X018702Y004208D02*
X018741Y004170D01*
X018783Y004067D01*
X018783Y004018D01*
X019011Y004018D01*
X019011Y004454D01*
X018962Y004503D01*
X018937Y004444D01*
X018859Y004365D01*
X018702Y004208D01*
X018748Y004153D02*
X019011Y004153D01*
X019011Y004312D02*
X018806Y004312D01*
X018948Y004470D02*
X018995Y004470D01*
X019571Y004470D02*
X019664Y004470D01*
X019571Y004377D02*
X019765Y004571D01*
X020179Y004571D01*
X020192Y004584D01*
X020192Y004558D01*
X020179Y004571D01*
X019765Y004571D01*
X019632Y004704D01*
X019632Y004633D01*
X019571Y004572D01*
X019571Y004377D01*
X019627Y004629D02*
X019707Y004629D01*
X019291Y004740D02*
X019232Y004799D01*
X019291Y004740D02*
X019291Y003752D01*
X019972Y003071D01*
X019291Y003224D02*
X018897Y003618D01*
X018901Y003218D02*
X019011Y003108D01*
X019011Y002919D01*
X018891Y002799D01*
X018891Y002468D01*
X019036Y002323D01*
X018868Y002323D01*
X018748Y002443D01*
X018416Y002443D01*
X018390Y002416D01*
X018390Y002545D01*
X018510Y002665D01*
X018510Y002835D01*
X018741Y003066D01*
X018783Y003169D01*
X018783Y003218D01*
X018901Y003218D01*
X018917Y003202D02*
X018783Y003202D01*
X018718Y003043D02*
X019011Y003043D01*
X018976Y002885D02*
X018560Y002885D01*
X018110Y002831D02*
X018110Y002831D01*
X018510Y002726D02*
X018891Y002726D01*
X018891Y002568D02*
X018412Y002568D01*
X018782Y002409D02*
X018950Y002409D01*
X019291Y002634D02*
X019291Y003224D01*
X019868Y003571D02*
X020179Y003571D01*
X020192Y003584D01*
X020192Y003558D01*
X020179Y003571D01*
X019868Y003571D01*
X019868Y003571D01*
X017744Y003981D02*
X017686Y003957D01*
X017574Y003845D01*
X017224Y003495D01*
X017107Y003612D01*
X017193Y003612D01*
X017427Y003846D01*
X017427Y004177D01*
X017204Y004400D01*
X017264Y004461D01*
X017675Y004050D01*
X017744Y003981D01*
X017731Y003995D02*
X017427Y003995D01*
X017427Y004153D02*
X017572Y004153D01*
X017414Y004312D02*
X017292Y004312D01*
X017417Y003836D02*
X017565Y003836D01*
X017407Y003678D02*
X017258Y003678D01*
X017248Y003519D02*
X017199Y003519D01*
X016066Y003678D02*
X015437Y003678D01*
X015437Y003836D02*
X016066Y003836D01*
X016066Y003995D02*
X015437Y003995D01*
X015437Y004153D02*
X016024Y004153D01*
X015866Y004312D02*
X015437Y004312D01*
X015437Y004470D02*
X015707Y004470D01*
X015549Y004629D02*
X015437Y004629D01*
X014877Y004604D02*
X014877Y003431D01*
X014793Y003347D01*
X014614Y003526D01*
X014405Y003526D01*
X014374Y003557D01*
X014374Y004533D01*
X014494Y004653D01*
X014494Y004984D01*
X014259Y005219D01*
X013928Y005219D01*
X013862Y005152D01*
X013862Y006258D01*
X014089Y006485D01*
X014089Y005452D01*
X014132Y005349D01*
X014211Y005270D01*
X014877Y004604D01*
X014852Y004629D02*
X014470Y004629D01*
X014494Y004787D02*
X014694Y004787D01*
X014535Y004946D02*
X014494Y004946D01*
X014377Y005104D02*
X014374Y005104D01*
X014218Y005263D02*
X013862Y005263D01*
X013862Y005421D02*
X014102Y005421D01*
X014089Y005580D02*
X013862Y005580D01*
X013862Y005739D02*
X014089Y005739D01*
X014089Y005897D02*
X013862Y005897D01*
X013862Y006056D02*
X014089Y006056D01*
X014089Y006214D02*
X013862Y006214D01*
X013977Y006373D02*
X014089Y006373D01*
X014649Y006034D02*
X014954Y005729D01*
X014954Y005469D01*
X014954Y005319D01*
X014649Y005624D01*
X014649Y006034D01*
X014649Y005897D02*
X014786Y005897D01*
X014649Y005739D02*
X014944Y005739D01*
X014954Y005580D02*
X014693Y005580D01*
X014852Y005421D02*
X014954Y005421D01*
X015754Y005555D02*
X015754Y005974D01*
X015693Y006121D01*
X015580Y006234D01*
X014990Y006824D01*
X014990Y006824D01*
X014929Y006885D01*
X014883Y006885D01*
X015466Y007468D01*
X015582Y007352D01*
X015913Y007352D01*
X016066Y007505D01*
X016066Y005704D01*
X016066Y005243D01*
X015754Y005555D01*
X015754Y005580D02*
X016066Y005580D01*
X016066Y005421D02*
X015887Y005421D01*
X016046Y005263D02*
X016066Y005263D01*
X016866Y005263D02*
X017731Y005263D01*
X017731Y005421D02*
X017100Y005421D01*
X017291Y005580D02*
X017731Y005580D01*
X017731Y005739D02*
X017449Y005739D01*
X017608Y005897D02*
X017731Y005897D01*
X018291Y005897D02*
X018420Y005897D01*
X018420Y006056D02*
X018291Y006056D01*
X018291Y006214D02*
X018420Y006214D01*
X018420Y006373D02*
X018291Y006373D01*
X018291Y006531D02*
X018420Y006531D01*
X019394Y006466D02*
X019394Y006273D01*
X019472Y006195D01*
X019472Y006278D01*
X019527Y006333D01*
X019526Y006333D01*
X019447Y006412D01*
X019394Y006466D01*
X019394Y006373D02*
X019486Y006373D01*
X019472Y006214D02*
X019453Y006214D01*
X018980Y005895D02*
X019526Y005349D01*
X019538Y005344D01*
X019472Y005278D01*
X019472Y005124D01*
X019397Y005199D01*
X019066Y005199D01*
X018980Y005113D01*
X018980Y005334D01*
X018980Y005334D01*
X018980Y005895D01*
X018980Y005739D02*
X019136Y005739D01*
X018980Y005580D02*
X019295Y005580D01*
X019453Y005421D02*
X018980Y005421D01*
X018980Y005263D02*
X019472Y005263D01*
X020443Y005306D02*
X020501Y005306D01*
X020472Y005278D01*
X020472Y004967D01*
X020472Y004967D01*
X020472Y005278D01*
X020443Y005306D01*
X020472Y005263D02*
X020472Y005263D01*
X020472Y005104D02*
X020472Y005104D01*
X020972Y005071D02*
X020472Y004571D01*
X020472Y002634D01*
X019881Y002043D01*
X018582Y002043D01*
X018868Y001763D02*
X019823Y001763D01*
X019519Y001459D01*
X018485Y001459D01*
X018510Y001484D01*
X018510Y001643D01*
X018748Y001643D01*
X018868Y001763D01*
X018510Y001616D02*
X019676Y001616D01*
X019765Y002323D02*
X019546Y002323D01*
X019691Y002468D01*
X019691Y002645D01*
X019765Y002571D01*
X020013Y002571D01*
X019765Y002323D01*
X019851Y002409D02*
X019632Y002409D01*
X019691Y002568D02*
X020010Y002568D01*
X021372Y002568D02*
X021432Y002568D01*
X021432Y002726D02*
X021372Y002726D01*
X021372Y002409D02*
X021432Y002409D01*
X021365Y002251D02*
X021522Y002251D01*
X021712Y002457D02*
X021712Y008086D01*
X022720Y008117D02*
X024129Y008117D01*
X024129Y008037D02*
X024009Y007917D01*
X024009Y007586D01*
X024243Y007352D01*
X024574Y007352D01*
X024809Y007586D01*
X024809Y007917D01*
X024689Y008037D01*
X024689Y009185D01*
X024646Y009288D01*
X024612Y009323D01*
X024612Y009440D01*
X026458Y009440D01*
X028503Y007396D01*
X028182Y007396D01*
X027879Y007270D01*
X027646Y007038D01*
X027521Y006735D01*
X027521Y006407D01*
X027646Y006103D01*
X027879Y005871D01*
X028182Y005746D01*
X028497Y005746D01*
X028322Y005571D01*
X028153Y005571D01*
X028033Y005451D01*
X022972Y005451D01*
X022840Y005582D01*
X022840Y005752D01*
X022720Y005872D01*
X022720Y008595D01*
X022678Y008698D01*
X022626Y008750D01*
X022840Y008964D01*
X022840Y009134D01*
X023147Y009440D01*
X023812Y009440D01*
X023812Y009161D01*
X024046Y008927D01*
X024129Y008927D01*
X024129Y008037D01*
X024050Y007958D02*
X022720Y007958D01*
X022720Y007800D02*
X024009Y007800D01*
X024009Y007641D02*
X022720Y007641D01*
X022720Y007483D02*
X024112Y007483D01*
X024409Y007752D02*
X024409Y009130D01*
X024212Y009327D01*
X024612Y009385D02*
X026513Y009385D01*
X026672Y009227D02*
X024672Y009227D01*
X024689Y009068D02*
X026831Y009068D01*
X026989Y008909D02*
X024689Y008909D01*
X024129Y008909D02*
X022786Y008909D01*
X022840Y009068D02*
X023905Y009068D01*
X023812Y009227D02*
X022933Y009227D01*
X023092Y009385D02*
X023812Y009385D01*
X024212Y009720D02*
X023031Y009720D01*
X022440Y009130D01*
X022130Y009385D02*
X021990Y009385D01*
X021933Y009544D02*
X022051Y009544D01*
X022040Y009702D02*
X021933Y009702D01*
X021933Y009861D02*
X022040Y009861D01*
X021914Y010019D02*
X022166Y010019D01*
X022040Y010178D02*
X021788Y010178D01*
X021811Y010154D02*
X021811Y010154D01*
X021737Y010229D02*
X021737Y010229D01*
X021590Y010336D02*
X022040Y010336D01*
X022440Y010311D02*
X022539Y010212D01*
X023425Y010212D01*
X023572Y010212D01*
X027263Y010212D01*
X029405Y008071D01*
X031192Y008071D01*
X031692Y008117D02*
X031692Y008117D01*
X031692Y008259D02*
X031692Y007864D01*
X031692Y008259D01*
X031692Y008259D01*
X031889Y008539D02*
X029527Y008539D01*
X027558Y010508D01*
X022834Y010508D01*
X022440Y010901D01*
X022040Y010971D02*
X020208Y010971D01*
X020367Y010812D02*
X022040Y010812D01*
X022123Y010653D02*
X020525Y010653D01*
X020630Y010548D02*
X020630Y010548D01*
X020684Y010495D02*
X020689Y010495D01*
X021255Y010495D02*
X022059Y010495D01*
X022926Y010812D02*
X032173Y010812D01*
X032332Y010653D02*
X027809Y010653D01*
X027967Y010495D02*
X030909Y010495D01*
X030751Y010336D02*
X028126Y010336D01*
X028284Y010178D02*
X030692Y010178D01*
X030692Y010019D02*
X028443Y010019D01*
X028601Y009861D02*
X030695Y009861D01*
X030854Y009702D02*
X028760Y009702D01*
X028918Y009544D02*
X030958Y009544D01*
X030800Y009385D02*
X029077Y009385D01*
X029236Y009227D02*
X030692Y009227D01*
X030692Y009068D02*
X029394Y009068D01*
X029553Y008909D02*
X030692Y008909D01*
X031648Y008819D02*
X031692Y008864D01*
X031692Y009278D01*
X031692Y008864D01*
X031737Y008819D01*
X031648Y008819D01*
X031692Y008909D02*
X031692Y008909D01*
X031692Y009068D02*
X031692Y009068D01*
X031692Y009227D02*
X031692Y009227D01*
X031585Y009385D02*
X031800Y009385D01*
X031958Y009544D02*
X031426Y009544D01*
X031531Y009702D02*
X031854Y009702D01*
X031985Y009571D02*
X032399Y009571D01*
X032593Y009765D01*
X032593Y009377D01*
X032399Y009571D01*
X031985Y009571D01*
X032426Y009544D02*
X032593Y009544D01*
X032585Y009385D02*
X032593Y009385D01*
X033153Y009385D02*
X033461Y009385D01*
X033461Y009227D02*
X033153Y009227D01*
X033153Y009068D02*
X033461Y009068D01*
X033461Y008909D02*
X033153Y008909D01*
X033153Y008751D02*
X033461Y008751D01*
X033461Y008592D02*
X033153Y008592D01*
X033153Y008434D02*
X033461Y008434D01*
X033461Y008275D02*
X033153Y008275D01*
X033153Y008117D02*
X033461Y008117D01*
X033461Y007958D02*
X033153Y007958D01*
X033153Y007800D02*
X033461Y007800D01*
X033461Y007641D02*
X033153Y007641D01*
X033153Y007483D02*
X033461Y007483D01*
X033461Y007324D02*
X033153Y007324D01*
X033153Y007165D02*
X033461Y007165D01*
X033461Y007007D02*
X033153Y007007D01*
X033153Y006848D02*
X033461Y006848D01*
X033461Y006690D02*
X033144Y006690D01*
X032873Y006768D02*
X032873Y010508D01*
X032135Y011246D01*
X028346Y011246D01*
X027946Y011288D02*
X022620Y011288D01*
X022778Y011129D02*
X027946Y011129D01*
X028056Y010971D02*
X022840Y010971D01*
X022102Y011129D02*
X020049Y011129D01*
X019891Y011288D02*
X022261Y011288D01*
X019732Y011446D02*
X027980Y011446D01*
X028139Y011605D02*
X019574Y011605D01*
X019415Y011763D02*
X033461Y011763D01*
X033461Y011605D02*
X028553Y011605D01*
X031475Y010495D02*
X031909Y010495D01*
X032475Y010495D02*
X032490Y010495D01*
X033116Y010653D02*
X033461Y010653D01*
X033461Y010495D02*
X033153Y010495D01*
X033153Y010336D02*
X033461Y010336D01*
X033461Y010178D02*
X033153Y010178D01*
X033153Y010019D02*
X033461Y010019D01*
X033461Y009861D02*
X033153Y009861D01*
X033153Y009702D02*
X033461Y009702D01*
X033461Y009544D02*
X033153Y009544D01*
X032593Y009702D02*
X032531Y009702D01*
X031695Y009861D02*
X031689Y009861D01*
X031692Y010019D02*
X031692Y010019D01*
X031692Y010178D02*
X031692Y010178D01*
X031634Y010336D02*
X031751Y010336D01*
X032965Y010812D02*
X033461Y010812D01*
X033461Y010971D02*
X032806Y010971D01*
X032648Y011129D02*
X033461Y011129D01*
X033461Y011288D02*
X032489Y011288D01*
X032331Y011446D02*
X033461Y011446D01*
X033461Y011922D02*
X019257Y011922D01*
X017890Y012080D02*
X033461Y012080D01*
X033461Y012239D02*
X015790Y012239D01*
X015949Y012080D02*
X017542Y012080D01*
X017383Y011922D02*
X016107Y011922D01*
X018683Y011288D02*
X019099Y011288D01*
X019258Y011129D02*
X018841Y011129D01*
X018903Y010971D02*
X019416Y010971D01*
X019575Y010812D02*
X018989Y010812D01*
X019147Y010653D02*
X019733Y010653D01*
X019689Y010495D02*
X019306Y010495D01*
X019464Y010336D02*
X019530Y010336D01*
X020972Y010071D02*
X021499Y010071D01*
X021653Y009917D01*
X021653Y009327D01*
X022440Y008539D01*
X022440Y005586D01*
X022856Y005171D01*
X028318Y005171D01*
X029718Y006571D01*
X032677Y006571D01*
X032873Y006768D01*
X033033Y006531D02*
X033461Y006531D01*
X033461Y006373D02*
X032875Y006373D01*
X032692Y006214D02*
X033461Y006214D01*
X033461Y006056D02*
X032692Y006056D01*
X032692Y005897D02*
X033461Y005897D01*
X033461Y005739D02*
X032567Y005739D01*
X032409Y005580D02*
X033461Y005580D01*
X033461Y005421D02*
X032549Y005421D01*
X032399Y005571D02*
X032269Y005571D01*
X032269Y005571D01*
X032399Y005571D01*
X032192Y005890D02*
X031889Y005586D01*
X030905Y005586D01*
X029527Y004209D01*
X022637Y004209D01*
X022440Y004405D01*
X022932Y004504D02*
X029429Y004504D01*
X030995Y006071D01*
X031192Y006071D01*
X031692Y006056D02*
X031692Y006056D01*
X031692Y006214D02*
X031692Y006214D01*
X031692Y006278D02*
X031692Y005866D01*
X031692Y005866D01*
X031692Y006278D01*
X031679Y006291D01*
X031705Y006291D01*
X031692Y006278D01*
X031692Y005897D02*
X031692Y005897D01*
X032192Y005890D02*
X032192Y006071D01*
X030692Y006164D02*
X029313Y004784D01*
X028496Y004784D01*
X028718Y005005D01*
X028718Y005175D01*
X029834Y006291D01*
X030705Y006291D01*
X030692Y006278D01*
X030692Y006164D01*
X030692Y006214D02*
X029757Y006214D01*
X029599Y006056D02*
X030584Y006056D01*
X030426Y005897D02*
X029440Y005897D01*
X029282Y005739D02*
X030267Y005739D01*
X030109Y005580D02*
X029123Y005580D01*
X028965Y005421D02*
X029950Y005421D01*
X029792Y005263D02*
X028806Y005263D01*
X028718Y005104D02*
X029633Y005104D01*
X029475Y004946D02*
X028659Y004946D01*
X028500Y004787D02*
X029316Y004787D01*
X028140Y004784D02*
X023048Y004784D01*
X022941Y004891D01*
X028033Y004891D01*
X028140Y004784D01*
X028136Y004787D02*
X023045Y004787D01*
X022932Y004504D02*
X022440Y004996D01*
X022843Y005580D02*
X028331Y005580D01*
X028490Y005739D02*
X022840Y005739D01*
X022720Y005897D02*
X027853Y005897D01*
X027694Y006056D02*
X022720Y006056D01*
X022720Y006214D02*
X025623Y006214D01*
X025666Y006186D02*
X025666Y006186D01*
X025314Y006416D01*
X025314Y006416D01*
X025314Y006416D01*
X025055Y006749D01*
X025055Y006749D01*
X024918Y007147D01*
X024918Y007147D01*
X024918Y007260D01*
X024900Y007302D01*
X024900Y007358D01*
X024900Y007513D01*
X024900Y007513D01*
X024918Y007555D01*
X024918Y007569D01*
X024918Y007569D01*
X025055Y007967D01*
X025055Y007967D01*
X025314Y008300D01*
X025314Y008300D01*
X025666Y008530D01*
X025666Y008530D01*
X026075Y008634D01*
X026075Y008634D01*
X026495Y008599D01*
X026495Y008599D01*
X026881Y008430D01*
X026881Y008430D01*
X027191Y008144D01*
X027191Y008144D01*
X027391Y007774D01*
X027445Y007451D01*
X027460Y007414D01*
X027460Y007358D01*
X027460Y007203D01*
X027460Y007203D01*
X027417Y007098D01*
X027391Y006943D01*
X027391Y006942D01*
X027191Y006572D01*
X027191Y006572D01*
X026881Y006287D01*
X026881Y006287D01*
X026495Y006117D01*
X026495Y006117D01*
X026075Y006082D01*
X026075Y006082D01*
X025666Y006186D01*
X025380Y006373D02*
X022720Y006373D01*
X022720Y006531D02*
X025224Y006531D01*
X025101Y006690D02*
X022720Y006690D01*
X022720Y006848D02*
X025021Y006848D01*
X024966Y007007D02*
X022720Y007007D01*
X022720Y007165D02*
X024918Y007165D01*
X024900Y007324D02*
X022720Y007324D01*
X021432Y007324D02*
X021426Y007324D01*
X021432Y006824D02*
X021432Y006318D01*
X021179Y006571D01*
X020868Y006571D01*
X020868Y006571D01*
X021179Y006571D01*
X021432Y006824D01*
X021432Y006690D02*
X021298Y006690D01*
X021218Y006531D02*
X021432Y006531D01*
X021432Y006373D02*
X021377Y006373D01*
X020485Y006291D02*
X020472Y006278D01*
X020459Y006291D01*
X020485Y006291D01*
X020472Y006278D02*
X020472Y005866D01*
X020472Y006278D01*
X020472Y006214D02*
X020472Y006214D01*
X020472Y006056D02*
X020472Y006056D01*
X020472Y005897D02*
X020472Y005897D01*
X020472Y005866D02*
X020472Y005866D01*
X021425Y005817D02*
X021432Y005810D01*
X021432Y005824D01*
X021425Y005817D01*
X018420Y005739D02*
X018291Y005739D01*
X018291Y005580D02*
X018420Y005580D01*
X018420Y005445D02*
X018420Y005445D01*
X018420Y005421D02*
X018291Y005421D01*
X018291Y005263D02*
X018420Y005263D01*
X018420Y005104D02*
X018291Y005104D01*
X018351Y004946D02*
X018420Y004946D01*
X018411Y004787D02*
X018420Y004787D01*
X020868Y004571D02*
X020868Y004571D01*
X021076Y004571D01*
X021076Y004571D01*
X020868Y004571D01*
X022440Y003815D02*
X022539Y003913D01*
X029625Y003913D01*
X030783Y005071D01*
X031192Y005071D01*
X031692Y005104D02*
X031692Y005104D01*
X031692Y004967D02*
X031692Y004967D01*
X031692Y005278D01*
X031692Y004967D01*
X031692Y005263D02*
X031692Y005263D01*
X031692Y005278D02*
X031721Y005306D01*
X031664Y005306D01*
X031692Y005278D01*
X032692Y005263D02*
X033461Y005263D01*
X029542Y006791D02*
X029171Y006420D01*
X029171Y006735D01*
X029143Y006801D01*
X029168Y006791D01*
X029279Y006791D01*
X029542Y006791D01*
X029441Y006690D02*
X029171Y006690D01*
X029171Y006531D02*
X029283Y006531D01*
X029224Y007071D02*
X026574Y009720D01*
X024409Y009720D01*
X024212Y009720D01*
X023818Y009966D02*
X023621Y009966D01*
X022686Y009966D01*
X022440Y009720D01*
X021373Y009702D02*
X021310Y009702D01*
X021373Y009765D02*
X021179Y009571D01*
X020765Y009571D01*
X020752Y009584D01*
X020752Y009558D01*
X020765Y009571D01*
X021179Y009571D01*
X021373Y009377D01*
X021373Y009382D01*
X021373Y009765D01*
X021373Y009544D02*
X021206Y009544D01*
X021364Y009385D02*
X021373Y009385D01*
X020076Y009571D02*
X019767Y009571D01*
X019767Y009571D01*
X020076Y009571D01*
X020076Y009571D01*
X022627Y008751D02*
X024129Y008751D01*
X024129Y008592D02*
X022720Y008592D01*
X022720Y008434D02*
X024129Y008434D01*
X024129Y008275D02*
X022720Y008275D01*
X024689Y008275D02*
X025294Y008275D01*
X025314Y008300D02*
X025314Y008300D01*
X025171Y008117D02*
X024689Y008117D01*
X024768Y007958D02*
X025052Y007958D01*
X024997Y007800D02*
X024809Y007800D01*
X024809Y007641D02*
X024943Y007641D01*
X024900Y007483D02*
X024705Y007483D01*
X025519Y007098D02*
X025580Y007098D01*
X025673Y007137D01*
X025766Y007098D01*
X025870Y007098D01*
X025933Y007124D01*
X026019Y006916D01*
X026239Y006697D01*
X026332Y006658D01*
X026121Y006641D01*
X025891Y006699D01*
X025693Y006828D01*
X025547Y007015D01*
X025519Y007098D01*
X025554Y007007D02*
X025982Y007007D01*
X026019Y006916D02*
X026019Y006916D01*
X026087Y006848D02*
X025677Y006848D01*
X025926Y006690D02*
X026256Y006690D01*
X026239Y006697D02*
X026239Y006697D01*
X026974Y006373D02*
X027535Y006373D01*
X027521Y006531D02*
X027146Y006531D01*
X027254Y006690D02*
X027521Y006690D01*
X027568Y006848D02*
X027340Y006848D01*
X027402Y007007D02*
X027634Y007007D01*
X027774Y007165D02*
X027445Y007165D01*
X027460Y007324D02*
X028009Y007324D01*
X028416Y007483D02*
X027440Y007483D01*
X027413Y007641D02*
X028257Y007641D01*
X028099Y007800D02*
X027377Y007800D01*
X027291Y007958D02*
X027940Y007958D01*
X027782Y008117D02*
X027205Y008117D01*
X027048Y008275D02*
X027623Y008275D01*
X027465Y008434D02*
X026871Y008434D01*
X026510Y008592D02*
X027306Y008592D01*
X027148Y008751D02*
X024689Y008751D01*
X024689Y008592D02*
X025911Y008592D01*
X025519Y008434D02*
X024689Y008434D01*
X026037Y008054D02*
X026121Y008076D01*
X026357Y008056D01*
X026574Y007961D01*
X026749Y007800D01*
X026342Y007800D01*
X026428Y007592D01*
X026491Y007618D01*
X026595Y007618D01*
X026688Y007579D01*
X026781Y007618D01*
X026847Y007618D01*
X026749Y007800D01*
X026835Y007641D02*
X026407Y007641D01*
X026342Y007800D02*
X026342Y007800D01*
X026122Y008019D01*
X026122Y008019D01*
X026037Y008054D01*
X026122Y008019D02*
X026122Y008019D01*
X026183Y007958D02*
X026577Y007958D01*
X026180Y007358D02*
X026182Y007314D01*
X026188Y007271D01*
X026197Y007229D01*
X026210Y007187D01*
X026227Y007147D01*
X026247Y007108D01*
X026270Y007071D01*
X026297Y007037D01*
X026326Y007004D01*
X026359Y006975D01*
X026393Y006948D01*
X026430Y006925D01*
X026469Y006905D01*
X026509Y006888D01*
X026551Y006875D01*
X026593Y006866D01*
X026636Y006860D01*
X026680Y006858D01*
X026724Y006860D01*
X026767Y006866D01*
X026809Y006875D01*
X026851Y006888D01*
X026891Y006905D01*
X026930Y006925D01*
X026967Y006948D01*
X027001Y006975D01*
X027034Y007004D01*
X027063Y007037D01*
X027090Y007071D01*
X027113Y007108D01*
X027133Y007147D01*
X027150Y007187D01*
X027163Y007229D01*
X027172Y007271D01*
X027178Y007314D01*
X027180Y007358D01*
X025180Y007358D02*
X025182Y007421D01*
X025188Y007483D01*
X025198Y007545D01*
X025211Y007607D01*
X025229Y007667D01*
X025250Y007726D01*
X025275Y007784D01*
X025304Y007840D01*
X025336Y007894D01*
X025371Y007946D01*
X025409Y007995D01*
X025451Y008043D01*
X025495Y008087D01*
X025543Y008129D01*
X025592Y008167D01*
X025644Y008202D01*
X025698Y008234D01*
X025754Y008263D01*
X025812Y008288D01*
X025871Y008309D01*
X025931Y008327D01*
X025993Y008340D01*
X026055Y008350D01*
X026117Y008356D01*
X026180Y008358D01*
X026243Y008356D01*
X026305Y008350D01*
X026367Y008340D01*
X026429Y008327D01*
X026489Y008309D01*
X026548Y008288D01*
X026606Y008263D01*
X026662Y008234D01*
X026716Y008202D01*
X026768Y008167D01*
X026817Y008129D01*
X026865Y008087D01*
X026909Y008043D01*
X026951Y007995D01*
X026989Y007946D01*
X027024Y007894D01*
X027056Y007840D01*
X027085Y007784D01*
X027110Y007726D01*
X027131Y007667D01*
X027149Y007607D01*
X027162Y007545D01*
X027172Y007483D01*
X027178Y007421D01*
X027180Y007358D01*
X027178Y007295D01*
X027172Y007233D01*
X027162Y007171D01*
X027149Y007109D01*
X027131Y007049D01*
X027110Y006990D01*
X027085Y006932D01*
X027056Y006876D01*
X027024Y006822D01*
X026989Y006770D01*
X026951Y006721D01*
X026909Y006673D01*
X026865Y006629D01*
X026817Y006587D01*
X026768Y006549D01*
X026716Y006514D01*
X026662Y006482D01*
X026606Y006453D01*
X026548Y006428D01*
X026489Y006407D01*
X026429Y006389D01*
X026367Y006376D01*
X026305Y006366D01*
X026243Y006360D01*
X026180Y006358D01*
X026117Y006360D01*
X026055Y006366D01*
X025993Y006376D01*
X025931Y006389D01*
X025871Y006407D01*
X025812Y006428D01*
X025754Y006453D01*
X025698Y006482D01*
X025644Y006514D01*
X025592Y006549D01*
X025543Y006587D01*
X025495Y006629D01*
X025451Y006673D01*
X025409Y006721D01*
X025371Y006770D01*
X025336Y006822D01*
X025304Y006876D01*
X025275Y006932D01*
X025250Y006990D01*
X025229Y007049D01*
X025211Y007109D01*
X025198Y007171D01*
X025188Y007233D01*
X025182Y007295D01*
X025180Y007358D01*
X025182Y007402D01*
X025188Y007445D01*
X025197Y007487D01*
X025210Y007529D01*
X025227Y007569D01*
X025247Y007608D01*
X025270Y007645D01*
X025297Y007679D01*
X025326Y007712D01*
X025359Y007741D01*
X025393Y007768D01*
X025430Y007791D01*
X025469Y007811D01*
X025509Y007828D01*
X025551Y007841D01*
X025593Y007850D01*
X025636Y007856D01*
X025680Y007858D01*
X025724Y007856D01*
X025767Y007850D01*
X025809Y007841D01*
X025851Y007828D01*
X025891Y007811D01*
X025930Y007791D01*
X025967Y007768D01*
X026001Y007741D01*
X026034Y007712D01*
X026063Y007679D01*
X026090Y007645D01*
X026113Y007608D01*
X026133Y007569D01*
X026150Y007529D01*
X026163Y007487D01*
X026172Y007445D01*
X026178Y007402D01*
X026180Y007358D01*
X026716Y006214D02*
X027600Y006214D01*
X029224Y007071D02*
X031192Y007071D01*
X031692Y007007D02*
X031692Y007007D01*
X031692Y006864D02*
X031692Y007275D01*
X031692Y007275D01*
X031692Y006864D01*
X031679Y006851D01*
X031705Y006851D01*
X031692Y006864D01*
X031692Y007165D02*
X031692Y007165D01*
X031889Y007555D02*
X032192Y007252D01*
X032192Y007071D01*
X032593Y007377D02*
X032399Y007571D01*
X032269Y007571D01*
X032269Y007571D01*
X032399Y007571D01*
X032593Y007765D01*
X032593Y007377D01*
X032593Y007483D02*
X032487Y007483D01*
X032470Y007641D02*
X032593Y007641D01*
X031889Y007555D02*
X029330Y007555D01*
X026919Y009966D01*
X023818Y009966D01*
X017154Y007324D02*
X016866Y007324D01*
X016866Y007165D02*
X017119Y007165D01*
X017119Y007007D02*
X016866Y007007D01*
X016866Y006848D02*
X017119Y006848D01*
X017119Y006690D02*
X016866Y006690D01*
X016866Y006531D02*
X017111Y006531D01*
X016952Y006373D02*
X016866Y006373D01*
X016066Y006373D02*
X015441Y006373D01*
X015283Y006531D02*
X016066Y006531D01*
X016066Y006690D02*
X015124Y006690D01*
X014966Y006848D02*
X016066Y006848D01*
X016066Y007007D02*
X015005Y007007D01*
X015163Y007165D02*
X016066Y007165D01*
X016066Y007324D02*
X015322Y007324D01*
X016044Y007483D02*
X016066Y007483D01*
X012908Y006289D02*
X012908Y005183D01*
X012739Y005014D01*
X012739Y004844D01*
X011992Y004097D01*
X011992Y005372D01*
X012908Y006289D01*
X012908Y006214D02*
X012834Y006214D01*
X012908Y006056D02*
X012676Y006056D01*
X012517Y005897D02*
X012908Y005897D01*
X012908Y005739D02*
X012358Y005739D01*
X012200Y005580D02*
X012908Y005580D01*
X012908Y005421D02*
X012041Y005421D01*
X011992Y005263D02*
X012908Y005263D01*
X012830Y005104D02*
X011992Y005104D01*
X011992Y004946D02*
X012739Y004946D01*
X012682Y004787D02*
X011992Y004787D01*
X011992Y004629D02*
X012524Y004629D01*
X012365Y004470D02*
X011992Y004470D01*
X011992Y004312D02*
X012207Y004312D01*
X012048Y004153D02*
X011992Y004153D01*
X011137Y004165D02*
X010951Y004351D01*
X010520Y004351D01*
X010516Y004346D01*
X010516Y005077D01*
X011137Y005698D01*
X011137Y004165D01*
X011137Y004312D02*
X010990Y004312D01*
X011137Y004470D02*
X010516Y004470D01*
X010516Y004629D02*
X011137Y004629D01*
X011137Y004787D02*
X010516Y004787D01*
X010516Y004946D02*
X011137Y004946D01*
X011137Y005104D02*
X010543Y005104D01*
X010702Y005263D02*
X011137Y005263D01*
X011137Y005421D02*
X010860Y005421D01*
X011019Y005580D02*
X011137Y005580D01*
X009956Y005107D02*
X009956Y004346D01*
X009951Y004351D01*
X009520Y004351D01*
X009334Y004165D01*
X009334Y004486D01*
X009956Y005107D01*
X009956Y005104D02*
X009953Y005104D01*
X009956Y004946D02*
X009794Y004946D01*
X009636Y004787D02*
X009956Y004787D01*
X009956Y004629D02*
X009477Y004629D01*
X009334Y004470D02*
X009956Y004470D01*
X009481Y004312D02*
X009334Y004312D01*
X009334Y003496D02*
X009500Y003331D01*
X009334Y003165D01*
X009334Y003496D01*
X009334Y003360D02*
X009470Y003360D01*
X009372Y003202D02*
X009334Y003202D01*
X011255Y002955D02*
X011255Y002746D01*
X011432Y002923D01*
X011432Y003131D01*
X011255Y002955D01*
X011255Y002885D02*
X011394Y002885D01*
X011432Y003043D02*
X011344Y003043D01*
X012814Y003106D02*
X014429Y003106D01*
X014094Y003441D01*
X014094Y004819D01*
X014374Y004470D02*
X014877Y004470D01*
X014877Y004312D02*
X014374Y004312D01*
X014374Y004153D02*
X014877Y004153D01*
X014877Y003995D02*
X014374Y003995D01*
X014374Y003836D02*
X014877Y003836D01*
X014877Y003678D02*
X014374Y003678D01*
X014621Y003519D02*
X014877Y003519D01*
X014806Y003360D02*
X014779Y003360D01*
X014448Y003126D02*
X014429Y003106D01*
X014773Y002885D02*
X014852Y002885D01*
X013814Y003386D02*
X013814Y004438D01*
X012882Y003506D01*
X012980Y003506D01*
X013100Y003386D01*
X013814Y003386D01*
X013814Y003519D02*
X012895Y003519D01*
X013053Y003678D02*
X013814Y003678D01*
X013814Y003836D02*
X013212Y003836D01*
X013370Y003995D02*
X013814Y003995D01*
X013814Y004153D02*
X013529Y004153D01*
X013687Y004312D02*
X013814Y004312D01*
X015754Y005739D02*
X016066Y005739D01*
X016066Y005897D02*
X015754Y005897D01*
X015720Y006056D02*
X016066Y006056D01*
X016066Y006214D02*
X015600Y006214D01*
X010938Y008062D02*
X010907Y008032D01*
X010097Y008032D01*
X010128Y008062D01*
X010938Y008062D01*
X010790Y007324D02*
X009023Y007324D01*
X008864Y007165D02*
X010631Y007165D01*
X008865Y007958D02*
X006874Y007958D01*
X006715Y007800D02*
X008706Y007800D01*
X006317Y008533D02*
X006312Y008528D01*
X006307Y008533D01*
X006317Y008533D01*
X003522Y009702D02*
X001791Y009702D01*
X001633Y009861D02*
X003681Y009861D01*
X003839Y010019D02*
X000593Y010019D01*
X000593Y009861D02*
X000728Y009861D01*
X000593Y010178D02*
X001953Y010178D01*
X001894Y010202D02*
X002197Y010076D01*
X002526Y010076D01*
X002829Y010202D01*
X003061Y010434D01*
X003187Y010737D01*
X003187Y011066D01*
X003061Y011369D01*
X002829Y011601D01*
X002526Y011726D01*
X002197Y011726D01*
X001894Y011601D01*
X001662Y011369D01*
X001537Y011066D01*
X001537Y010737D01*
X001662Y010434D01*
X001894Y010202D01*
X001760Y010336D02*
X000593Y010336D01*
X000593Y010495D02*
X001637Y010495D01*
X001571Y010653D02*
X000593Y010653D01*
X000593Y010812D02*
X001537Y010812D01*
X001537Y010971D02*
X000593Y010971D01*
X000593Y011129D02*
X001563Y011129D01*
X001629Y011288D02*
X000593Y011288D01*
X000593Y011446D02*
X001740Y011446D01*
X001904Y011605D02*
X000593Y011605D01*
X000593Y011763D02*
X003714Y011763D01*
X003714Y011605D02*
X002819Y011605D01*
X002984Y011446D02*
X003810Y011446D01*
X004138Y011288D02*
X003095Y011288D01*
X003160Y011129D02*
X004297Y011129D01*
X004456Y010971D02*
X003187Y010971D01*
X003187Y010812D02*
X004614Y010812D01*
X004788Y010653D02*
X003152Y010653D01*
X003086Y010495D02*
X008157Y010495D01*
X008064Y010653D02*
X006911Y010653D01*
X006994Y010812D02*
X008064Y010812D01*
X008115Y010971D02*
X006994Y010971D01*
X006594Y010901D02*
X004921Y010901D01*
X004114Y011709D01*
X003761Y011922D02*
X000593Y011922D01*
X000593Y012080D02*
X003920Y012080D01*
X004307Y012080D02*
X004463Y012080D01*
X004497Y012239D02*
X000593Y012239D01*
X004930Y011288D02*
X006414Y011288D01*
X006773Y011288D02*
X008075Y011288D01*
X008184Y011129D02*
X006932Y011129D01*
X007917Y011446D02*
X005588Y011446D01*
X005041Y011446D02*
X005027Y011446D01*
X004156Y010336D02*
X002963Y010336D01*
X002770Y010178D02*
X003998Y010178D01*
X004534Y009922D02*
X004544Y009932D01*
X008178Y009932D01*
X008184Y009927D01*
X008178Y009922D01*
X004534Y009922D01*
X003364Y009544D02*
X001950Y009544D01*
X001996Y009385D02*
X003205Y009385D01*
X003047Y009227D02*
X002132Y009227D01*
X002132Y009068D02*
X002902Y009068D01*
X001180Y009327D02*
X001058Y009205D01*
X001058Y008933D01*
X002716Y006925D02*
X003149Y007358D01*
X002716Y006925D02*
X001771Y006925D01*
X002113Y006571D02*
X002187Y006645D01*
X002532Y006645D01*
X002383Y006496D01*
X002187Y006496D01*
X002113Y006571D01*
X002152Y006531D02*
X002418Y006531D01*
X005285Y005543D02*
X005285Y005543D01*
X008450Y002251D02*
X008451Y002251D01*
X008429Y002230D02*
X008429Y002230D01*
X008757Y001775D02*
X007947Y001775D01*
X008105Y001616D02*
X009216Y001616D01*
X010176Y001536D02*
X010236Y001595D01*
X010295Y001536D01*
X010176Y001536D01*
X011619Y000865D02*
X011804Y001050D01*
X011804Y000979D01*
X011804Y000893D01*
X011832Y000865D01*
X011619Y000865D01*
X011736Y000982D02*
X011804Y000982D01*
X007788Y001142D02*
X007399Y001142D01*
X007021Y001519D01*
X007021Y001943D01*
X007045Y001885D01*
X007124Y001806D01*
X007788Y001142D01*
X007631Y001299D02*
X007241Y001299D01*
X007083Y001458D02*
X007472Y001458D01*
X007314Y001616D02*
X007021Y001616D01*
X007021Y001775D02*
X007155Y001775D01*
X007025Y001934D02*
X007021Y001934D01*
X022716Y002726D02*
X024314Y002726D01*
X024473Y002568D02*
X022840Y002568D01*
X022840Y002409D02*
X024631Y002409D01*
X024790Y002251D02*
X022820Y002251D01*
X031664Y007835D02*
X031692Y007864D01*
X031721Y007835D01*
X031664Y007835D01*
X031692Y007958D02*
X031692Y007958D01*
X032192Y008071D02*
X032192Y008236D01*
X031889Y008539D01*
X032254Y008571D02*
X032399Y008571D01*
X032593Y008765D01*
X032593Y008377D01*
X032399Y008571D01*
X032254Y008571D01*
X032254Y008571D01*
X032421Y008592D02*
X032593Y008592D01*
X032593Y008434D02*
X032536Y008434D01*
X032580Y008751D02*
X032593Y008751D01*
X011411Y012276D02*
X011376Y012241D01*
X010958Y011823D01*
X010951Y011831D01*
X010520Y011831D01*
X010516Y011826D01*
X010516Y012027D01*
X010516Y012138D01*
X010473Y012241D01*
X010438Y012276D01*
X011411Y012276D01*
X011374Y012239D02*
X010474Y012239D01*
X010516Y012080D02*
X011215Y012080D01*
X011057Y011922D02*
X010516Y011922D01*
X009956Y011922D02*
X008233Y011922D01*
X008392Y011763D02*
X009453Y011763D01*
X009294Y011605D02*
X008550Y011605D01*
X008704Y011446D02*
X009216Y011446D01*
X009216Y011288D02*
X008744Y011288D01*
X008744Y011129D02*
X009216Y011129D01*
X009292Y010019D02*
X008836Y010019D01*
D13*
X025528Y007358D03*
X025818Y007358D03*
X026543Y007358D03*
X026833Y007358D03*
D14*
X031192Y007071D03*
X032192Y007071D03*
X032192Y008071D03*
X031192Y008071D03*
X031192Y009071D03*
X032192Y009071D03*
X032192Y010071D03*
X031192Y010071D03*
X031192Y006071D03*
X032192Y006071D03*
X032192Y005071D03*
X031192Y005071D03*
X031192Y004071D03*
X032192Y004071D03*
X032192Y003071D03*
X031192Y003071D03*
X020972Y003071D03*
X019972Y003071D03*
X019972Y004071D03*
X020972Y004071D03*
X020972Y005071D03*
X019972Y005071D03*
X019972Y006071D03*
X020972Y006071D03*
X020972Y007071D03*
X019972Y007071D03*
X019972Y008071D03*
X020972Y008071D03*
X020972Y009071D03*
X019972Y009071D03*
X019972Y010071D03*
X020972Y010071D03*
D15*
X010736Y010311D03*
X009736Y010311D03*
X009736Y009311D03*
X010736Y009311D03*
X010736Y011311D03*
X009736Y011311D03*
X009736Y003831D03*
X010736Y003831D03*
X010736Y002831D03*
X009736Y002831D03*
X009736Y001831D03*
X010736Y001831D03*
D16*
X012204Y001059D03*
X009054Y002043D03*
X008090Y002457D03*
X009054Y002831D03*
X006741Y003126D03*
X005905Y003126D03*
X006200Y004012D03*
X005511Y004012D03*
X001180Y003815D03*
X005511Y005882D03*
X006200Y005882D03*
X008956Y006571D03*
X005610Y007309D03*
X005019Y007309D03*
X006495Y008146D03*
X006299Y008933D03*
X008464Y009642D03*
X008464Y010212D03*
X008464Y010754D03*
X006594Y010901D03*
X005314Y011738D03*
X004743Y011728D03*
X004114Y011709D03*
X001180Y009327D03*
X009842Y008342D03*
X012598Y008146D03*
X012598Y007555D03*
X013188Y007358D03*
X012598Y006964D03*
X014763Y006485D03*
X015747Y007752D03*
X015354Y008146D03*
X014763Y008342D03*
X014881Y009031D03*
X015551Y009327D03*
X014645Y009622D03*
X013139Y010311D03*
X013779Y010508D03*
X012204Y010311D03*
X012007Y010901D03*
X013582Y011354D03*
X017716Y011689D03*
X018503Y010901D03*
X018110Y010114D03*
X019094Y009523D03*
X018306Y009327D03*
X017913Y008992D03*
X016417Y009327D03*
X012991Y008933D03*
X018110Y006964D03*
X018700Y006964D03*
X018405Y007831D03*
X022440Y009130D03*
X022440Y009720D03*
X022440Y010311D03*
X022440Y010901D03*
X024212Y009327D03*
X024409Y007752D03*
X022440Y005586D03*
X022440Y004996D03*
X022440Y004405D03*
X022440Y003815D03*
X022440Y003224D03*
X024212Y003224D03*
X022440Y002437D03*
X022440Y001846D03*
X019291Y002634D03*
X018110Y002831D03*
X018110Y003618D03*
X018897Y003618D03*
X017027Y004012D03*
X017027Y004789D03*
X018011Y004720D03*
X019232Y004799D03*
X015157Y003146D03*
X014448Y003126D03*
X012814Y003106D03*
X014094Y004819D03*
X013139Y004848D03*
X018582Y002043D03*
X018110Y001649D03*
X026377Y001846D03*
X028318Y005171D03*
X028346Y011246D03*
D17*
X017814Y007457D02*
X017519Y007161D01*
X017519Y006374D01*
X016928Y005783D01*
X016466Y005783D01*
X016466Y008018D01*
X015747Y008736D01*
X015177Y008736D01*
X014881Y009031D01*
X014881Y009012D01*
X008956Y006571D02*
X007696Y005311D01*
X007696Y004012D01*
X008090Y003618D01*
X008090Y002457D01*
X007696Y004012D02*
X006200Y004012D01*
X005511Y004012D01*
X005511Y005882D02*
X005511Y007210D01*
X005610Y007309D01*
X005019Y007309D01*
X005511Y005882D02*
X006200Y005882D01*
X014763Y006485D02*
X015354Y005895D01*
X015354Y005390D01*
X016466Y004277D01*
X016466Y003687D01*
X017450Y002703D01*
X017450Y003155D01*
X017913Y003618D01*
X018110Y003618D01*
X016466Y004277D02*
X016466Y005783D01*
X020972Y003071D02*
X020972Y002346D01*
X019684Y001059D01*
X017450Y001059D01*
X017450Y002703D01*
X017450Y001059D02*
X012204Y001059D01*
M02*
